{
.appVersion = "1271";
copyright = "\\u00C2 \\u00A9 2011 by Robert E. Leuschke. All rights reserved.";
customParameters = (
{
name = description;
value = "©2011 by Robert E. Leuschke. All rights reserved.";
},
{
name = trademark;
value = "MonteCarloPro is a trademark of Robert E. Leuschke.";
},
{
name = licenseURL;
value = "http://www.typesetit.com/license.html";
},
{
name = license;

glyphs = (
{
glyphname = lslash;
layers = (
{
hints = (
{
horizontal = 1;
place = "{-7, 20}";
type = Stem;
},
{
horizontal = 1;
place = "{221, 20}";
type = Stem;
},
{
horizontal = 1;
place = "{630, -20}";
target = down;
type = TopGhost;
}
);
layerId = "23C1765D-E8A9-427D-A2B9-D2B95394C525";
paths = (
{
closed = 1;
nodes = (
"369 622 OFFCURVE",
"330 624 OFFCURVE",
"309 604 CURVE SMOOTH",
"291 588 OFFCURVE",
"274 555 OFFCURVE",
"241 497 CURVE SMOOTH",
"201 425 OFFCURVE",
"169 359 OFFCURVE",
"141 305 CURVE SMOOTH",
"108 241 LINE",
"55 241 LINE",
"55 221 LINE",
"98 221 LINE",
"72 170 OFFCURVE",
"52 127 OFFCURVE",
"42 107 CURVE SMOOTH",
"29 81 OFFCURVE",
"41 79 OFFCURVE",
"44 85 CURVE SMOOTH",
"65 123 LINE",
"58 99 OFFCURVE",
"52 72 OFFCURVE",
"52 53 CURVE SMOOTH",
"53 19 OFFCURVE",
"70 -7 OFFCURVE",
"112 -7 CURVE SMOOTH",
"136 -7 OFFCURVE",
"156 5 OFFCURVE",
"173 21 CURVE SMOOTH",
"199 47 OFFCURVE",
"217 81 OFFCURVE",
"231 112 CURVE SMOOTH",
"237 125 LINE SMOOTH",
"241 133 OFFCURVE",
"238 153 OFFCURVE",
"235 146 CURVE SMOOTH",
"230 138 LINE",
"215 105 OFFCURVE",
"198 71 OFFCURVE",
"173 43 CURVE SMOOTH",
"161 30 OFFCURVE",
"134 12 OFFCURVE",
"116 13 CURVE SMOOTH",
"73 17 OFFCURVE",
"91 94 OFFCURVE",
"127 174 CURVE SMOOTH",
"148 221 LINE",
"218 221 LINE",
"218 241 LINE",
"157 241 LINE",
"204 337 OFFCURVE",
"275 464 OFFCURVE",
"334 552 CURVE SMOOTH",
"356 585 OFFCURVE",
"377 613 OFFCURVE",
"394 630 CURVE"
);
}
);
width = 173;
}
);
note = lslash;
unicode = 0142;
},
{
glyphname = Yacute;
lastChange = "2020-08-04 19:55:56 +0000";
layers = (
{
hints = (
{
horizontal = 1;
place = "{538, 9}";
type = Stem;
}
);
layerId = "23C1765D-E8A9-427D-A2B9-D2B95394C525";
paths = (
{
closed = 1;
nodes = (
"983 604 OFFCURVE",
"978 657 OFFCURVE",
"930 647 CURVE SMOOTH",
"858 631 OFFCURVE",
"799 528 OFFCURVE",
"759 439 CURVE SMOOTH",
"687 281 OFFCURVE",
"500 -34 OFFCURVE",
"344 -29 CURVE SMOOTH",
"309 -28 OFFCURVE",
"283 -8 OFFCURVE",
"280 47 CURVE SMOOTH",
"274 134 OFFCURVE",
"358 269 OFFCURVE",
"420 374 CURVE SMOOTH",
"468 455 OFFCURVE",
"549 586 OFFCURVE",
"479 674 CURVE SMOOTH",
"450 711 OFFCURVE",
"396 726 OFFCURVE",
"333 722 CURVE SMOOTH",
"206 715 OFFCURVE",
"69 645 OFFCURVE",
"6 532 CURVE SMOOTH",
"-20 484 OFFCURVE",
"-35 427 OFFCURVE",
"-19 374 CURVE SMOOTH",
"5 295 OFFCURVE",
"94 283 OFFCURVE",
"160 332 CURVE SMOOTH",
"203 363 OFFCURVE",
"232 422 OFFCURVE",
"223 476 CURVE SMOOTH",
"219 500 OFFCURVE",
"201 541 OFFCURVE",
"173 536 CURVE SMOOTH",
"166 535 OFFCURVE",
"167 530 OFFCURVE",
"173 528 CURVE SMOOTH",
"179 526 OFFCURVE",
"187 514 OFFCURVE",
"190 504 CURVE SMOOTH",
"212 441 OFFCURVE",
"186 372 OFFCURVE",
"135 337 CURVE SMOOTH",
"88 304 OFFCURVE",
"20 314 OFFCURVE",
"6 374 CURVE SMOOTH",
"-5 419 OFFCURVE",
"10 473 OFFCURVE",
"38 519 CURVE SMOOTH",
"97 617 OFFCURVE",
"223 700 OFFCURVE",
"337 706 CURVE SMOOTH",
"387 708 OFFCURVE",
"428 698 OFFCURVE",
"450 671 CURVE SMOOTH",
"510 598 OFFCURVE",
"423 464 OFFCURVE",
"381 397 CURVE SMOOTH",
"321 303 OFFCURVE",
"252 211 OFFCURVE",
"234 100 CURVE SMOOTH",
"220 16 OFFCURVE",
"257 -45 OFFCURVE",
"344 -43 CURVE SMOOTH",
"484 -39 OFFCURVE",
"607 121 OFFCURVE",
"699 274 CURVE",
"674 212 LINE SMOOTH",
"626 102 OFFCURVE",
"548 -88 OFFCURVE",
"452 -213 CURVE SMOOTH",
"402 -278 OFFCURVE",
"349 -303 OFFCURVE",
"302 -306 CURVE SMOOTH",
"260 -308 OFFCURVE",
"214 -286 OFFCURVE",
"218 -249 CURVE SMOOTH",
"220 -234 OFFCURVE",
"207 -245 OFFCURVE",
"204 -251 CURVE SMOOTH",
"181 -298 OFFCURVE",
"238 -325 OFFCURVE",
"282 -325 CURVE SMOOTH",
"415 -325 OFFCURVE",
"507 -241 OFFCURVE",
"581 -119 CURVE SMOOTH",
"685 55 OFFCURVE",
"717 231 OFFCURVE",
"779 405 CURVE SMOOTH",
"805 478 OFFCURVE",
"853 600 OFFCURVE",
"942 603 CURVE SMOOTH"
);
},
{
closed = 1;
nodes = (
"819 762 LINE SMOOTH",
"836 772 OFFCURVE",
"810 805 OFFCURVE",
"795 792 CURVE SMOOTH",
"763 764 OFFCURVE",
"717 728 OFFCURVE",
"687 707 CURVE SMOOTH",
"677 700 OFFCURVE",
"687 688 OFFCURVE",
"693 691 CURVE SMOOTH"
);
}
);
width = 744;
}
);
note = Yacute;
unicode = 00DD;
},
{
glyphname = yacute;
layers = (
{
hints = (
{
horizontal = 1;
place = "{192, 9}";
type = Stem;
},
{
horizontal = 1;
place = "{235, 16}";
type = Stem;
}
);
layerId = "23C1765D-E8A9-427D-A2B9-D2B95394C525";
paths = (
{
closed = 1;
nodes = (
"532 166 OFFCURVE",
"524 175 OFFCURVE",
"518 165 CURVE SMOOTH",
"493 119 OFFCURVE",
"469 78 OFFCURVE",
"439 46 CURVE SMOOTH",
"396 -2 OFFCURVE",
"343 -31 OFFCURVE",
"307 -46 CURVE",
"350 62 OFFCURVE",
"447 314 OFFCURVE",
"495 358 CURVE",
"437 361 OFFCURVE",
"401 300 OFFCURVE",
"382 260 CURVE SMOOTH",
"342 176 OFFCURVE",
"304 95 OFFCURVE",
"233 38 CURVE SMOOTH",
"195 7 OFFCURVE",
"157 19 OFFCURVE",
"183 84 CURVE SMOOTH",
"199 124 OFFCURVE",
"218 164 OFFCURVE",
"252 223 CURVE SMOOTH",
"273 260 OFFCURVE",
"299 332 OFFCURVE",
"235 339 CURVE SMOOTH",
"213 342 OFFCURVE",
"184 333 OFFCURVE",
"164 310 CURVE SMOOTH",
"151 294 OFFCURVE",
"138 275 OFFCURVE",
"127 255 CURVE SMOOTH",
"106 218 OFFCURVE",
"93 188 OFFCURVE",
"64 136 CURVE SMOOTH",
"53 116 OFFCURVE",
"66 117 OFFCURVE",
"71 125 CURVE SMOOTH",
"100 173 OFFCURVE",
"134 242 OFFCURVE",
"134 242 CURVE",
"145 263 OFFCURVE",
"178 317 OFFCURVE",
"208 313 CURVE SMOOTH",
"235 309 OFFCURVE",
"208 251 OFFCURVE",
"201 237 CURVE SMOOTH",
"180 192 OFFCURVE",
"157 151 OFFCURVE",
"138 105 CURVE SMOOTH",
"119 58 OFFCURVE",
"107 -14 OFFCURVE",
"176 -6 CURVE SMOOTH",
"197 -3 OFFCURVE",
"218 8 OFFCURVE",
"241 25 CURVE SMOOTH",
"260 42 OFFCURVE",
"292 75 OFFCURVE",
"321 111 CURVE",
"275 -9 LINE",
"266 -27 OFFCURVE",
"258 -48 OFFCURVE",
"249 -69 CURVE",
"159 -111 OFFCURVE",
"124 -120 OFFCURVE",
"62 -162 CURVE SMOOTH",
"-13 -214 OFFCURVE",
"0 -306 OFFCURVE",
"105 -282 CURVE SMOOTH",
"200 -261 OFFCURVE",
"250 -175 OFFCURVE",
"298 -67 CURVE",
"340 -52 OFFCURVE",
"391 -19 OFFCURVE",
"439 27 CURVE SMOOTH",
"477 65 OFFCURVE",
"502 111 OFFCURVE",
"526 155 CURVE SMOOTH"
);
},
{
closed = 1;
nodes = (
"211 -161 OFFCURVE",
"170 -240 OFFCURVE",
"99 -262 CURVE SMOOTH",
"20 -286 OFFCURVE",
"8 -221 OFFCURVE",
"69 -174 CURVE SMOOTH",
"126 -131 OFFCURVE",
"197 -111 OFFCURVE",
"240 -88 CURVE"
);
},
{
closed = 1;
nodes = (
"446 460 LINE SMOOTH",
"463 470 OFFCURVE",
"438 503 OFFCURVE",
"422 490 CURVE SMOOTH",
"389 464 OFFCURVE",
"344 425 OFFCURVE",
"314 405 CURVE SMOOTH",
"304 398 OFFCURVE",
"314 386 OFFCURVE",
"320 389 CURVE SMOOTH"
);
}
);
width = 439;
}
);
note = yacute;
unicode = 00FD;
},
{
glyphname = thorn;
layers = (
{
hints = (
{
horizontal = 1;
place = "{-53, 12}";
type = Stem;
}
);
layerId = "23C1765D-E8A9-427D-A2B9-D2B95394C525";
paths = (
{
closed = 1;
nodes = (
"359 124 LINE SMOOTH",
"363 132 OFFCURVE",
"361 154 OFFCURVE",
"357 147 CURVE SMOOTH",
"354 139 LINE",
"338 108 OFFCURVE",
"318 71 OFFCURVE",
"296 44 CURVE SMOOTH",
"269 13 OFFCURVE",
"215 -8 OFFCURVE",
"206 47 CURVE",
"238 76 OFFCURVE",
"266 112 OFFCURVE",
"279 134 CURVE SMOOTH",
"310 188 OFFCURVE",
"366 324 OFFCURVE",
"268 324 CURVE SMOOTH",
"235 324 OFFCURVE",
"205 299 OFFCURVE",
"178 269 CURVE",
"198 306 OFFCURVE",
"217 340 OFFCURVE",
"231 364 CURVE SMOOTH",
"272 435 OFFCURVE",
"323 501 OFFCURVE",
"333 513 CURVE",
"302 508 OFFCURVE",
"267 513 OFFCURVE",
"245 478 CURVE SMOOTH",
"227 449 OFFCURVE",
"132 289 OFFCURVE",
"101 226 CURVE SMOOTH",
"91 206 LINE",
"42 107 LINE SMOOTH",
"29 81 OFFCURVE",
"39 79 OFFCURVE",
"43 84 CURVE",
"-115 -253 LINE",
"-100 -248 OFFCURVE",
"-55 -230 OFFCURVE",
"-42 -224 CURVE",
"-30 -178 OFFCURVE",
"29 -31 OFFCURVE",
"68 65 CURVE",
"66 54 OFFCURVE",
"65 44 OFFCURVE",
"67 36 CURVE SMOOTH",
"71 12 OFFCURVE",
"87 -4 OFFCURVE",
"125 2 CURVE SMOOTH",
"147 5 OFFCURVE",
"170 18 OFFCURVE",
"191 35 CURVE",
"205 -12 OFFCURVE",
"264 -9 OFFCURVE",
"296 23 CURVE SMOOTH",
"321 48 OFFCURVE",
"339 85 OFFCURVE",
"354 114 CURVE SMOOTH"
);
},
{
closed = 1;
nodes = (
"310 308 OFFCURVE",
"251 185 OFFCURVE",
"235 156 CURVE SMOOTH",
"205 102 OFFCURVE",
"144 3 OFFCURVE",
"95 18 CURVE SMOOTH",
"75 24 OFFCURVE",
"76 52 OFFCURVE",
"87 83 CURVE SMOOTH",
"93 99 OFFCURVE",
"100 114 OFFCURVE",
"106 127 CURVE SMOOTH",
"112 141 OFFCURVE",
"122 161 OFFCURVE",
"132 181 CURVE",
"139 191 LINE SMOOTH",
"176 243 OFFCURVE",
"222 308 OFFCURVE",
"253 308 CURVE SMOOTH"
);
}
);
width = 296;
}
);
note = thorn;
unicode = 00FE;
},
{
glyphname = Zcaron;
layers = (
{
hints = (
{
horizontal = 1;
place = "{63, 17}";
type = Stem;
},
{
horizontal = 1;
place = "{582, 16}";
type = Stem;
}
);
layerId = "23C1765D-E8A9-427D-A2B9-D2B95394C525";
paths = (
{
closed = 1;
nodes = (
"900 869 LINE SMOOTH",
"905 873 OFFCURVE",
"895 881 OFFCURVE",
"889 876 CURVE",
"761 792 LINE",
"685 874 LINE SMOOTH",
"681 879 OFFCURVE",
"671 871 OFFCURVE",
"674 865 CURVE SMOOTH",
"739 760 LINE SMOOTH",
"745 751 OFFCURVE",
"756 753 OFFCURVE",
"772 766 CURVE SMOOTH"
);
},
{
closed = 1;
nodes = (
"816 631 OFFCURVE",
"766 651 OFFCURVE",
"646 661 CURVE SMOOTH",
"505 673 OFFCURVE",
"351 643 OFFCURVE",
"263 518 CURVE SMOOTH",
"227 467 OFFCURVE",
"218 375 OFFCURVE",
"282 342 CURVE SMOOTH",
"327 318 OFFCURVE",
"401 332 OFFCURVE",
"447 356 CURVE SMOOTH",
"508 388 OFFCURVE",
"601 484 OFFCURVE",
"562 555 CURVE SMOOTH",
"557 564 OFFCURVE",
"552 559 OFFCURVE",
"554 550 CURVE",
"576 484 OFFCURVE",
"496 402 OFFCURVE",
"442 372 CURVE SMOOTH",
"403 351 OFFCURVE",
"326 331 OFFCURVE",
"288 355 CURVE SMOOTH",
"240 386 OFFCURVE",
"275 465 OFFCURVE",
"304 501 CURVE SMOOTH",
"386 603 OFFCURVE",
"516 634 OFFCURVE",
"641 631 CURVE SMOOTH",
"744 628 OFFCURVE",
"790 621 OFFCURVE",
"887 592 CURVE",
"864 587 OFFCURVE",
"844 578 OFFCURVE",
"816 555 CURVE SMOOTH",
"733 489 OFFCURVE",
"648 405 OFFCURVE",
"565 323 CURVE SMOOTH",
"464 222 OFFCURVE",
"343 122 OFFCURVE",
"256 60 CURVE",
"226 63 OFFCURVE",
"174 72 OFFCURVE",
"151 52 CURVE SMOOTH",
"131 36 OFFCURVE",
"133 7 OFFCURVE",
"175 2 CURVE SMOOTH",
"209 -2 OFFCURVE",
"252 14 OFFCURVE",
"275 33 CURVE",
"408 -25 OFFCURVE",
"619 -153 OFFCURVE",
"778 -89 CURVE SMOOTH",
"892 -43 OFFCURVE",
"915 103 OFFCURVE",
"810 192 CURVE SMOOTH",
"790 209 OFFCURVE",
"768 222 OFFCURVE",
"747 229 CURVE",
"746 229 OFFCURVE",
"731 226 OFFCURVE",
"745 218 CURVE SMOOTH",
"762 209 OFFCURVE",
"785 196 OFFCURVE",
"805 178 CURVE SMOOTH",
"891 101 OFFCURVE",
"848 -5 OFFCURVE",
"756 -43 CURVE SMOOTH",
"630 -94 OFFCURVE",
"420 1 OFFCURVE",
"292 48 CURVE",
"415 121 OFFCURVE",
"518 201 OFFCURVE",
"595 286 CURVE SMOOTH",
"662 360 OFFCURVE",
"734 455 OFFCURVE",
"823 531 CURVE SMOOTH",
"854 558 OFFCURVE",
"892 577 OFFCURVE",
"914 586 CURVE",
"936 581 OFFCURVE",
"955 590 OFFCURVE",
"929 598 CURVE SMOOTH"
);
}
);
width = 884;
}
);
note = Zcaron;
unicode = 017D;
},
{
glyphname = zcaron;
layers = (
{
hints = (
{
horizontal = 1;
place = "{244, 15}";
type = Stem;
},
{
place = "{30, 10}";
type = Stem;
}
);
layerId = "23C1765D-E8A9-427D-A2B9-D2B95394C525";
paths = (
{
closed = 1;
nodes = (
"442 496 LINE SMOOTH",
"447 500 OFFCURVE",
"437 507 OFFCURVE",
"431 503 CURVE SMOOTH",
"303 419 LINE",
"227 501 LINE SMOOTH",
"223 506 OFFCURVE",
"212 498 OFFCURVE",
"216 492 CURVE SMOOTH",
"280 387 LINE SMOOTH",
"286 377 OFFCURVE",
"298 380 OFFCURVE",
"314 393 CURVE SMOOTH"
);
},
{
closed = 1;
nodes = (
"374 318 OFFCURVE",
"366 326 OFFCURVE",
"355 329 CURVE",
"346 320 OFFCURVE",
"304 321 OFFCURVE",
"289 321 CURVE SMOOTH",
"257 321 OFFCURVE",
"214 328 OFFCURVE",
"184 321 CURVE SMOOTH",
"152 313 OFFCURVE",
"139 292 OFFCURVE",
"120 259 CURVE SMOOTH",
"96 218 OFFCURVE",
"76 179 OFFCURVE",
"56 136 CURVE SMOOTH",
"46 113 OFFCURVE",
"47 94 OFFCURVE",
"54 107 CURVE SMOOTH",
"91 179 OFFCURVE",
"119 228 OFFCURVE",
"137 252 CURVE SMOOTH",
"160 283 OFFCURVE",
"190 290 OFFCURVE",
"229 286 CURVE SMOOTH",
"247 284 OFFCURVE",
"287 279 OFFCURVE",
"302 276 CURVE",
"271 248 OFFCURVE",
"241 218 OFFCURVE",
"212 186 CURVE SMOOTH",
"144 110 OFFCURVE",
"76 30 OFFCURVE",
"32 23 CURVE",
"24 0 OFFCURVE",
"42 -14 OFFCURVE",
"58 -8 CURVE",
"77 2 OFFCURVE",
"92 16 OFFCURVE",
"100 30 CURVE",
"115 -5 OFFCURVE",
"177 -18 OFFCURVE",
"207 -16 CURVE SMOOTH",
"291 -12 OFFCURVE",
"320 23 OFFCURVE",
"361 106 CURVE SMOOTH",
"378 140 OFFCURVE",
"367 143 OFFCURVE",
"360 129 CURVE SMOOTH",
"329 65 OFFCURVE",
"291 23 OFFCURVE",
"211 22 CURVE SMOOTH",
"179 21 OFFCURVE",
"146 37 OFFCURVE",
"136 56 CURVE SMOOTH",
"130 67 OFFCURVE",
"141 81 OFFCURVE",
"150 91 CURVE SMOOTH",
"172 118 OFFCURVE",
"201 153 OFFCURVE",
"222 175 CURVE SMOOTH",
"251 205 OFFCURVE",
"297 251 OFFCURVE",
"330 270 CURVE",
"332 270 LINE",
"360 262 OFFCURVE",
"383 282 OFFCURVE",
"377 308 CURVE SMOOTH"
);
}
);
width = 309;
}
);
note = zcaron;
unicode = 017E;
},
{
glyphname = onehalf;
layers = (
{
hints = (
{
horizontal = 1;
place = "{12, 29}";
type = Stem;
},
{
horizontal = 1;
place = "{325, 14}";
type = Stem;
},
{
horizontal = 1;
place = "{403, 13}";
type = Stem;
},
{
horizontal = 1;
place = "{726, 10}";
type = Stem;
},
{
place = "{315, 35}";
type = Stem;
},
{
place = "{563, 35}";
type = Stem;
}
);
layerId = "23C1765D-E8A9-427D-A2B9-D2B95394C525";
paths = (
{
closed = 1;
nodes = (
"244 730 LINE",
"116 624 LINE",
"133 624 OFFCURVE",
"146 632 OFFCURVE",
"153 637 CURVE SMOOTH",
"239 703 LINE",
"126 452 LINE SMOOTH",
"115 428 OFFCURVE",
"102 416 OFFCURVE",
"81 416 CURVE SMOOTH",
"48 416 LINE SMOOTH",
"42 416 OFFCURVE",
"40 403 OFFCURVE",
"45 403 CURVE SMOOTH",
"201 403 LINE SMOOTH",
"207 403 OFFCURVE",
"211 416 OFFCURVE",
"205 416 CURVE SMOOTH",
"170 416 LINE SMOOTH",
"148 416 OFFCURVE",
"148 424 OFFCURVE",
"160 450 CURVE SMOOTH",
"284 730 LINE"
);
},
{
closed = 1;
nodes = (
"595 732 LINE",
"11 -31 LINE",
"38 -31 LINE",
"622 732 LINE"
);
},
{
closed = 1;
nodes = (
"607 315 OFFCURVE",
"564 331 OFFCURVE",
"519 334 CURVE SMOOTH",
"496 336 OFFCURVE",
"467 332 OFFCURVE",
"444 322 CURVE SMOOTH",
"413 309 OFFCURVE",
"386 286 OFFCURVE",
"382 252 CURVE SMOOTH",
"381 239 OFFCURVE",
"390 218 OFFCURVE",
"403 214 CURVE SMOOTH",
"407 213 OFFCURVE",
"416 212 OFFCURVE",
"413 214 CURVE",
"406 223 OFFCURVE",
"404 240 OFFCURVE",
"406 251 CURVE SMOOTH",
"411 276 OFFCURVE",
"426 298 OFFCURVE",
"450 312 CURVE SMOOTH",
"467 320 OFFCURVE",
"486 325 OFFCURVE",
"503 324 CURVE SMOOTH",
"535 322 OFFCURVE",
"567 305 OFFCURVE",
"564 264 CURVE SMOOTH",
"562 237 OFFCURVE",
"552 216 OFFCURVE",
"538 198 CURVE SMOOTH",
"501 152 OFFCURVE",
"428 127 OFFCURVE",
"379 98 CURVE SMOOTH",
"357 85 OFFCURVE",
"333 67 OFFCURVE",
"321 51 CURVE SMOOTH",
"314 43 OFFCURVE",
"297 14 OFFCURVE",
"313 6 CURVE",
"314 10 OFFCURVE",
"321 14 OFFCURVE",
"326 16 CURVE SMOOTH",
"350 25 OFFCURVE",
"384 15 OFFCURVE",
"409 9 CURVE SMOOTH",
"458 -2 OFFCURVE",
"559 -14 OFFCURVE",
"569 60 CURVE SMOOTH",
"571 78 OFFCURVE",
"566 92 OFFCURVE",
"552 102 CURVE",
"550 105 OFFCURVE",
"547 106 OFFCURVE",
"545 106 CURVE SMOOTH",
"540 107 OFFCURVE",
"539 104 OFFCURVE",
"541 101 CURVE",
"552 93 OFFCURVE",
"552 81 OFFCURVE",
"549 71 CURVE SMOOTH",
"536 33 OFFCURVE",
"477 22 OFFCURVE",
"450 23 CURVE SMOOTH",
"415 24 OFFCURVE",
"396 29 OFFCURVE",
"365 37 CURVE SMOOTH",
"326 47 OFFCURVE",
"372 77 OFFCURVE",
"384 84 CURVE SMOOTH",
"438 117 OFFCURVE",
"518 142 OFFCURVE",
"565 182 CURVE SMOOTH",
"592 205 OFFCURVE",
"610 235 OFFCURVE",
"609 272 CURVE SMOOTH"
);
}
);
width = 643;
}
);
note = onehalf;
unicode = 00BD;
},
{
glyphname = onequarter;
layers = (
{
hints = (
{
horizontal = 1;
place = "{-3, 14}";
type = Stem;
},
{
horizontal = 1;
place = "{114, 26}";
type = Stem;
},
{
horizontal = 1;
place = "{344, 10}";
type = Stem;
},
{
horizontal = 1;
place = "{403, 13}";
type = Stem;
},
{
horizontal = 1;
place = "{726, 10}";
type = Stem;
}
);
layerId = "23C1765D-E8A9-427D-A2B9-D2B95394C525";
paths = (
{
closed = 1;
nodes = (
"254 730 LINE",
"126 624 LINE",
"143 624 OFFCURVE",
"156 632 OFFCURVE",
"163 637 CURVE SMOOTH",
"249 703 LINE",
"136 452 LINE SMOOTH",
"125 428 OFFCURVE",
"112 416 OFFCURVE",
"91 416 CURVE SMOOTH",
"59 416 LINE SMOOTH",
"52 416 OFFCURVE",
"50 403 OFFCURVE",
"55 403 CURVE SMOOTH",
"212 403 LINE SMOOTH",
"217 403 OFFCURVE",
"221 416 OFFCURVE",
"215 416 CURVE SMOOTH",
"180 416 LINE SMOOTH",
"158 416 OFFCURVE",
"158 424 OFFCURVE",
"170 450 CURVE SMOOTH",
"294 730 LINE"
);
},
{
closed = 1;
nodes = (
"595 732 LINE",
"11 -31 LINE",
"38 -31 LINE",
"622 732 LINE"
);
},
{
closed = 1;
nodes = (
"621 348 LINE",
"571 348 OFFCURVE",
"569 339 OFFCURVE",
"561 332 CURVE SMOOTH",
"348 150 LINE SMOOTH",
"298 108 OFFCURVE",
"314 114 OFFCURVE",
"349 114 CURVE SMOOTH",
"480 114 LINE",
"451 50 LINE SMOOTH",
"440 25 OFFCURVE",
"427 11 OFFCURVE",
"404 11 CURVE SMOOTH",
"368 11 LINE SMOOTH",
"362 11 OFFCURVE",
"360 -3 OFFCURVE",
"365 -3 CURVE SMOOTH",
"534 -3 LINE SMOOTH",
"538 -3 OFFCURVE",
"543 11 OFFCURVE",
"536 11 CURVE SMOOTH",
"499 11 LINE SMOOTH",
"476 11 OFFCURVE",
"477 20 OFFCURVE",
"489 48 CURVE SMOOTH",
"518 114 LINE",
"543 114 LINE SMOOTH",
"554 114 OFFCURVE",
"572 122 OFFCURVE",
"580 136 CURVE",
"526 136 LINE"
);
},
{
closed = 1;
nodes = (
"490 136 LINE",
"358 136 LINE",
"573 319 LINE"
);
}
);
width = 653;
}
);
note = onequarter;
unicode = 00BC;
},
{
glyphname = onesuperior;
layers = (
{
hints = (
{
horizontal = 1;
place = "{403, 13}";
type = Stem;
},
{
horizontal = 1;
place = "{726, 10}";
type = Stem;
}
);
layerId = "23C1765D-E8A9-427D-A2B9-D2B95394C525";
paths = (
{
closed = 1;
nodes = (
"244 662 LINE",
"116 556 LINE",
"133 556 OFFCURVE",
"146 564 OFFCURVE",
"153 569 CURVE SMOOTH",
"239 635 LINE",
"126 384 LINE SMOOTH",
"115 360 OFFCURVE",
"102 348 OFFCURVE",
"81 348 CURVE SMOOTH",
"48 348 LINE SMOOTH",
"42 348 OFFCURVE",
"40 335 OFFCURVE",
"45 335 CURVE SMOOTH",
"201 335 LINE SMOOTH",
"207 335 OFFCURVE",
"211 348 OFFCURVE",
"205 348 CURVE SMOOTH",
"170 348 LINE SMOOTH",
"148 348 OFFCURVE",
"148 356 OFFCURVE",
"160 382 CURVE SMOOTH",
"284 662 LINE"
);
}
);
width = 311;
}
);
note = onesuperior;
unicode = 00B9;
},
{
glyphname = threequarters;
layers = (
{
hints = (
{
horizontal = 1;
place = "{-3, 14}";
type = Stem;
},
{
horizontal = 1;
place = "{114, 26}";
type = Stem;
},
{
horizontal = 1;
place = "{344, 10}";
type = Stem;
},
{
horizontal = 1;
place = "{394, 12}";
type = Stem;
},
{
horizontal = 1;
place = "{571, 15}";
type = Stem;
},
{
horizontal = 1;
place = "{725, 13}";
type = Stem;
},
{
place = "{33, 28}";
type = Stem;
},
{
place = "{270, 43}";
type = Stem;
},
{
place = "{291, 39}";
type = Stem;
}
);
layerId = "23C1765D-E8A9-427D-A2B9-D2B95394C525";
paths = (
{
closed = 1;
nodes = (
"311 669 OFFCURVE",
"311 680 OFFCURVE",
"308 690 CURVE SMOOTH",
"297 721 OFFCURVE",
"259 730 OFFCURVE",
"224 730 CURVE SMOOTH",
"186 729 OFFCURVE",
"130 717 OFFCURVE",
"110 682 CURVE SMOOTH",
"99 662 OFFCURVE",
"105 640 OFFCURVE",
"130 642 CURVE",
"124 656 OFFCURVE",
"131 677 OFFCURVE",
"146 691 CURVE SMOOTH",
"166 710 OFFCURVE",
"191 719 OFFCURVE",
"218 719 CURVE SMOOTH",
"249 719 OFFCURVE",
"269 705 OFFCURVE",
"272 683 CURVE SMOOTH",
"276 645 OFFCURVE",
"241 610 OFFCURVE",
"208 599 CURVE SMOOTH",
"185 591 OFFCURVE",
"157 591 OFFCURVE",
"138 591 CURVE SMOOTH",
"119 591 OFFCURVE",
"115 576 OFFCURVE",
"128 576 CURVE SMOOTH",
"139 576 OFFCURVE",
"161 577 OFFCURVE",
"173 577 CURVE SMOOTH",
"212 577 OFFCURVE",
"252 564 OFFCURVE",
"252 517 CURVE SMOOTH",
"252 450 OFFCURVE",
"192 405 OFFCURVE",
"133 399 CURVE SMOOTH",
"93 395 OFFCURVE",
"41 411 OFFCURVE",
"48 451 CURVE",
"48 457 OFFCURVE",
"50 465 OFFCURVE",
"52 471 CURVE",
"35 472 OFFCURVE",
"26 457 OFFCURVE",
"24 449 CURVE SMOOTH",
"16 420 OFFCURVE",
"35 402 OFFCURVE",
"69 394 CURVE SMOOTH",
"149 376 OFFCURVE",
"246 402 OFFCURVE",
"284 475 CURVE SMOOTH",
"304 514 OFFCURVE",
"303 579 OFFCURVE",
"221 587 CURVE",
"251 595 OFFCURVE",
"299 620 OFFCURVE",
"308 656 CURVE SMOOTH"
);
},
{
closed = 1;
nodes = (
"595 732 LINE",
"11 -31 LINE",
"38 -31 LINE",
"622 732 LINE"
);
},
{
closed = 1;
nodes = (
"621 348 LINE",
"571 348 OFFCURVE",
"569 339 OFFCURVE",
"561 332 CURVE SMOOTH",
"348 150 LINE SMOOTH",
"298 108 OFFCURVE",
"314 114 OFFCURVE",
"349 114 CURVE SMOOTH",
"480 114 LINE",
"451 50 LINE SMOOTH",
"440 25 OFFCURVE",
"427 11 OFFCURVE",
"404 11 CURVE SMOOTH",
"368 11 LINE SMOOTH",
"362 11 OFFCURVE",
"360 -3 OFFCURVE",
"365 -3 CURVE SMOOTH",
"534 -3 LINE SMOOTH",
"538 -3 OFFCURVE",
"543 11 OFFCURVE",
"536 11 CURVE SMOOTH",
"499 11 LINE SMOOTH",
"476 11 OFFCURVE",
"477 20 OFFCURVE",
"489 48 CURVE SMOOTH",
"518 114 LINE",
"543 114 LINE SMOOTH",
"554 114 OFFCURVE",
"572 122 OFFCURVE",
"580 136 CURVE",
"526 136 LINE"
);
},
{
closed = 1;
nodes = (
"490 136 LINE",
"358 136 LINE",
"573 319 LINE"
);
}
);
width = 643;
}
);
note = threequarters;
unicode = 00BE;
},
{
glyphname = threesuperior;
layers = (
{
hints = (
{
horizontal = 1;
place = "{394, 12}";
type = Stem;
},
{
horizontal = 1;
place = "{571, 15}";
type = Stem;
},
{
horizontal = 1;
place = "{725, 13}";
type = Stem;
},
{
place = "{33, 28}";
type = Stem;
},
{
place = "{270, 43}";
type = Stem;
},
{
place = "{291, 39}";
type = Stem;
}
);
layerId = "23C1765D-E8A9-427D-A2B9-D2B95394C525";
paths = (
{
closed = 1;
nodes = (
"311 601 OFFCURVE",
"311 612 OFFCURVE",
"308 622 CURVE SMOOTH",
"297 653 OFFCURVE",
"259 662 OFFCURVE",
"224 662 CURVE SMOOTH",
"186 661 OFFCURVE",
"130 649 OFFCURVE",
"110 614 CURVE SMOOTH",
"99 594 OFFCURVE",
"105 572 OFFCURVE",
"130 574 CURVE",
"124 588 OFFCURVE",
"131 609 OFFCURVE",
"146 623 CURVE SMOOTH",
"166 642 OFFCURVE",
"191 651 OFFCURVE",
"218 651 CURVE SMOOTH",
"249 651 OFFCURVE",
"269 637 OFFCURVE",
"272 615 CURVE SMOOTH",
"276 577 OFFCURVE",
"241 542 OFFCURVE",
"208 531 CURVE SMOOTH",
"185 523 OFFCURVE",
"157 523 OFFCURVE",
"138 523 CURVE SMOOTH",
"119 523 OFFCURVE",
"115 508 OFFCURVE",
"128 508 CURVE SMOOTH",
"139 508 OFFCURVE",
"161 509 OFFCURVE",
"173 509 CURVE SMOOTH",
"212 509 OFFCURVE",
"252 496 OFFCURVE",
"252 449 CURVE SMOOTH",
"252 382 OFFCURVE",
"192 337 OFFCURVE",
"133 331 CURVE SMOOTH",
"93 327 OFFCURVE",
"41 343 OFFCURVE",
"48 383 CURVE",
"48 389 OFFCURVE",
"50 397 OFFCURVE",
"52 403 CURVE",
"35 404 OFFCURVE",
"26 389 OFFCURVE",
"24 381 CURVE SMOOTH",
"16 352 OFFCURVE",
"35 334 OFFCURVE",
"69 326 CURVE SMOOTH",
"149 308 OFFCURVE",
"246 334 OFFCURVE",
"284 407 CURVE SMOOTH",
"304 446 OFFCURVE",
"303 511 OFFCURVE",
"221 519 CURVE",
"251 527 OFFCURVE",
"299 552 OFFCURVE",
"308 588 CURVE SMOOTH"
);
}
);
width = 354;
}
);
note = threesuperior;
unicode = 00B3;
},
{
glyphname = twosuperior;
layers = (
{
hints = (
{
horizontal = 1;
place = "{408, 29}";
type = Stem;
},
{
horizontal = 1;
place = "{721, 14}";
type = Stem;
},
{
place = "{36, 35}";
type = Stem;
},
{
place = "{283, 35}";
type = Stem;
}
);
layerId = "23C1765D-E8A9-427D-A2B9-D2B95394C525";
paths = (
{
closed = 1;
nodes = (
"327 643 OFFCURVE",
"285 659 OFFCURVE",
"240 662 CURVE SMOOTH",
"217 664 OFFCURVE",
"188 660 OFFCURVE",
"164 650 CURVE SMOOTH",
"133 637 OFFCURVE",
"107 615 OFFCURVE",
"103 581 CURVE SMOOTH",
"102 567 OFFCURVE",
"110 547 OFFCURVE",
"123 542 CURVE SMOOTH",
"127 541 OFFCURVE",
"136 541 OFFCURVE",
"133 542 CURVE",
"127 551 OFFCURVE",
"124 568 OFFCURVE",
"127 579 CURVE",
"131 604 OFFCURVE",
"146 626 OFFCURVE",
"171 640 CURVE SMOOTH",
"188 649 OFFCURVE",
"207 653 OFFCURVE",
"224 652 CURVE SMOOTH",
"256 650 OFFCURVE",
"287 633 OFFCURVE",
"284 592 CURVE SMOOTH",
"282 565 OFFCURVE",
"273 544 OFFCURVE",
"258 526 CURVE SMOOTH",
"221 480 OFFCURVE",
"148 455 OFFCURVE",
"99 426 CURVE SMOOTH",
"77 413 OFFCURVE",
"54 395 OFFCURVE",
"42 379 CURVE SMOOTH",
"35 371 OFFCURVE",
"18 342 OFFCURVE",
"33 334 CURVE",
"35 338 OFFCURVE",
"42 343 OFFCURVE",
"47 344 CURVE",
"71 354 OFFCURVE",
"105 343 OFFCURVE",
"129 337 CURVE SMOOTH",
"178 326 OFFCURVE",
"279 314 OFFCURVE",
"289 388 CURVE SMOOTH",
"291 406 OFFCURVE",
"286 420 OFFCURVE",
"273 430 CURVE SMOOTH",
"270 433 OFFCURVE",
"267 434 OFFCURVE",
"265 434 CURVE SMOOTH",
"260 435 OFFCURVE",
"259 432 OFFCURVE",
"262 429 CURVE SMOOTH",
"273 421 OFFCURVE",
"272 409 OFFCURVE",
"269 399 CURVE SMOOTH",
"257 361 OFFCURVE",
"197 350 OFFCURVE",
"171 351 CURVE SMOOTH",
"135 352 OFFCURVE",
"116 357 OFFCURVE",
"85 365 CURVE SMOOTH",
"46 375 OFFCURVE",
"93 405 OFFCURVE",
"105 412 CURVE SMOOTH",
"158 444 OFFCURVE",
"238 469 OFFCURVE",
"286 510 CURVE SMOOTH",
"312 533 OFFCURVE",
"331 564 OFFCURVE",
"329 600 CURVE SMOOTH"
);
}
);
width = 366;
}
);
note = twosuperior;
unicode = 00B2;
},
{
glyphname = brokenbar;
layers = (
{
hints = (
{
horizontal = 1;
place = "{-200, 21}";
target = up;
type = BottomGhost;
},
{
horizontal = 1;
place = "{637, -20}";
target = down;
type = TopGhost;
}
);
layerId = "23C1765D-E8A9-427D-A2B9-D2B95394C525";
paths = (
{
closed = 1;
nodes = (
"320 637 LINE",
"243 278 LINE",
"284 274 LINE",
"364 637 LINE"
);
},
{
closed = 1;
nodes = (
"224 187 LINE",
"143 -196 LINE",
"187 -196 LINE",
"264 184 LINE"
);
}
);
width = 412;
}
);
note = brokenbar;
unicode = 00A6;
},
{
glyphname = minus;
layers = (
{
hints = (
{
horizontal = 1;
place = "{176, 20}";
type = Stem;
},
{
place = "{91, 217}";
type = Stem;
}
);
layerId = "23C1765D-E8A9-427D-A2B9-D2B95394C525";
paths = (
{
closed = 1;
nodes = (
"309 195 LINE",
"91 195 LINE",
"91 176 LINE",
"309 176 LINE"
);
}
);
width = 317;
}
);
note = minus;
unicode = 2212;
},
{
glyphname = multiply;
layers = (
{
hints = (
{
horizontal = 1;
place = "{83, 21}";
target = up;
type = BottomGhost;
},
{
horizontal = 1;
place = "{392, -20}";
target = down;
type = TopGhost;
}
);
layerId = "23C1765D-E8A9-427D-A2B9-D2B95394C525";
paths = (
{
closed = 1;
nodes = (
"352 392 LINE",
"255 264 LINE",
"190 392 LINE",
"156 392 LINE",
"235 238 LINE",
"119 86 LINE",
"154 86 LINE",
"248 211 LINE",
"313 86 LINE",
"347 86 LINE",
"269 238 LINE",
"386 392 LINE"
);
}
);
width = 391;
}
);
note = multiply;
unicode = 00D7;
},
{
glyphname = Lslash;
layers = (
{
hints = (
{
horizontal = 1;
place = "{-14, 20}";
type = Stem;
},
{
horizontal = 1;
place = "{72, 13}";
type = Stem;
},
{
horizontal = 1;
place = "{671, 22}";
type = Stem;
},
{
place = "{18, 16}";
type = Stem;
},
{
place = "{830, 29}";
type = Stem;
},
{
horizontal = 1;
place = "{-94, 52}";
type = Stem;
}
);
layerId = "23C1765D-E8A9-427D-A2B9-D2B95394C525";
paths = (
{
closed = 1;
nodes = (
"837 161 OFFCURVE",
"814 190 OFFCURVE",
"779 215 CURVE SMOOTH",
"757 230 OFFCURVE",
"733 241 OFFCURVE",
"711 246 CURVE SMOOTH",
"710 246 OFFCURVE",
"694 243 OFFCURVE",
"710 236 CURVE SMOOTH",
"728 229 OFFCURVE",
"752 216 OFFCURVE",
"774 200 CURVE SMOOTH",
"870 129 OFFCURVE",
"832 22 OFFCURVE",
"739 -20 CURVE SMOOTH",
"629 -70 OFFCURVE",
"444 -25 OFFCURVE",
"310 15 CURVE SMOOTH",
"247 34 LINE",
"288 62 OFFCURVE",
"324 100 OFFCURVE",
"354 143 CURVE SMOOTH",
"373 171 OFFCURVE",
"394 208 OFFCURVE",
"415 252 CURVE",
"524 275 LINE",
"518 298 LINE",
"428 279 LINE",
"497 422 OFFCURVE",
"575 605 OFFCURVE",
"659 653 CURVE SMOOTH",
"728 693 OFFCURVE",
"840 669 OFFCURVE",
"821 570 CURVE SMOOTH",
"809 505 OFFCURVE",
"754 454 OFFCURVE",
"694 432 CURVE SMOOTH",
"682 428 OFFCURVE",
"683 415 OFFCURVE",
"698 421 CURVE SMOOTH",
"762 444 OFFCURVE",
"821 490 OFFCURVE",
"841 556 CURVE SMOOTH",
"863 626 OFFCURVE",
"833 685 OFFCURVE",
"759 693 CURVE SMOOTH",
"720 697 OFFCURVE",
"683 687 OFFCURVE",
"649 669 CURVE SMOOTH",
"600 643 OFFCURVE",
"558 598 OFFCURVE",
"527 556 CURVE SMOOTH",
"465 471 OFFCURVE",
"416 361 OFFCURVE",
"367 265 CURVE",
"252 240 LINE",
"257 216 LINE",
"353 238 LINE",
"336 205 OFFCURVE",
"319 174 OFFCURVE",
"302 148 CURVE SMOOTH",
"275 106 OFFCURVE",
"244 69 OFFCURVE",
"212 43 CURVE",
"100 74 LINE SMOOTH",
"83 79 OFFCURVE",
"33 91 OFFCURVE",
"17 81 CURVE SMOOTH",
"11 77 OFFCURVE",
"14 71 OFFCURVE",
"19 72 CURVE SMOOTH",
"38 76 OFFCURVE",
"75 65 OFFCURVE",
"95 59 CURVE SMOOTH",
"122 50 OFFCURVE",
"155 38 OFFCURVE",
"187 25 CURVE",
"179 21 OFFCURVE",
"172 18 OFFCURVE",
"163 15 CURVE SMOOTH",
"139 6 OFFCURVE",
"105 2 OFFCURVE",
"78 9 CURVE SMOOTH",
"59 14 OFFCURVE",
"30 33 OFFCURVE",
"34 54 CURVE SMOOTH",
"36 61 OFFCURVE",
"29 59 OFFCURVE",
"24 54 CURVE SMOOTH",
"11 38 OFFCURVE",
"20 8 OFFCURVE",
"42 -4 CURVE SMOOTH",
"72 -20 OFFCURVE",
"137 -16 OFFCURVE",
"175 -3 CURVE SMOOTH",
"189 2 OFFCURVE",
"202 8 OFFCURVE",
"215 14 CURVE",
"299 -20 LINE SMOOTH",
"408 -64 OFFCURVE",
"553 -103 OFFCURVE",
"669 -94 CURVE SMOOTH",
"711 -91 OFFCURVE",
"751 -79 OFFCURVE",
"784 -59 CURVE SMOOTH",
"847 -20 OFFCURVE",
"875 59 OFFCURVE",
"849 129 CURVE SMOOTH"
);
}
);
width = 868;
}
);
note = Lslash;
unicode = 0141;
},
{
glyphname = exclam;
layers = (
{
hints = (
{
horizontal = 1;
place = "{-12, 62}";
type = Stem;
}
);
layerId = "23C1765D-E8A9-427D-A2B9-D2B95394C525";
paths = (
{
closed = 1;
nodes = (
"474 580 OFFCURVE",
"417 569 OFFCURVE",
"412 560 CURVE SMOOTH",
"188 133 LINE",
"205 134 LINE",
"205 134 OFFCURVE",
"493 569 OFFCURVE",
"501 581 CURVE"
);
},
{
closed = 1;
nodes = (
"180 42 OFFCURVE",
"169 56 OFFCURVE",
"153 55 CURVE SMOOTH",
"136 54 OFFCURVE",
"121 41 OFFCURVE",
"118 24 CURVE SMOOTH",
"116 8 OFFCURVE",
"127 -6 OFFCURVE",
"144 -5 CURVE SMOOTH",
"161 -4 OFFCURVE",
"175 9 OFFCURVE",
"178 26 CURVE SMOOTH"
);
}
);
width = 371;
}
);
note = exclam;
unicode = 0021;
},
{
glyphname = quotedbl;
layers = (
{
hints = (
{
horizontal = 1;
place = "{313, 11}";
type = Stem;
},
{
horizontal = 1;
place = "{405, 66}";
type = Stem;
},
{
place = "{112, 70}";
type = Stem;
},
{
place = "{219, 70}";
type = Stem;
}
);
layerId = "23C1765D-E8A9-427D-A2B9-D2B95394C525";
paths = (
{
closed = 1;
nodes = (
"332 519 OFFCURVE",
"287 529 OFFCURVE",
"283 505 CURVE SMOOTH",
"276 459 OFFCURVE",
"267 394 OFFCURVE",
"257 354 CURVE SMOOTH",
"254 341 OFFCURVE",
"272 339 OFFCURVE",
"274 346 CURVE SMOOTH",
"289 387 OFFCURVE",
"315 468 OFFCURVE",
"325 498 CURVE SMOOTH"
);
},
{
closed = 1;
nodes = (
"229 519 OFFCURVE",
"184 529 OFFCURVE",
"180 505 CURVE SMOOTH",
"173 459 OFFCURVE",
"164 394 OFFCURVE",
"154 354 CURVE SMOOTH",
"151 341 OFFCURVE",
"169 339 OFFCURVE",
"171 346 CURVE SMOOTH",
"186 387 OFFCURVE",
"212 468 OFFCURVE",
"222 498 CURVE SMOOTH"
);
}
);
width = 305;
}
);
note = quotedbl;
unicode = 0022;
},
{
glyphname = numbersign;
layers = (
{
hints = (
{
horizontal = 1;
place = "{86, 206}";
type = Stem;
},
{
horizontal = 1;
place = "{399, 23}";
type = Stem;
},
{
horizontal = 1;
place = "{269, 23}";
type = Stem;
},
{
horizontal = 1;
place = "{399, 187}";
type = Stem;
}
);
layerId = "23C1765D-E8A9-427D-A2B9-D2B95394C525";
paths = (
{
closed = 1;
nodes = (
"419 422 LINE",
"484 586 LINE",
"462 586 LINE",
"396 422 LINE",
"281 422 LINE",
"347 586 LINE",
"323 586 LINE",
"258 422 LINE",
"71 422 LINE",
"62 400 LINE",
"249 400 LINE",
"206 292 LINE",
"15 292 LINE",
"7 269 LINE",
"197 269 LINE",
"123 86 LINE",
"147 86 LINE",
"220 269 LINE",
"335 269 LINE",
"262 86 LINE",
"286 86 LINE",
"359 269 LINE",
"541 269 LINE",
"551 292 LINE",
"367 292 LINE",
"411 400 LINE",
"598 400 LINE",
"606 422 LINE"
);
},
{
closed = 1;
nodes = (
"344 292 LINE",
"229 292 LINE",
"272 400 LINE",
"387 400 LINE"
);
}
);
width = 606;
}
);
note = numbersign;
unicode = 0023;
},
{
glyphname = dollar;
layers = (
{
hints = (
{
horizontal = 1;
place = "{-3, 21}";
target = up;
type = BottomGhost;
},
{
horizontal = 1;
place = "{674, -20}";
target = down;
type = TopGhost;
}
);
layerId = "23C1765D-E8A9-427D-A2B9-D2B95394C525";
paths = (
{
closed = 1;
nodes = (
"504 596 OFFCURVE",
"467 613 OFFCURVE",
"421 615 CURVE",
"445 674 LINE",
"416 674 LINE",
"391 613 LINE",
"348 609 OFFCURVE",
"300 592 OFFCURVE",
"269 565 CURVE SMOOTH",
"240 541 OFFCURVE",
"222 507 OFFCURVE",
"220 473 CURVE SMOOTH",
"217 433 OFFCURVE",
"233 405 OFFCURVE",
"259 378 CURVE SMOOTH",
"284 352 LINE",
"182 107 LINE",
"140 120 OFFCURVE",
"117 158 OFFCURVE",
"145 199 CURVE",
"148 201 OFFCURVE",
"151 206 OFFCURVE",
"156 209 CURVE",
"150 216 OFFCURVE",
"136 223 OFFCURVE",
"122 218 CURVE",
"97 212 OFFCURVE",
"83 194 OFFCURVE",
"82 173 CURVE SMOOTH",
"78 122 OFFCURVE",
"128 98 OFFCURVE",
"176 91 CURVE",
"139 0 LINE",
"167 0 LINE",
"204 89 LINE",
"212 89 LINE SMOOTH",
"371 89 OFFCURVE",
"479 252 OFFCURVE",
"370 363 CURVE SMOOTH",
"360 373 OFFCURVE",
"346 385 OFFCURVE",
"331 399 CURVE",
"414 597 LINE",
"441 588 OFFCURVE",
"464 565 OFFCURVE",
"450 520 CURVE",
"458 503 OFFCURVE",
"498 518 OFFCURVE",
"501 558 CURVE SMOOTH"
);
},
{
closed = 1;
nodes = (
"311 419 LINE",
"299 431 OFFCURVE",
"288 444 OFFCURVE",
"280 456 CURVE SMOOTH",
"241 519 OFFCURVE",
"314 594 OFFCURVE",
"385 599 CURVE"
);
},
{
closed = 1;
nodes = (
"375 186 OFFCURVE",
"292 103 OFFCURVE",
"213 103 CURVE SMOOTH",
"210 103 LINE",
"304 331 LINE",
"319 314 OFFCURVE",
"331 297 OFFCURVE",
"339 278 CURVE SMOOTH"
);
}
);
width = 423;
}
);
note = dollar;
unicode = 0024;
},
{
glyphname = percent;
layers = (
{
hints = (
{
horizontal = 1;
place = "{-34, 21}";
target = up;
type = BottomGhost;
},
{
horizontal = 1;
place = "{-9, 18}";
type = Stem;
},
{
horizontal = 1;
place = "{318, 19}";
type = Stem;
}
);
layerId = "23C1765D-E8A9-427D-A2B9-D2B95394C525";
paths = (
{
closed = 1;
nodes = (
"476 573 LINE",
"462 573 OFFCURVE",
"419 578 OFFCURVE",
"400 555 CURVE SMOOTH",
"381 534 OFFCURVE",
"357 516 OFFCURVE",
"325 509 CURVE SMOOTH",
"295 502 OFFCURVE",
"280 506 OFFCURVE",
"248 520 CURVE",
"244 521 OFFCURVE",
"238 525 OFFCURVE",
"234 529 CURVE",
"225 543 OFFCURVE",
"210 552 OFFCURVE",
"185 552 CURVE SMOOTH",
"138 552 OFFCURVE",
"97 516 OFFCURVE",
"84 453 CURVE SMOOTH",
"75 415 OFFCURVE",
"84 367 OFFCURVE",
"135 367 CURVE SMOOTH",
"187 367 OFFCURVE",
"216 403 OFFCURVE",
"234 444 CURVE SMOOTH",
"241 462 OFFCURVE",
"245 484 OFFCURVE",
"243 504 CURVE",
"270 488 OFFCURVE",
"301 483 OFFCURVE",
"333 493 CURVE SMOOTH",
"349 499 OFFCURVE",
"364 506 OFFCURVE",
"375 513 CURVE",
"4 69 LINE",
"37 69 LINE"
);
},
{
closed = 1;
nodes = (
"409 228 OFFCURVE",
"411 296 OFFCURVE",
"343 296 CURVE SMOOTH",
"296 296 OFFCURVE",
"256 260 OFFCURVE",
"243 197 CURVE SMOOTH",
"234 158 OFFCURVE",
"243 111 OFFCURVE",
"293 111 CURVE SMOOTH",
"345 111 OFFCURVE",
"373 147 OFFCURVE",
"391 188 CURVE SMOOTH"
);
},
{
closed = 1;
nodes = (
"191 427 OFFCURVE",
"172 390 OFFCURVE",
"139 390 CURVE SMOOTH",
"119 390 OFFCURVE",
"109 414 OFFCURVE",
"121 456 CURVE SMOOTH",
"133 500 OFFCURVE",
"163 532 OFFCURVE",
"188 532 CURVE SMOOTH",
"226 532 OFFCURVE",
"208 473 OFFCURVE",
"201 453 CURVE SMOOTH"
);
},
{
closed = 1;
nodes = (
"348 170 OFFCURVE",
"331 133 OFFCURVE",
"298 133 CURVE SMOOTH",
"279 133 OFFCURVE",
"267 156 OFFCURVE",
"279 200 CURVE SMOOTH",
"292 245 OFFCURVE",
"321 276 OFFCURVE",
"346 276 CURVE SMOOTH",
"384 276 OFFCURVE",
"367 217 OFFCURVE",
"359 197 CURVE SMOOTH"
);
}
);
width = 478;
}
);
note = percent;
unicode = 0025;
},
{
glyphname = ampersand;
layers = (
{
hints = (
{
horizontal = 1;
place = "{-45, 16}";
type = Stem;
},
{
horizontal = 1;
place = "{222, 19}";
type = Stem;
},
{
horizontal = 1;
place = "{299, 14}";
type = Stem;
},
{
horizontal = 1;
place = "{328, 19}";
type = Stem;
},
{
horizontal = 1;
place = "{362, 19}";
type = Stem;
},
{
place = "{8, 55}";
type = Stem;
},
{
place = "{131, 34}";
type = Stem;
},
{
place = "{201, 29}";
type = Stem;
},
{
place = "{303, 17}";
type = Stem;
},
{
place = "{413, 15}";
type = Stem;
},
{
place = "{461, 28}";
type = Stem;
}
);
layerId = "23C1765D-E8A9-427D-A2B9-D2B95394C525";
paths = (
{
closed = 1;
nodes = (
"1016 118 OFFCURVE",
"1082 700 OFFCURVE",
"637 700 CURVE SMOOTH",
"68 700 OFFCURVE",
"-40 -52 OFFCURVE",
"506 -52 CURVE SMOOTH",
"705 -52 OFFCURVE",
"817 44 OFFCURVE",
"859 128 CURVE SMOOTH",
"863 136 OFFCURVE",
"854 140 OFFCURVE",
"850 133 CURVE SMOOTH",
"801 48 OFFCURVE",
"668 -27 OFFCURVE",
"509 -27 CURVE SMOOTH",
"22 -27 OFFCURVE",
"154 682 OFFCURVE",
"631 682 CURVE SMOOTH",
"997 682 OFFCURVE",
"1006 143 OFFCURVE",
"704 143 CURVE SMOOTH",
"680 143 OFFCURVE",
"656 148 OFFCURVE",
"634 159 CURVE",
"653 170 OFFCURVE",
"674 186 OFFCURVE",
"694 204 CURVE SMOOTH",
"737 243 OFFCURVE",
"776 298 OFFCURVE",
"776 363 CURVE SMOOTH",
"776 399 OFFCURVE",
"755 438 OFFCURVE",
"714 438 CURVE SMOOTH",
"699 438 OFFCURVE",
"697 429 OFFCURVE",
"711 429 CURVE SMOOTH",
"733 429 OFFCURVE",
"741 394 OFFCURVE",
"741 363 CURVE SMOOTH",
"741 282 OFFCURVE",
"690 211 OFFCURVE",
"616 170 CURVE",
"570 201 OFFCURVE",
"536 259 OFFCURVE",
"528 339 CURVE SMOOTH",
"525 374 OFFCURVE",
"526 411 OFFCURVE",
"532 446 CURVE",
"563 462 OFFCURVE",
"596 476 OFFCURVE",
"627 489 CURVE SMOOTH",
"663 505 OFFCURVE",
"731 530 OFFCURVE",
"731 582 CURVE SMOOTH",
"731 611 OFFCURVE",
"705 622 OFFCURVE",
"675 622 CURVE SMOOTH",
"581 622 OFFCURVE",
"501 532 OFFCURVE",
"476 442 CURVE",
"429 420 OFFCURVE",
"384 392 OFFCURVE",
"354 356 CURVE SMOOTH",
"286 274 OFFCURVE",
"287 129 OFFCURVE",
"425 109 CURVE SMOOTH",
"480 101 OFFCURVE",
"537 111 OFFCURVE",
"590 135 CURVE",
"618 123 OFFCURVE",
"649 118 OFFCURVE",
"680 118 CURVE SMOOTH"
);
},
{
closed = 1;
nodes = (
"694 533 OFFCURVE",
"631 506 OFFCURVE",
"610 496 CURVE SMOOTH",
"589 487 OFFCURVE",
"564 478 OFFCURVE",
"537 468 CURVE",
"551 522 OFFCURVE",
"601 611 OFFCURVE",
"670 611 CURVE SMOOTH",
"695 611 OFFCURVE",
"718 599 OFFCURVE",
"706 566 CURVE SMOOTH"
);
},
{
closed = 1;
nodes = (
"539 129 OFFCURVE",
"491 126 OFFCURVE",
"456 131 CURVE SMOOTH",
"348 148 OFFCURVE",
"348 280 OFFCURVE",
"406 352 CURVE SMOOTH",
"423 374 OFFCURVE",
"446 393 OFFCURVE",
"470 410 CURVE",
"467 387 OFFCURVE",
"466 362 OFFCURVE",
"468 336 CURVE SMOOTH",
"473 244 OFFCURVE",
"526 176 OFFCURVE",
"576 142 CURVE"
);
}
);
width = 985;
}
);
note = ampersand;
unicode = 0026;
},
{
glyphname = quotesingle;
layers = (
{
hints = (
{
horizontal = 1;
place = "{192, 9}";
type = Stem;
},
{
horizontal = 1;
place = "{315, 9}";
type = Stem;
},
{
horizontal = 1;
place = "{389, 53}";
type = Stem;
},
{
place = "{177, 56}";
type = Stem;
}
);
layerId = "23C1765D-E8A9-427D-A2B9-D2B95394C525";
paths = (
{
closed = 1;
nodes = (
"229 519 OFFCURVE",
"184 529 OFFCURVE",
"180 505 CURVE SMOOTH",
"173 459 OFFCURVE",
"164 394 OFFCURVE",
"154 354 CURVE SMOOTH",
"151 341 OFFCURVE",
"169 339 OFFCURVE",
"171 346 CURVE SMOOTH",
"186 387 OFFCURVE",
"212 468 OFFCURVE",
"222 498 CURVE SMOOTH"
);
}
);
width = 162;
}
);
note = quotesingle;
unicode = 0027;
},
{
glyphname = apostrophe;
layers = (
{
hints = (
{
horizontal = 1;
place = "{315, 9}";
type = Stem;
},
{
horizontal = 1;
place = "{389, 53}";
type = Stem;
},
{
place = "{177, 56}";
type = Stem;
}
);
layerId = "23C1765D-E8A9-427D-A2B9-D2B95394C525";
paths = (
{
closed = 1;
nodes = (
"201 501 OFFCURVE",
"185 508 OFFCURVE",
"168 501 CURVE SMOOTH",
"150 494 OFFCURVE",
"141 473 OFFCURVE",
"144 454 CURVE",
"149 436 OFFCURVE",
"166 428 OFFCURVE",
"183 434 CURVE",
"185 436 OFFCURVE",
"187 436 OFFCURVE",
"189 438 CURVE",
"184 410 OFFCURVE",
"172 367 OFFCURVE",
"134 343 CURVE",
"119 337 OFFCURVE",
"128 325 OFFCURVE",
"141 330 CURVE",
"199 365 OFFCURVE",
"218 448 OFFCURVE",
"208 480 CURVE SMOOTH"
);
}
);
width = 162;
}
);
note = apostrophe;
unicode = 02BC;
},
{
glyphname = parenleft;
layers = (
{
hints = (
{
horizontal = 1;
place = "{-149, 17}";
type = Stem;
},
{
place = "{8, 45}";
type = Stem;
}
);
layerId = "23C1765D-E8A9-427D-A2B9-D2B95394C525";
paths = (
{
closed = 1;
nodes = (
"560 726 OFFCURVE",
"551 738 OFFCURVE",
"541 739 CURVE",
"293 739 OFFCURVE",
"75 539 OFFCURVE",
"17 245 CURVE SMOOTH",
"-26 26 OFFCURVE",
"66 -168 OFFCURVE",
"295 -143 CURVE SMOOTH",
"313 -141 OFFCURVE",
"303 -125 OFFCURVE",
"293 -125 CURVE SMOOTH",
"69 -125 OFFCURVE",
"32 61 OFFCURVE",
"81 269 CURVE SMOOTH",
"137 507 OFFCURVE",
"294 725 OFFCURVE",
"549 725 CURVE"
);
}
);
width = 307;
}
);
note = parenleft;
unicode = 0028;
},
{
glyphname = parenright;
layers = (
{
hints = (
{
horizontal = 1;
place = "{589, -20}";
target = down;
type = TopGhost;
},
{
place = "{392, 45}";
type = Stem;
}
);
layerId = "23C1765D-E8A9-427D-A2B9-D2B95394C525";
paths = (
{
closed = 1;
nodes = (
"500 545 OFFCURVE",
"408 739 OFFCURVE",
"179 714 CURVE SMOOTH",
"161 712 OFFCURVE",
"171 696 OFFCURVE",
"181 696 CURVE SMOOTH",
"405 696 OFFCURVE",
"442 510 OFFCURVE",
"393 302 CURVE SMOOTH",
"337 64 OFFCURVE",
"180 -154 OFFCURVE",
"-75 -154 CURVE",
"-86 -155 OFFCURVE",
"-77 -167 OFFCURVE",
"-67 -168 CURVE",
"181 -168 OFFCURVE",
"399 32 OFFCURVE",
"457 326 CURVE SMOOTH"
);
}
);
width = 465;
}
);
note = parenright;
unicode = 0029;
},
{
glyphname = asterisk;
layers = (
{
hints = (
{
horizontal = 1;
place = "{366, 27}";
type = Stem;
}
);
layerId = "23C1765D-E8A9-427D-A2B9-D2B95394C525";
paths = (
{
closed = 1;
nodes = (
"472 382 OFFCURVE",
"469 387 OFFCURVE",
"464 388 CURVE",
"322 399 LINE",
"416 530 LINE SMOOTH",
"422 539 OFFCURVE",
"411 547 OFFCURVE",
"404 539 CURVE SMOOTH",
"292 418 LINE",
"237 538 LINE SMOOTH",
"235 543 OFFCURVE",
"230 543 OFFCURVE",
"227 541 CURVE",
"224 540 OFFCURVE",
"221 536 OFFCURVE",
"223 532 CURVE",
"255 399 LINE",
"105 388 LINE",
"101 387 OFFCURVE",
"98 384 OFFCURVE",
"97 381 CURVE SMOOTH",
"96 377 OFFCURVE",
"99 372 OFFCURVE",
"104 372 CURVE SMOOTH",
"246 360 LINE",
"152 229 LINE SMOOTH",
"146 220 OFFCURVE",
"157 212 OFFCURVE",
"164 220 CURVE SMOOTH",
"275 341 LINE",
"331 222 LINE SMOOTH",
"333 217 OFFCURVE",
"337 217 OFFCURVE",
"341 218 CURVE SMOOTH",
"343 219 OFFCURVE",
"347 224 OFFCURVE",
"345 228 CURVE",
"313 360 LINE",
"462 372 LINE SMOOTH",
"467 372 OFFCURVE",
"470 376 OFFCURVE",
"471 379 CURVE SMOOTH"
);
}
);
width = 523;
}
);
note = asterisk;
unicode = 002A;
},
{
glyphname = plus;
layers = (
{
hints = (
{
horizontal = 1;
place = "{47, 21}";
target = up;
type = BottomGhost;
},
{
horizontal = 1;
place = "{176, 19}";
type = Stem;
},
{
horizontal = 1;
place = "{321, -20}";
target = down;
type = TopGhost;
}
);
layerId = "23C1765D-E8A9-427D-A2B9-D2B95394C525";
paths = (
{
closed = 1;
nodes = (
"383 195 LINE",
"263 195 LINE",
"290 321 LINE",
"267 321 LINE",
"240 195 LINE",
"112 195 LINE",
"112 176 LINE",
"235 176 LINE",
"209 50 LINE",
"232 50 LINE",
"258 176 LINE",
"383 176 LINE"
);
}
);
width = 383;
}
);
note = plus;
unicode = 002B;
},
{
glyphname = comma;
layers = (
{
hints = (
{
horizontal = 1;
place = "{-86, 11}";
type = Stem;
},
{
horizontal = 1;
place = "{-3, 62}";
type = Stem;
}
);
layerId = "23C1765D-E8A9-427D-A2B9-D2B95394C525";
paths = (
{
closed = 1;
nodes = (
"196 54 OFFCURVE",
"185 65 OFFCURVE",
"168 65 CURVE SMOOTH",
"151 65 OFFCURVE",
"135 50 OFFCURVE",
"133 33 CURVE SMOOTH",
"130 16 OFFCURVE",
"142 3 OFFCURVE",
"159 3 CURVE SMOOTH",
"164 3 LINE",
"151 -19 OFFCURVE",
"122 -61 OFFCURVE",
"79 -70 CURVE",
"63 -70 OFFCURVE",
"67 -85 OFFCURVE",
"81 -85 CURVE",
"147 -74 OFFCURVE",
"194 3 OFFCURVE",
"195 34 CURVE SMOOTH"
);
}
);
width = 208;
}
);
note = comma;
unicode = 002C;
},
{
glyphname = hyphen;
layers = (
{
hints = (
{
horizontal = 1;
place = "{176, 19}";
type = Stem;
}
);
layerId = "23C1765D-E8A9-427D-A2B9-D2B95394C525";
paths = (
{
closed = 1;
nodes = (
"309 195 LINE",
"129 195 LINE",
"129 176 LINE",
"309 176 LINE"
);
}
);
width = 317;
}
);
note = hyphen;
unicode = 002D;
},
{
glyphname = period;
layers = (
{
hints = (
{
horizontal = 1;
place = "{-5, 60}";
type = Stem;
},
{
place = "{126, 60}";
type = Stem;
}
);
layerId = "23C1765D-E8A9-427D-A2B9-D2B95394C525";
paths = (
{
closed = 1;
nodes = (
"188 42 OFFCURVE",
"177 56 OFFCURVE",
"161 55 CURVE SMOOTH",
"144 54 OFFCURVE",
"129 41 OFFCURVE",
"126 24 CURVE SMOOTH",
"124 8 OFFCURVE",
"135 -6 OFFCURVE",
"151 -5 CURVE SMOOTH",
"168 -4 OFFCURVE",
"183 9 OFFCURVE",
"186 26 CURVE SMOOTH"
);
}
);
width = 191;
}
);
note = period;
unicode = 002E;
},
{
glyphname = slash;
layers = (
{
hints = (
{
horizontal = 1;
place = "{-84, 21}";
target = up;
type = BottomGhost;
},
{
horizontal = 1;
place = "{566, -20}";
target = down;
type = TopGhost;
}
);
layerId = "23C1765D-E8A9-427D-A2B9-D2B95394C525";
paths = (
{
closed = 1;
nodes = (
"501 566 LINE",
"5 -81 LINE",
"32 -81 LINE",
"529 566 LINE"
);
}
);
width = 529;
}
);
note = slash;
unicode = 002F;
},
{
glyphname = zero;
layers = (
{
hints = (
{
horizontal = 1;
place = "{-5, 18}";
type = Stem;
},
{
horizontal = 1;
place = "{549, 21}";
target = up;
type = BottomGhost;
},
{
place = "{92, 56}";
type = Stem;
},
{
place = "{529, 55}";
type = Stem;
}
);
layerId = "23C1765D-E8A9-427D-A2B9-D2B95394C525";
paths = (
{
closed = 1;
nodes = (
"638 515 OFFCURVE",
"581 580 OFFCURVE",
"461 577 CURVE SMOOTH",
"289 573 OFFCURVE",
"127 408 OFFCURVE",
"82 250 CURVE SMOOTH",
"71 210 OFFCURVE",
"65 167 OFFCURVE",
"71 127 CURVE SMOOTH",
"81 53 OFFCURVE",
"140 -13 OFFCURVE",
"260 -10 CURVE SMOOTH",
"432 -6 OFFCURVE",
"594 160 OFFCURVE",
"639 317 CURVE SMOOTH",
"651 357 OFFCURVE",
"655 400 OFFCURVE",
"649 439 CURVE SMOOTH"
);
},
{
closed = 1;
nodes = (
"593 381 OFFCURVE",
"570 290 OFFCURVE",
"540 230 CURVE SMOOTH",
"488 126 OFFCURVE",
"393 14 OFFCURVE",
"265 12 CURVE SMOOTH",
"187 11 OFFCURVE",
"151 60 OFFCURVE",
"141 116 CURVE SMOOTH",
"128 188 OFFCURVE",
"151 278 OFFCURVE",
"182 337 CURVE SMOOTH",
"237 441 OFFCURVE",
"336 555 OFFCURVE",
"462 556 CURVE SMOOTH",
"541 557 OFFCURVE",
"570 509 OFFCURVE",
"580 453 CURVE SMOOTH"
);
}
);
width = 598;
}
);
note = zero;
unicode = 0030;
},
{
glyphname = one;
layers = (
{
hints = (
{
horizontal = 1;
place = "{0, 21}";
type = Stem;
},
{
horizontal = 1;
place = "{566, -20}";
target = down;
type = TopGhost;
}
);
layerId = "23C1765D-E8A9-427D-A2B9-D2B95394C525";
paths = (
{
closed = 1;
nodes = (
"350 556 LINE",
"131 376 LINE",
"160 376 OFFCURVE",
"184 390 OFFCURVE",
"195 399 CURVE SMOOTH",
"342 510 LINE",
"149 84 LINE SMOOTH",
"130 43 OFFCURVE",
"109 21 OFFCURVE",
"72 21 CURVE SMOOTH",
"17 21 LINE SMOOTH",
"6 21 OFFCURVE",
"3 0 OFFCURVE",
"12 0 CURVE SMOOTH",
"278 0 LINE SMOOTH",
"286 0 OFFCURVE",
"293 21 OFFCURVE",
"283 21 CURVE SMOOTH",
"224 21 LINE SMOOTH",
"186 21 OFFCURVE",
"187 36 OFFCURVE",
"207 81 CURVE SMOOTH",
"417 556 LINE"
);
}
);
width = 327;
}
);
note = one;
unicode = 0031;
},
{
glyphname = two;
layers = (
{
hints = (
{
horizontal = 1;
place = "{0, 50}";
type = Stem;
},
{
horizontal = 1;
place = "{546, 24}";
type = Stem;
},
{
place = "{58, 60}";
type = Stem;
},
{
place = "{489, 61}";
type = Stem;
}
);
layerId = "23C1765D-E8A9-427D-A2B9-D2B95394C525";
paths = (
{
closed = 1;
nodes = (
"565 529 OFFCURVE",
"492 558 OFFCURVE",
"413 563 CURVE SMOOTH",
"373 566 OFFCURVE",
"324 559 OFFCURVE",
"281 541 CURVE SMOOTH",
"229 519 OFFCURVE",
"180 479 OFFCURVE",
"174 420 CURVE SMOOTH",
"171 395 OFFCURVE",
"189 360 OFFCURVE",
"211 354 CURVE",
"218 351 OFFCURVE",
"232 349 OFFCURVE",
"228 354 CURVE SMOOTH",
"217 368 OFFCURVE",
"212 397 OFFCURVE",
"216 416 CURVE SMOOTH",
"224 462 OFFCURVE",
"250 500 OFFCURVE",
"293 523 CURVE SMOOTH",
"323 538 OFFCURVE",
"356 547 OFFCURVE",
"385 545 CURVE SMOOTH",
"442 542 OFFCURVE",
"496 511 OFFCURVE",
"491 440 CURVE SMOOTH",
"488 394 OFFCURVE",
"470 355 OFFCURVE",
"446 325 CURVE SMOOTH",
"381 244 OFFCURVE",
"254 200 OFFCURVE",
"169 150 CURVE SMOOTH",
"131 128 OFFCURVE",
"88 96 OFFCURVE",
"68 69 CURVE SMOOTH",
"57 54 OFFCURVE",
"27 3 OFFCURVE",
"53 -11 CURVE",
"57 -3 OFFCURVE",
"69 4 OFFCURVE",
"77 7 CURVE SMOOTH",
"118 24 OFFCURVE",
"178 5 OFFCURVE",
"221 -5 CURVE SMOOTH",
"307 -25 OFFCURVE",
"484 -44 OFFCURVE",
"500 85 CURVE SMOOTH",
"504 116 OFFCURVE",
"495 139 OFFCURVE",
"472 157 CURVE SMOOTH",
"467 161 OFFCURVE",
"462 164 OFFCURVE",
"458 165 CURVE SMOOTH",
"450 167 OFFCURVE",
"447 161 OFFCURVE",
"452 156 CURVE SMOOTH",
"471 140 OFFCURVE",
"470 120 OFFCURVE",
"465 103 CURVE SMOOTH",
"443 37 OFFCURVE",
"340 18 OFFCURVE",
"293 19 CURVE SMOOTH",
"231 21 OFFCURVE",
"199 28 OFFCURVE",
"144 42 CURVE SMOOTH",
"76 59 OFFCURVE",
"156 114 OFFCURVE",
"178 127 CURVE SMOOTH",
"271 182 OFFCURVE",
"411 227 OFFCURVE",
"493 297 CURVE SMOOTH",
"540 337 OFFCURVE",
"572 389 OFFCURVE",
"569 453 CURVE SMOOTH"
);
}
);
width = 541;
}
);
note = two;
unicode = 0032;
},
{
glyphname = three;
layers = (
{
hints = (
{
horizontal = 1;
place = "{-9, 20}";
type = Stem;
},
{
horizontal = 1;
place = "{288, 26}";
type = Stem;
},
{
horizontal = 1;
place = "{547, 21}";
type = Stem;
},
{
place = "{67, 48}";
type = Stem;
},
{
place = "{466, 71}";
type = Stem;
},
{
place = "{500, 66}";
type = Stem;
}
);
layerId = "23C1765D-E8A9-427D-A2B9-D2B95394C525";
paths = (
{
closed = 1;
nodes = (
"535 452 OFFCURVE",
"535 471 OFFCURVE",
"529 488 CURVE SMOOTH",
"511 540 OFFCURVE",
"447 557 OFFCURVE",
"388 556 CURVE SMOOTH",
"324 555 OFFCURVE",
"230 532 OFFCURVE",
"197 474 CURVE SMOOTH",
"179 442 OFFCURVE",
"187 404 OFFCURVE",
"229 407 CURVE",
"219 431 OFFCURVE",
"231 465 OFFCURVE",
"257 490 CURVE SMOOTH",
"290 521 OFFCURVE",
"332 536 OFFCURVE",
"378 536 CURVE SMOOTH",
"430 535 OFFCURVE",
"464 513 OFFCURVE",
"468 477 CURVE SMOOTH",
"475 413 OFFCURVE",
"416 355 OFFCURVE",
"361 336 CURVE SMOOTH",
"323 322 OFFCURVE",
"275 321 OFFCURVE",
"242 321 CURVE SMOOTH",
"211 321 OFFCURVE",
"205 297 OFFCURVE",
"227 297 CURVE SMOOTH",
"244 297 OFFCURVE",
"281 299 OFFCURVE",
"302 299 CURVE SMOOTH",
"366 298 OFFCURVE",
"434 276 OFFCURVE",
"434 197 CURVE SMOOTH",
"434 86 OFFCURVE",
"334 10 OFFCURVE",
"235 0 CURVE SMOOTH",
"167 -7 OFFCURVE",
"80 19 OFFCURVE",
"91 87 CURVE SMOOTH",
"93 98 OFFCURVE",
"95 110 OFFCURVE",
"99 120 CURVE",
"70 121 OFFCURVE",
"56 98 OFFCURVE",
"52 83 CURVE SMOOTH",
"40 35 OFFCURVE",
"71 3 OFFCURVE",
"127 -10 CURVE SMOOTH",
"261 -42 OFFCURVE",
"424 3 OFFCURVE",
"488 127 CURVE SMOOTH",
"522 193 OFFCURVE",
"522 302 OFFCURVE",
"383 315 CURVE",
"433 330 OFFCURVE",
"513 372 OFFCURVE",
"529 432 CURVE SMOOTH"
);
}
);
width = 541;
}
);
note = three;
unicode = 0033;
},
{
glyphname = four;
layers = (
{
hints = (
{
horizontal = 1;
place = "{0, 21}";
type = Stem;
},
{
horizontal = 1;
place = "{184, 43}";
type = Stem;
},
{
horizontal = 1;
place = "{567, -20}";
target = down;
type = TopGhost;
}
);
layerId = "23C1765D-E8A9-427D-A2B9-D2B95394C525";
paths = (
{
closed = 1;
nodes = (
"522 556 LINE",
"442 556 OFFCURVE",
"439 542 OFFCURVE",
"426 531 CURVE SMOOTH",
"88 241 LINE SMOOTH",
"10 174 OFFCURVE",
"33 185 OFFCURVE",
"91 185 CURVE SMOOTH",
"298 185 LINE",
"252 84 LINE SMOOTH",
"234 44 OFFCURVE",
"212 21 OFFCURVE",
"177 21 CURVE SMOOTH",
"121 21 LINE SMOOTH",
"110 21 OFFCURVE",
"107 0 OFFCURVE",
"116 0 CURVE SMOOTH",
"382 0 LINE SMOOTH",
"390 0 OFFCURVE",
"398 21 OFFCURVE",
"387 21 CURVE SMOOTH",
"328 21 LINE SMOOTH",
"291 21 OFFCURVE",
"291 36 OFFCURVE",
"311 81 CURVE SMOOTH",
"358 185 LINE",
"398 185 LINE SMOOTH",
"416 185 OFFCURVE",
"444 199 OFFCURVE",
"456 220 CURVE",
"371 220 LINE"
);
},
{
closed = 1;
nodes = (
"314 220 LINE",
"104 220 LINE",
"445 510 LINE"
);
}
);
width = 477;
}
);
note = four;
unicode = 0034;
},
{
glyphname = five;
layers = (
{
hints = (
{
horizontal = 1;
place = "{-6, 24}";
type = Stem;
},
{
horizontal = 1;
place = "{347, 21}";
type = Stem;
},
{
horizontal = 1;
place = "{426, 141}";
type = Stem;
},
{
horizontal = 1;
place = "{526, 41}";
type = Stem;
},
{
place = "{57, 47}";
type = Stem;
},
{
place = "{442, 63}";
type = Stem;
}
);
layerId = "23C1765D-E8A9-427D-A2B9-D2B95394C525";
paths = (
{
closed = 1;
nodes = (
"241 556 LINE",
"124 284 LINE",
"163 297 OFFCURVE",
"202 309 OFFCURVE",
"246 307 CURVE SMOOTH",
"267 307 OFFCURVE",
"286 303 OFFCURVE",
"301 297 CURVE SMOOTH",
"435 246 OFFCURVE",
"347 0 OFFCURVE",
"161 -7 CURVE SMOOTH",
"93 -10 OFFCURVE",
"42 37 OFFCURVE",
"68 117 CURVE SMOOTH",
"75 138 OFFCURVE",
"95 170 OFFCURVE",
"116 187 CURVE SMOOTH",
"122 193 OFFCURVE",
"105 189 OFFCURVE",
"98 186 CURVE SMOOTH",
"70 175 OFFCURVE",
"36 143 OFFCURVE",
"26 117 CURVE SMOOTH",
"12 79 OFFCURVE",
"20 48 OFFCURVE",
"38 26 CURVE SMOOTH",
"65 -7 OFFCURVE",
"110 -21 OFFCURVE",
"153 -25 CURVE SMOOTH",
"286 -36 OFFCURVE",
"453 63 OFFCURVE",
"439 224 CURVE SMOOTH",
"430 320 OFFCURVE",
"331 333 OFFCURVE",
"254 331 CURVE SMOOTH",
"231 330 OFFCURVE",
"207 329 OFFCURVE",
"187 326 CURVE",
"256 507 LINE",
"277 514 OFFCURVE",
"378 509 OFFCURVE",
"449 500 CURVE SMOOTH",
"478 496 OFFCURVE",
"494 525 OFFCURVE",
"506 556 CURVE"
);
}
);
width = 478;
}
);
note = five;
unicode = 0035;
},
{
glyphname = six;
layers = (
{
hints = (
{
horizontal = 1;
place = "{-9, 23}";
type = Stem;
},
{
horizontal = 1;
place = "{361, 25}";
type = Stem;
},
{
horizontal = 1;
place = "{550, 22}";
type = Stem;
},
{
place = "{85, 55}";
type = Stem;
},
{
place = "{475, 58}";
type = Stem;
}
);
layerId = "23C1765D-E8A9-427D-A2B9-D2B95394C525";
paths = (
{
closed = 1;
nodes = (
"540 498 OFFCURVE",
"530 529 OFFCURVE",
"496 546 CURVE SMOOTH",
"470 559 OFFCURVE",
"439 564 OFFCURVE",
"410 562 CURVE SMOOTH",
"295 556 OFFCURVE",
"206 481 OFFCURVE",
"142 393 CURVE SMOOTH",
"57 277 OFFCURVE",
"9 117 OFFCURVE",
"66 35 CURVE SMOOTH",
"97 -9 OFFCURVE",
"161 -18 OFFCURVE",
"211 -15 CURVE SMOOTH",
"278 -11 OFFCURVE",
"348 15 OFFCURVE",
"393 60 CURVE SMOOTH",
"462 131 OFFCURVE",
"502 257 OFFCURVE",
"425 314 CURVE SMOOTH",
"346 373 OFFCURVE",
"186 320 OFFCURVE",
"126 244 CURVE",
"149 344 OFFCURVE",
"240 535 OFFCURVE",
"402 535 CURVE SMOOTH",
"439 535 OFFCURVE",
"473 524 OFFCURVE",
"486 489 CURVE SMOOTH",
"490 477 OFFCURVE",
"491 463 OFFCURVE",
"487 449 CURVE",
"504 448 OFFCURVE",
"518 456 OFFCURVE",
"524 468 CURVE SMOOTH"
);
},
{
closed = 1;
nodes = (
"368 76 OFFCURVE",
"293 3 OFFCURVE",
"207 3 CURVE SMOOTH",
"135 3 OFFCURVE",
"103 71 OFFCURVE",
"110 135 CURVE SMOOTH",
"120 229 OFFCURVE",
"178 287 OFFCURVE",
"267 304 CURVE SMOOTH",
"361 323 OFFCURVE",
"423 260 OFFCURVE",
"392 157 CURVE SMOOTH"
);
}
);
width = 449;
}
);
note = six;
unicode = 0036;
},
{
glyphname = seven;
layers = (
{
hints = (
{
horizontal = 1;
place = "{0, 17}";
type = Stem;
},
{
horizontal = 1;
place = "{526, 40}";
type = Stem;
}
);
layerId = "23C1765D-E8A9-427D-A2B9-D2B95394C525";
paths = (
{
closed = 1;
nodes = (
"469 572 OFFCURVE",
"443 530 OFFCURVE",
"428 510 CURVE",
"402 509 OFFCURVE",
"366 519 OFFCURVE",
"337 531 CURVE SMOOTH",
"301 545 OFFCURVE",
"224 577 OFFCURVE",
"146 544 CURVE SMOOTH",
"96 523 OFFCURVE",
"80 481 OFFCURVE",
"55 439 CURVE SMOOTH",
"51 432 OFFCURVE",
"71 429 OFFCURVE",
"77 440 CURVE SMOOTH",
"97 481 OFFCURVE",
"128 502 OFFCURVE",
"172 508 CURVE SMOOTH",
"235 516 OFFCURVE",
"298 503 OFFCURVE",
"325 499 CURVE SMOOTH",
"353 495 OFFCURVE",
"384 490 OFFCURVE",
"416 492 CURVE",
"69 27 LINE SMOOTH",
"51 2 OFFCURVE",
"51 -12 OFFCURVE",
"67 -8 CURVE",
"67 -8 OFFCURVE",
"103 -1 OFFCURVE",
"128 0 CURVE",
"203 126 OFFCURVE",
"350 381 OFFCURVE",
"451 494 CURVE",
"459 496 OFFCURVE",
"490 510 OFFCURVE",
"500 518 CURVE SMOOTH",
"535 543 OFFCURVE",
"530 572 OFFCURVE",
"504 572 CURVE SMOOTH"
);
}
);
width = 375;
}
);
note = seven;
unicode = 0037;
},
{
glyphname = eight;
layers = (
{
hints = (
{
horizontal = 1;
place = "{-10, 18}";
type = Stem;
},
{
horizontal = 1;
place = "{282, 26}";
type = Stem;
},
{
horizontal = 1;
place = "{553, 21}";
type = Stem;
},
{
place = "{88, 62}";
type = Stem;
},
{
place = "{159, 63}";
type = Stem;
},
{
place = "{527, 60}";
type = Stem;
}
);
layerId = "23C1765D-E8A9-427D-A2B9-D2B95394C525";
paths = (
{
closed = 1;
nodes = (
"557 508 OFFCURVE",
"502 566 OFFCURVE",
"416 566 CURVE SMOOTH",
"329 565 OFFCURVE",
"241 507 OFFCURVE",
"219 433 CURVE SMOOTH",
"205 383 OFFCURVE",
"225 340 OFFCURVE",
"268 318 CURVE",
"176 297 OFFCURVE",
"94 232 OFFCURVE",
"72 156 CURVE SMOOTH",
"45 61 OFFCURVE",
"116 -13 OFFCURVE",
"231 -12 CURVE SMOOTH",
"345 -11 OFFCURVE",
"462 65 OFFCURVE",
"489 158 CURVE SMOOTH",
"510 229 OFFCURVE",
"473 288 OFFCURVE",
"405 314 CURVE",
"467 334 OFFCURVE",
"520 381 OFFCURVE",
"536 435 CURVE SMOOTH"
);
},
{
closed = 1;
nodes = (
"464 374 OFFCURVE",
"407 323 OFFCURVE",
"351 323 CURVE SMOOTH",
"295 323 OFFCURVE",
"262 372 OFFCURVE",
"276 434 CURVE SMOOTH",
"290 496 OFFCURVE",
"347 547 OFFCURVE",
"403 547 CURVE SMOOTH",
"459 547 OFFCURVE",
"493 497 OFFCURVE",
"478 435 CURVE SMOOTH"
);
},
{
closed = 1;
nodes = (
"404 73 OFFCURVE",
"323 7 OFFCURVE",
"242 6 CURVE SMOOTH",
"162 5 OFFCURVE",
"116 71 OFFCURVE",
"136 152 CURVE SMOOTH",
"156 233 OFFCURVE",
"237 300 OFFCURVE",
"317 300 CURVE SMOOTH",
"397 301 OFFCURVE",
"445 235 OFFCURVE",
"424 154 CURVE SMOOTH"
);
}
);
width = 492;
}
);
note = eight;
unicode = 0038;
},
{
glyphname = nine;
layers = (
{
hints = (
{
horizontal = 1;
place = "{-14, 22}";
type = Stem;
},
{
horizontal = 1;
place = "{173, 24}";
type = Stem;
},
{
horizontal = 1;
place = "{544, 22}";
type = Stem;
},
{
place = "{71, 32}";
type = Stem;
},
{
place = "{89, 57}";
type = Stem;
},
{
place = "{481, 55}";
type = Stem;
}
);
layerId = "23C1765D-E8A9-427D-A2B9-D2B95394C525";
paths = (
{
closed = 1;
nodes = (
"473 556 OFFCURVE",
"409 565 OFFCURVE",
"359 562 CURVE SMOOTH",
"292 559 OFFCURVE",
"223 530 OFFCURVE",
"178 485 CURVE SMOOTH",
"108 415 OFFCURVE",
"67 290 OFFCURVE",
"145 232 CURVE SMOOTH",
"224 173 OFFCURVE",
"383 226 OFFCURVE",
"444 303 CURVE",
"421 201 OFFCURVE",
"330 10 OFFCURVE",
"167 10 CURVE SMOOTH",
"131 10 OFFCURVE",
"96 22 OFFCURVE",
"83 58 CURVE SMOOTH",
"79 70 OFFCURVE",
"78 82 OFFCURVE",
"83 98 CURVE",
"65 99 OFFCURVE",
"53 91 OFFCURVE",
"46 78 CURVE SMOOTH",
"31 48 OFFCURVE",
"42 18 OFFCURVE",
"75 1 CURVE SMOOTH",
"100 -13 OFFCURVE",
"130 -16 OFFCURVE",
"161 -15 CURVE SMOOTH",
"275 -9 OFFCURVE",
"364 65 OFFCURVE",
"428 154 CURVE SMOOTH",
"513 270 OFFCURVE",
"561 429 OFFCURVE",
"504 512 CURVE SMOOTH"
);
},
{
closed = 1;
nodes = (
"447 317 OFFCURVE",
"390 258 OFFCURVE",
"301 241 CURVE SMOOTH",
"207 224 OFFCURVE",
"147 286 OFFCURVE",
"177 388 CURVE SMOOTH",
"202 471 OFFCURVE",
"275 543 OFFCURVE",
"361 543 CURVE SMOOTH",
"433 543 OFFCURVE",
"464 476 OFFCURVE",
"457 411 CURVE SMOOTH"
);
}
);
width = 482;
}
);
note = nine;
unicode = 0039;
},
{
glyphname = colon;
layers = (
{
hints = (
{
horizontal = 1;
place = "{38, 61}";
type = Stem;
},
{
horizontal = 1;
place = "{184, 61}";
type = Stem;
}
);
layerId = "23C1765D-E8A9-427D-A2B9-D2B95394C525";
paths = (
{
closed = 1;
nodes = (
"222 230 OFFCURVE",
"210 242 OFFCURVE",
"194 242 CURVE SMOOTH",
"177 241 OFFCURVE",
"161 228 OFFCURVE",
"159 212 CURVE SMOOTH",
"156 195 OFFCURVE",
"168 182 OFFCURVE",
"184 182 CURVE SMOOTH",
"201 183 OFFCURVE",
"217 196 OFFCURVE",
"219 213 CURVE SMOOTH"
);
},
{
closed = 1;
nodes = (
"146 42 OFFCURVE",
"134 56 OFFCURVE",
"118 55 CURVE SMOOTH",
"101 54 OFFCURVE",
"86 41 OFFCURVE",
"83 24 CURVE SMOOTH",
"81 8 OFFCURVE",
"93 -6 OFFCURVE",
"109 -5 CURVE SMOOTH",
"126 -4 OFFCURVE",
"141 9 OFFCURVE",
"144 26 CURVE SMOOTH"
);
}
);
width = 140;
}
);
note = colon;
unicode = 003A;
},
{
glyphname = semicolon;
layers = (
{
hints = (
{
horizontal = 1;
place = "{-86, 11}";
type = Stem;
},
{
horizontal = 1;
place = "{-3, 62}";
type = Stem;
},
{
horizontal = 1;
place = "{154, 66}";
type = Stem;
}
);
layerId = "23C1765D-E8A9-427D-A2B9-D2B95394C525";
paths = (
{
closed = 1;
nodes = (
"222 230 OFFCURVE",
"210 242 OFFCURVE",
"194 242 CURVE SMOOTH",
"177 241 OFFCURVE",
"161 228 OFFCURVE",
"159 212 CURVE SMOOTH",
"156 195 OFFCURVE",
"168 182 OFFCURVE",
"184 182 CURVE SMOOTH",
"201 183 OFFCURVE",
"217 196 OFFCURVE",
"219 213 CURVE SMOOTH"
);
},
{
closed = 1;
nodes = (
"140 54 OFFCURVE",
"129 65 OFFCURVE",
"112 65 CURVE SMOOTH",
"95 65 OFFCURVE",
"79 50 OFFCURVE",
"76 33 CURVE SMOOTH",
"74 16 OFFCURVE",
"86 3 OFFCURVE",
"103 3 CURVE SMOOTH",
"108 3 LINE",
"95 -19 OFFCURVE",
"66 -61 OFFCURVE",
"23 -70 CURVE",
"7 -70 OFFCURVE",
"11 -85 OFFCURVE",
"25 -85 CURVE",
"91 -74 OFFCURVE",
"138 3 OFFCURVE",
"139 34 CURVE SMOOTH"
);
}
);
width = 145;
}
);
note = semicolon;
unicode = 003B;
},
{
glyphname = less;
layers = (
{
hints = (
{
horizontal = 1;
place = "{46, 381}";
type = Stem;
},
{
place = "{50, 46}";
type = Stem;
}
);
layerId = "23C1765D-E8A9-427D-A2B9-D2B95394C525";
paths = (
{
closed = 1;
nodes = (
"96 207 LINE",
"276 407 LINE SMOOTH",
"284 415 OFFCURVE",
"272 433 OFFCURVE",
"264 425 CURVE SMOOTH",
"66 229 LINE SMOOTH",
"44 208 OFFCURVE",
"46 187 OFFCURVE",
"61 177 CURVE SMOOTH",
"263 47 LINE SMOOTH",
"272 41 OFFCURVE",
"285 57 OFFCURVE",
"276 64 CURVE SMOOTH"
);
}
);
width = 423;
}
);
note = less;
unicode = 003C;
},
{
glyphname = equal;
layers = (
{
hints = (
{
horizontal = 1;
place = "{151, 21}";
type = Stem;
},
{
horizontal = 1;
place = "{241, 20}";
type = Stem;
}
);
layerId = "23C1765D-E8A9-427D-A2B9-D2B95394C525";
paths = (
{
closed = 1;
nodes = (
"370 261 LINE",
"152 261 LINE",
"152 241 LINE",
"370 241 LINE"
);
},
{
closed = 1;
nodes = (
"331 172 LINE",
"114 172 LINE",
"114 151 LINE",
"331 151 LINE"
);
}
);
width = 370;
}
);
note = equal;
unicode = 003D;
},
{
glyphname = greater;
layers = (
{
hints = (
{
horizontal = 1;
place = "{45, 381}";
type = Stem;
},
{
place = "{330, 46}";
type = Stem;
}
);
layerId = "23C1765D-E8A9-427D-A2B9-D2B95394C525";
paths = (
{
closed = 1;
nodes = (
"162 425 LINE SMOOTH",
"154 430 OFFCURVE",
"141 414 OFFCURVE",
"149 408 CURVE SMOOTH",
"330 264 LINE",
"150 64 LINE SMOOTH",
"142 56 OFFCURVE",
"153 39 OFFCURVE",
"161 47 CURVE SMOOTH",
"360 243 LINE SMOOTH",
"380 263 OFFCURVE",
"380 284 OFFCURVE",
"365 294 CURVE SMOOTH"
);
}
);
width = 423;
}
);
note = greater;
unicode = 003E;
},
{
glyphname = question;
layers = (
{
hints = (
{
horizontal = 1;
place = "{-12, 62}";
type = Stem;
},
{
horizontal = 1;
place = "{11, -20}";
target = down;
type = TopGhost;
},
{
horizontal = 1;
place = "{286, 11}";
type = Stem;
},
{
horizontal = 1;
place = "{481, 14}";
type = Stem;
}
);
layerId = "23C1765D-E8A9-427D-A2B9-D2B95394C525";
paths = (
{
closed = 1;
nodes = (
"180 42 OFFCURVE",
"169 56 OFFCURVE",
"153 55 CURVE SMOOTH",
"136 54 OFFCURVE",
"121 41 OFFCURVE",
"118 24 CURVE SMOOTH",
"116 8 OFFCURVE",
"127 -6 OFFCURVE",
"144 -5 CURVE SMOOTH",
"161 -4 OFFCURVE",
"175 9 OFFCURVE",
"178 26 CURVE SMOOTH"
);
},
{
closed = 1;
nodes = (
"167 181 OFFCURVE",
"156 150 OFFCURVE",
"177 136 CURVE SMOOTH",
"182 133 OFFCURVE",
"198 133 OFFCURVE",
"209 149 CURVE",
"205 213 OFFCURVE",
"247 239 OFFCURVE",
"296 274 CURVE SMOOTH",
"375 328 OFFCURVE",
"512 370 OFFCURVE",
"512 477 CURVE SMOOTH",
"512 552 OFFCURVE",
"444 580 OFFCURVE",
"364 580 CURVE SMOOTH",
"284 580 OFFCURVE",
"174 545 OFFCURVE",
"174 452 CURVE SMOOTH",
"174 430 OFFCURVE",
"182 411 OFFCURVE",
"200 404 CURVE SMOOTH",
"205 402 OFFCURVE",
"214 403 OFFCURVE",
"211 407 CURVE",
"207 415 OFFCURVE",
"206 427 OFFCURVE",
"206 439 CURVE SMOOTH",
"206 520 OFFCURVE",
"271 569 OFFCURVE",
"362 569 CURVE SMOOTH",
"419 569 OFFCURVE",
"455 536 OFFCURVE",
"455 482 CURVE SMOOTH",
"455 364 OFFCURVE",
"276 290 OFFCURVE",
"192 206 CURVE SMOOTH"
);
}
);
width = 371;
}
);
note = question;
unicode = 003F;
},
{
glyphname = at;
layers = (
{
hints = (
{
horizontal = 1;
place = "{29, 126}";
type = Stem;
},
{
horizontal = 1;
place = "{503, 9}";
type = Stem;
},
{
place = "{50, 27}";
type = Stem;
},
{
place = "{171, 31}";
type = Stem;
},
{
place = "{314, 24}";
type = Stem;
},
{
place = "{488, 26}";
type = Stem;
},
{
place = "{522, 13}";
type = Stem;
}
);
layerId = "23C1765D-E8A9-427D-A2B9-D2B95394C525";
paths = (
{
closed = 1;
nodes = (
"884 253 OFFCURVE",
"850 263 OFFCURVE",
"842 245 CURVE SMOOTH",
"767 78 OFFCURVE",
"615 -39 OFFCURVE",
"429 -39 CURVE SMOOTH",
"285 -39 OFFCURVE",
"164 46 OFFCURVE",
"164 204 CURVE SMOOTH",
"164 301 OFFCURVE",
"211 403 OFFCURVE",
"272 467 CURVE SMOOTH",
"357 555 OFFCURVE",
"479 603 OFFCURVE",
"584 603 CURVE SMOOTH",
"892 603 OFFCURVE",
"837 267 OFFCURVE",
"660 156 CURVE SMOOTH",
"626 135 OFFCURVE",
"543 99 OFFCURVE",
"547 153 CURVE SMOOTH",
"550 192 OFFCURVE",
"564 244 OFFCURVE",
"578 273 CURVE SMOOTH",
"599 314 OFFCURVE",
"633 375 OFFCURVE",
"663 411 CURVE",
"641 406 LINE SMOOTH",
"587 394 OFFCURVE",
"571 361 OFFCURVE",
"541 317 CURVE SMOOTH",
"515 278 OFFCURVE",
"438 146 OFFCURVE",
"383 146 CURVE SMOOTH",
"357 146 OFFCURVE",
"357 190 OFFCURVE",
"366 221 CURVE SMOOTH",
"378 264 OFFCURVE",
"412 325 OFFCURVE",
"460 375 CURVE SMOOTH",
"507 425 OFFCURVE",
"572 455 OFFCURVE",
"633 423 CURVE",
"642 428 LINE",
"591 468 OFFCURVE",
"491 451 OFFCURVE",
"443 417 CURVE SMOOTH",
"377 371 OFFCURVE",
"334 309 OFFCURVE",
"314 235 CURVE SMOOTH",
"290 146 OFFCURVE",
"338 77 OFFCURVE",
"422 141 CURVE SMOOTH",
"450 163 OFFCURVE",
"477 196 OFFCURVE",
"496 224 CURVE",
"496 215 LINE",
"462 55 OFFCURVE",
"585 82 OFFCURVE",
"684 147 CURVE SMOOTH",
"916 301 OFFCURVE",
"926 619 OFFCURVE",
"586 619 CURVE SMOOTH",
"473 619 OFFCURVE",
"344 577 OFFCURVE",
"250 496 CURVE SMOOTH",
"167 425 OFFCURVE",
"110 312 OFFCURVE",
"110 202 CURVE SMOOTH",
"110 37 OFFCURVE",
"235 -61 OFFCURVE",
"409 -61 CURVE SMOOTH",
"622 -61 OFFCURVE",
"789 46 OFFCURVE",
"878 241 CURVE SMOOTH"
);
}
);
width = 826;
}
);
note = at;
unicode = 0040;
},
{
glyphname = A;
layers = (
{
hints = (
{
horizontal = 1;
place = "{-230, 28}";
type = Stem;
},
{
horizontal = 1;
place = "{303, 23}";
type = Stem;
},
{
horizontal = 1;
place = "{319, 23}";
type = Stem;
},
{
horizontal = 1;
place = "{672, 31}";
type = Stem;
},
{
place = "{57, 36}";
type = Stem;
},
{
place = "{615, 63}";
type = Stem;
},
{
place = "{1010, 13}";
type = Stem;
}
);
layerId = "23C1765D-E8A9-427D-A2B9-D2B95394C525";
paths = (
{
closed = 1;
nodes = (
"1028 638 OFFCURVE",
"1021 667 OFFCURVE",
"1000 684 CURVE SMOOTH",
"981 700 OFFCURVE",
"950 705 OFFCURVE",
"913 703 CURVE SMOOTH",
"844 699 OFFCURVE",
"751 646 OFFCURVE",
"673 563 CURVE SMOOTH",
"609 494 OFFCURVE",
"546 408 OFFCURVE",
"487 321 CURVE",
"242 321 LINE SMOOTH",
"233 321 OFFCURVE",
"215 299 OFFCURVE",
"224 299 CURVE SMOOTH",
"473 299 LINE",
"455 273 OFFCURVE",
"438 246 OFFCURVE",
"422 220 CURVE SMOOTH",
"377 150 OFFCURVE",
"328 79 OFFCURVE",
"269 27 CURVE SMOOTH",
"176 -54 OFFCURVE",
"6 -69 OFFCURVE",
"-2 56 CURVE SMOOTH",
"-2 64 OFFCURVE",
"-8 60 OFFCURVE",
"-13 55 CURVE SMOOTH",
"-29 35 OFFCURVE",
"-33 8 OFFCURVE",
"-27 -14 CURVE SMOOTH",
"-12 -65 OFFCURVE",
"48 -75 OFFCURVE",
"98 -71 CURVE SMOOTH",
"240 -60 OFFCURVE",
"385 96 OFFCURVE",
"462 207 CURVE SMOOTH",
"483 237 OFFCURVE",
"503 269 OFFCURVE",
"524 299 CURVE",
"678 299 LINE",
"642 217 OFFCURVE",
"601 116 OFFCURVE",
"619 26 CURVE SMOOTH",
"632 -36 OFFCURVE",
"673 -52 OFFCURVE",
"723 -44 CURVE SMOOTH",
"753 -39 OFFCURVE",
"782 -16 OFFCURVE",
"807 14 CURVE SMOOTH",
"842 56 OFFCURVE",
"871 112 OFFCURVE",
"890 146 CURVE SMOOTH",
"899 163 OFFCURVE",
"888 169 OFFCURVE",
"881 155 CURVE SMOOTH",
"867 129 OFFCURVE",
"839 76 OFFCURVE",
"807 35 CURVE SMOOTH",
"784 6 OFFCURVE",
"760 -18 OFFCURVE",
"738 -22 CURVE SMOOTH",
"695 -29 OFFCURVE",
"676 3 OFFCURVE",
"678 61 CURVE SMOOTH",
"681 139 OFFCURVE",
"714 248 OFFCURVE",
"731 299 CURVE",
"769 299 LINE SMOOTH",
"779 299 OFFCURVE",
"796 321 OFFCURVE",
"788 321 CURVE SMOOTH",
"739 321 LINE",
"776 427 OFFCURVE",
"820 534 OFFCURVE",
"882 627 CURVE",
"888 633 OFFCURVE",
"880 645 OFFCURVE",
"873 633 CURVE SMOOTH",
"832 566 OFFCURVE",
"775 482 OFFCURVE",
"726 393 CURVE SMOOTH",
"712 369 OFFCURVE",
"700 345 OFFCURVE",
"688 321 CURVE",
"541 321 LINE",
"633 452 OFFCURVE",
"728 575 OFFCURVE",
"818 633 CURVE SMOOTH",
"858 659 OFFCURVE",
"905 674 OFFCURVE",
"939 673 CURVE SMOOTH",
"972 672 OFFCURVE",
"998 659 OFFCURVE",
"1008 635 CURVE SMOOTH",
"1013 621 OFFCURVE",
"1011 602 OFFCURVE",
"1002 590 CURVE SMOOTH",
"995 581 OFFCURVE",
"1003 577 OFFCURVE",
"1011 585 CURVE SMOOTH",
"1017 592 OFFCURVE",
"1021 601 OFFCURVE",
"1023 611 CURVE SMOOTH"
);
}
);
width = 807;
}
);
note = A;
unicode = 0041;
},
{
glyphname = B;
layers = (
{
hints = (
{
horizontal = 1;
place = "{-241, 18}";
type = Stem;
},
{
horizontal = 1;
place = "{-55, 11}";
type = Stem;
},
{
horizontal = 1;
place = "{280, 12}";
type = Stem;
},
{
horizontal = 1;
place = "{291, 12}";
type = Stem;
},
{
horizontal = 1;
place = "{331, 10}";
type = Stem;
},
{
horizontal = 1;
place = "{364, 12}";
type = Stem;
},
{
horizontal = 1;
place = "{520, 13}";
type = Stem;
},
{
horizontal = 1;
place = "{693, 13}";
type = Stem;
},
{
place = "{-266, 37}";
type = Stem;
},
{
place = "{100, 32}";
type = Stem;
},
{
place = "{195, 23}";
type = Stem;
},
{
place = "{246, 11}";
type = Stem;
},
{
place = "{394, 25}";
type = Stem;
},
{
place = "{450, 21}";
type = Stem;
},
{
place = "{703, 59}";
type = Stem;
}
);
layerId = "23C1765D-E8A9-427D-A2B9-D2B95394C525";
paths = (
{
closed = 1;
nodes = (
"679 685 OFFCURVE",
"513 706 OFFCURVE",
"422 706 CURVE SMOOTH",
"278 705 OFFCURVE",
"116 659 OFFCURVE",
"51 561 CURVE SMOOTH",
"31 530 OFFCURVE",
"19 496 OFFCURVE",
"19 455 CURVE SMOOTH",
"19 351 OFFCURVE",
"123 315 OFFCURVE",
"207 343 CURVE SMOOTH",
"212 345 OFFCURVE",
"216 354 OFFCURVE",
"207 352 CURVE",
"140 329 OFFCURVE",
"74 348 OFFCURVE",
"56 401 CURVE SMOOTH",
"34 466 OFFCURVE",
"82 550 OFFCURVE",
"125 592 CURVE SMOOTH",
"190 655 OFFCURVE",
"306 693 OFFCURVE",
"419 693 CURVE SMOOTH",
"505 693 OFFCURVE",
"644 677 OFFCURVE",
"662 570 CURVE SMOOTH",
"673 501 OFFCURVE",
"631 413 OFFCURVE",
"564 360 CURVE",
"520 377 OFFCURVE",
"433 392 OFFCURVE",
"389 365 CURVE",
"468 511 OFFCURVE",
"552 610 OFFCURVE",
"615 592 CURVE SMOOTH",
"620 590 OFFCURVE",
"624 598 OFFCURVE",
"619 600 CURVE",
"530 624 OFFCURVE",
"424 515 OFFCURVE",
"309 315 CURVE SMOOTH",
"267 241 OFFCURVE",
"208 100 OFFCURVE",
"136 10 CURVE",
"89 48 OFFCURVE",
"57 107 OFFCURVE",
"76 178 CURVE SMOOTH",
"82 202 OFFCURVE",
"92 225 OFFCURVE",
"110 240 CURVE SMOOTH",
"138 265 OFFCURVE",
"174 266 OFFCURVE",
"185 247 CURVE",
"188 244 OFFCURVE",
"196 252 OFFCURVE",
"195 257 CURVE",
"181 278 OFFCURVE",
"125 290 OFFCURVE",
"87 263 CURVE SMOOTH",
"59 244 OFFCURVE",
"39 213 OFFCURVE",
"32 179 CURVE SMOOTH",
"15 101 OFFCURVE",
"66 35 OFFCURVE",
"123 -4 CURVE",
"80 -53 OFFCURVE",
"23 -87 OFFCURVE",
"-43 -70 CURVE SMOOTH",
"-62 -65 OFFCURVE",
"-87 -44 OFFCURVE",
"-82 -24 CURVE SMOOTH",
"-81 -17 OFFCURVE",
"-88 -18 OFFCURVE",
"-93 -24 CURVE SMOOTH",
"-97 -29 OFFCURVE",
"-99 -36 OFFCURVE",
"-99 -43 CURVE SMOOTH",
"-99 -78 OFFCURVE",
"-57 -88 OFFCURVE",
"-29 -90 CURVE SMOOTH",
"-6 -92 OFFCURVE",
"16 -90 OFFCURVE",
"37 -85 CURVE SMOOTH",
"79 -75 OFFCURVE",
"119 -53 OFFCURVE",
"154 -22 CURVE",
"162 -27 OFFCURVE",
"172 -31 OFFCURVE",
"180 -34 CURVE SMOOTH",
"275 -69 OFFCURVE",
"390 -64 OFFCURVE",
"476 -40 CURVE SMOOTH",
"702 24 OFFCURVE",
"752 265 OFFCURVE",
"593 344 CURVE",
"615 357 OFFCURVE",
"633 371 OFFCURVE",
"649 388 CURVE SMOOTH",
"699 438 OFFCURVE",
"734 515 OFFCURVE",
"713 580 CURVE SMOOTH"
);
},
{
closed = 1;
nodes = (
"512 321 OFFCURVE",
"472 306 OFFCURVE",
"430 306 CURVE SMOOTH",
"357 306 OFFCURVE",
"382 367 OFFCURVE",
"449 367 CURVE SMOOTH",
"490 367 OFFCURVE",
"521 362 OFFCURVE",
"547 346 CURVE"
);
},
{
closed = 1;
nodes = (
"676 252 OFFCURVE",
"632 47 OFFCURVE",
"471 -21 CURVE SMOOTH",
"403 -49 OFFCURVE",
"282 -54 OFFCURVE",
"191 -20 CURVE SMOOTH",
"183 -17 OFFCURVE",
"175 -14 OFFCURVE",
"167 -9 CURVE",
"232 53 OFFCURVE",
"280 140 OFFCURVE",
"315 212 CURVE SMOOTH",
"332 248 OFFCURVE",
"348 285 OFFCURVE",
"365 318 CURVE",
"372 307 OFFCURVE",
"388 295 OFFCURVE",
"426 295 CURVE SMOOTH",
"476 295 OFFCURVE",
"527 310 OFFCURVE",
"568 330 CURVE"
);
}
);
width = 672;
}
);
note = B;
unicode = 0042;
},
{
glyphname = C;
layers = (
{
hints = (
{
horizontal = 1;
place = "{-60, 15}";
type = Stem;
},
{
horizontal = 1;
place = "{296, 15}";
type = Stem;
},
{
horizontal = 1;
place = "{362, 13}";
type = Stem;
},
{
horizontal = 1;
place = "{689, 15}";
type = Stem;
},
{
place = "{27, 32}";
type = Stem;
},
{
place = "{93, 70}";
type = Stem;
},
{
place = "{286, 8}";
type = Stem;
},
{
place = "{383, 13}";
type = Stem;
},
{
place = "{700, 39}";
type = Stem;
},
{
place = "{813, 36}";
type = Stem;
}
);
layerId = "23C1765D-E8A9-427D-A2B9-D2B95394C525";
paths = (
{
closed = 1;
nodes = (
"747 277 OFFCURVE",
"703 323 OFFCURVE",
"597 314 CURVE SMOOTH",
"433 299 OFFCURVE",
"309 189 OFFCURVE",
"264 103 CURVE SMOOTH",
"261 96 OFFCURVE",
"271 91 OFFCURVE",
"275 98 CURVE SMOOTH",
"318 181 OFFCURVE",
"439 287 OFFCURVE",
"597 302 CURVE SMOOTH",
"675 309 OFFCURVE",
"708 271 OFFCURVE",
"703 217 CURVE SMOOTH",
"681 -47 OFFCURVE",
"103 -205 OFFCURVE",
"140 208 CURVE SMOOTH",
"159 419 OFFCURVE",
"361 681 OFFCURVE",
"651 681 CURVE SMOOTH",
"793 681 OFFCURVE",
"773 581 OFFCURVE",
"702 538 CURVE SMOOTH",
"642 502 OFFCURVE",
"553 474 OFFCURVE",
"465 465 CURVE SMOOTH",
"457 464 OFFCURVE",
"455 455 OFFCURVE",
"462 456 CURVE SMOOTH",
"520 461 OFFCURVE",
"634 473 OFFCURVE",
"714 517 CURVE SMOOTH",
"824 578 OFFCURVE",
"816 695 OFFCURVE",
"659 695 CURVE SMOOTH",
"327 695 OFFCURVE",
"89 430 OFFCURVE",
"70 215 CURVE SMOOTH",
"32 -207 OFFCURVE",
"717 -81 OFFCURVE",
"742 215 CURVE SMOOTH"
);
}
);
width = 692;
}
);
note = C;
unicode = 0043;
},
{
glyphname = D;
layers = (
{
hints = (
{
horizontal = 1;
place = "{-251, 16}";
type = Stem;
},
{
horizontal = 1;
place = "{-58, 22}";
type = Stem;
},
{
horizontal = 1;
place = "{182, 13}";
type = Stem;
},
{
horizontal = 1;
place = "{315, 11}";
type = Stem;
},
{
horizontal = 1;
place = "{507, 13}";
type = Stem;
},
{
horizontal = 1;
place = "{593, 9}";
type = Stem;
},
{
horizontal = 1;
place = "{682, 13}";
type = Stem;
},
{
place = "{-230, 33}";
type = Stem;
},
{
place = "{66, 33}";
type = Stem;
},
{
place = "{92, 40}";
type = Stem;
},
{
place = "{215, 10}";
type = Stem;
},
{
place = "{365, 25}";
type = Stem;
},
{
place = "{875, 57}";
type = Stem;
}
);
layerId = "23C1765D-E8A9-427D-A2B9-D2B95394C525";
paths = (
{
closed = 1;
nodes = (
"677 689 OFFCURVE",
"593 704 OFFCURVE",
"512 704 CURVE SMOOTH",
"367 704 OFFCURVE",
"205 655 OFFCURVE",
"139 557 CURVE SMOOTH",
"118 526 OFFCURVE",
"105 490 OFFCURVE",
"105 450 CURVE SMOOTH",
"104 345 OFFCURVE",
"215 320 OFFCURVE",
"294 346 CURVE SMOOTH",
"300 348 OFFCURVE",
"303 357 OFFCURVE",
"295 354 CURVE SMOOTH",
"231 332 OFFCURVE",
"167 351 OFFCURVE",
"150 402 CURVE SMOOTH",
"130 464 OFFCURVE",
"169 546 OFFCURVE",
"212 588 CURVE SMOOTH",
"279 652 OFFCURVE",
"395 691 OFFCURVE",
"510 690 CURVE SMOOTH",
"589 690 OFFCURVE",
"670 674 OFFCURVE",
"734 642 CURVE SMOOTH",
"996 510 OFFCURVE",
"869 143 OFFCURVE",
"658 31 CURVE SMOOTH",
"572 -14 OFFCURVE",
"443 -36 OFFCURVE",
"331 -14 CURVE SMOOTH",
"313 -10 OFFCURVE",
"292 -5 OFFCURVE",
"273 3 CURVE",
"289 20 OFFCURVE",
"304 39 OFFCURVE",
"318 59 CURVE SMOOTH",
"421 205 OFFCURVE",
"458 388 OFFCURVE",
"576 526 CURVE SMOOTH",
"621 580 OFFCURVE",
"666 601 OFFCURVE",
"703 591 CURVE SMOOTH",
"708 589 OFFCURVE",
"711 598 OFFCURVE",
"706 599 CURVE SMOOTH",
"677 607 OFFCURVE",
"648 603 OFFCURVE",
"616 586 CURVE SMOOTH",
"452 502 OFFCURVE",
"366 214 OFFCURVE",
"266 61 CURVE SMOOTH",
"257 48 OFFCURVE",
"248 34 OFFCURVE",
"238 21 CURVE",
"190 52 OFFCURVE",
"156 99 OFFCURVE",
"177 163 CURVE SMOOTH",
"181 177 OFFCURVE",
"190 190 OFFCURVE",
"203 200 CURVE SMOOTH",
"228 219 OFFCURVE",
"261 220 OFFCURVE",
"271 205 CURVE",
"274 202 OFFCURVE",
"282 209 OFFCURVE",
"280 212 CURVE SMOOTH",
"266 229 OFFCURVE",
"214 239 OFFCURVE",
"180 219 CURVE SMOOTH",
"157 205 OFFCURVE",
"143 186 OFFCURVE",
"137 165 CURVE SMOOTH",
"117 99 OFFCURVE",
"168 43 OFFCURVE",
"228 8 CURVE",
"184 -45 OFFCURVE",
"125 -89 OFFCURVE",
"50 -70 CURVE SMOOTH",
"31 -65 OFFCURVE",
"7 -44 OFFCURVE",
"11 -24 CURVE SMOOTH",
"13 -17 OFFCURVE",
"6 -18 OFFCURVE",
"1 -24 CURVE SMOOTH",
"-3 -29 OFFCURVE",
"-5 -36 OFFCURVE",
"-5 -43 CURVE SMOOTH",
"-6 -78 OFFCURVE",
"37 -88 OFFCURVE",
"65 -90 CURVE SMOOTH",
"105 -94 OFFCURVE",
"145 -85 OFFCURVE",
"182 -67 CURVE SMOOTH",
"211 -52 OFFCURVE",
"237 -31 OFFCURVE",
"261 -9 CURVE",
"281 -18 OFFCURVE",
"302 -24 OFFCURVE",
"319 -28 CURVE SMOOTH",
"433 -54 OFFCURVE",
"571 -45 OFFCURVE",
"674 2 CURVE SMOOTH",
"946 124 OFFCURVE",
"1068 521 OFFCURVE",
"750 658 CURVE SMOOTH"
);
}
);
width = 887;
}
);
note = D;
unicode = 0044;
},
{
glyphname = E;
layers = (
{
hints = (
{
horizontal = 1;
place = "{214, 19}";
type = Stem;
},
{
horizontal = 1;
place = "{286, 19}";
type = Stem;
},
{
horizontal = 1;
place = "{368, 13}";
type = Stem;
},
{
horizontal = 1;
place = "{426, 19}";
type = Stem;
},
{
horizontal = 1;
place = "{657, 18}";
type = Stem;
},
{
horizontal = 1;
place = "{702, 22}";
type = Stem;
},
{
place = "{82, 24}";
type = Stem;
},
{
place = "{205, 57}";
type = Stem;
},
{
place = "{260, 8}";
type = Stem;
},
{
place = "{287, 12}";
type = Stem;
},
{
place = "{435, 19}";
type = Stem;
},
{
place = "{608, 16}";
type = Stem;
},
{
place = "{647, 16}";
type = Stem;
}
);
layerId = "23C1765D-E8A9-427D-A2B9-D2B95394C525";
paths = (
{
closed = 1;
nodes = (
"654 229 OFFCURVE",
"596 289 OFFCURVE",
"513 273 CURVE SMOOTH",
"430 257 OFFCURVE",
"393 186 OFFCURVE",
"386 162 CURVE SMOOTH",
"380 144 OFFCURVE",
"387 129 OFFCURVE",
"393 144 CURVE SMOOTH",
"406 179 OFFCURVE",
"435 245 OFFCURVE",
"518 258 CURVE SMOOTH",
"586 268 OFFCURVE",
"616 218 OFFCURVE",
"587 156 CURVE SMOOTH",
"545 66 OFFCURVE",
"462 11 OFFCURVE",
"380 -15 CURVE SMOOTH",
"258 -54 OFFCURVE",
"86 -35 OFFCURVE",
"80 124 CURVE SMOOTH",
"78 195 OFFCURVE",
"113 277 OFFCURVE",
"184 338 CURVE SMOOTH",
"202 353 OFFCURVE",
"220 360 OFFCURVE",
"236 368 CURVE",
"260 345 OFFCURVE",
"286 329 OFFCURVE",
"340 323 CURVE SMOOTH",
"412 314 OFFCURVE",
"454 345 OFFCURVE",
"456 376 CURVE SMOOTH",
"458 401 OFFCURVE",
"435 416 OFFCURVE",
"381 415 CURVE SMOOTH",
"347 414 OFFCURVE",
"310 408 OFFCURVE",
"275 396 CURVE",
"248 461 OFFCURVE",
"288 550 OFFCURVE",
"331 596 CURVE SMOOTH",
"377 644 OFFCURVE",
"453 675 OFFCURVE",
"518 675 CURVE SMOOTH",
"543 675 OFFCURVE",
"572 671 OFFCURVE",
"594 660 CURVE SMOOTH",
"649 634 OFFCURVE",
"637 579 OFFCURVE",
"592 549 CURVE SMOOTH",
"556 525 OFFCURVE",
"500 520 OFFCURVE",
"460 540 CURVE SMOOTH",
"457 541 OFFCURVE",
"447 536 OFFCURVE",
"457 528 CURVE SMOOTH",
"492 501 OFFCURVE",
"570 516 OFFCURVE",
"603 537 CURVE SMOOTH",
"661 575 OFFCURVE",
"672 646 OFFCURVE",
"603 677 CURVE SMOOTH",
"575 690 OFFCURVE",
"541 694 OFFCURVE",
"509 694 CURVE SMOOTH",
"414 694 OFFCURVE",
"311 649 OFFCURVE",
"253 573 CURVE SMOOTH",
"212 518 OFFCURVE",
"196 443 OFFCURVE",
"229 379 CURVE",
"221 377 OFFCURVE",
"198 369 OFFCURVE",
"180 361 CURVE SMOOTH",
"88 319 OFFCURVE",
"31 235 OFFCURVE",
"19 149 CURVE SMOOTH",
"7 57 OFFCURVE",
"62 -42 OFFCURVE",
"209 -57 CURVE SMOOTH",
"357 -72 OFFCURVE",
"553 3 OFFCURVE",
"618 149 CURVE SMOOTH"
);
},
{
closed = 1;
nodes = (
"397 340 OFFCURVE",
"377 339 OFFCURVE",
"357 342 CURVE SMOOTH",
"329 347 OFFCURVE",
"296 361 OFFCURVE",
"280 387 CURVE",
"310 396 OFFCURVE",
"343 401 OFFCURVE",
"381 402 CURVE SMOOTH",
"448 404 OFFCURVE",
"452 360 OFFCURVE",
"412 346 CURVE SMOOTH"
);
}
);
width = 594;
}
);
note = E;
unicode = 0045;
},
{
glyphname = F;
layers = (
{
hints = (
{
horizontal = 1;
place = "{-123, 21}";
type = Stem;
},
{
horizontal = 1;
place = "{252, 8}";
type = Stem;
},
{
horizontal = 1;
place = "{314, 12}";
type = Stem;
},
{
horizontal = 1;
place = "{584, 14}";
type = Stem;
},
{
horizontal = 1;
place = "{658, 11}";
type = Stem;
},
{
place = "{-19, 22}";
type = Stem;
},
{
place = "{77, 31}";
type = Stem;
},
{
place = "{265, 10}";
type = Stem;
},
{
place = "{285, 13}";
type = Stem;
},
{
place = "{671, 10}";
type = Stem;
}
);
layerId = "23C1765D-E8A9-427D-A2B9-D2B95394C525";
paths = (
{
closed = 1;
nodes = (
"837 660 OFFCURVE",
"831 660 OFFCURVE",
"828 657 CURVE SMOOTH",
"825 654 OFFCURVE",
"826 648 OFFCURVE",
"827 643 CURVE SMOOTH",
"828 638 OFFCURVE",
"826 633 OFFCURVE",
"823 629 CURVE SMOOTH",
"808 608 OFFCURVE",
"782 601 OFFCURVE",
"757 600 CURVE",
"745 603 OFFCURVE",
"734 603 OFFCURVE",
"721 602 CURVE",
"683 606 OFFCURVE",
"644 617 OFFCURVE",
"617 625 CURVE SMOOTH",
"581 635 OFFCURVE",
"546 644 OFFCURVE",
"512 652 CURVE SMOOTH",
"381 682 OFFCURVE",
"256 692 OFFCURVE",
"133 626 CURVE SMOOTH",
"93 605 OFFCURVE",
"49 566 OFFCURVE",
"26 517 CURVE SMOOTH",
"-8 445 OFFCURVE",
"-4 358 OFFCURVE",
"65 325 CURVE SMOOTH",
"112 303 OFFCURVE",
"178 320 OFFCURVE",
"208 370 CURVE SMOOTH",
"226 399 OFFCURVE",
"232 438 OFFCURVE",
"227 472 CURVE SMOOTH",
"224 488 OFFCURVE",
"216 510 OFFCURVE",
"209 520 CURVE SMOOTH",
"204 528 OFFCURVE",
"195 525 OFFCURVE",
"201 518 CURVE",
"226 478 OFFCURVE",
"207 405 OFFCURVE",
"190 379 CURVE SMOOTH",
"158 330 OFFCURVE",
"105 314 OFFCURVE",
"70 336 CURVE SMOOTH",
"51 348 OFFCURVE",
"38 371 OFFCURVE",
"36 405 CURVE SMOOTH",
"32 499 OFFCURVE",
"99 562 OFFCURVE",
"178 598 CURVE SMOOTH",
"246 629 OFFCURVE",
"403 632 OFFCURVE",
"485 619 CURVE SMOOTH",
"532 611 OFFCURVE",
"607 594 OFFCURVE",
"672 586 CURVE",
"569 534 OFFCURVE",
"498 402 OFFCURVE",
"433 274 CURVE",
"363 286 OFFCURVE",
"213 319 OFFCURVE",
"173 235 CURVE SMOOTH",
"165 218 OFFCURVE",
"167 199 OFFCURVE",
"170 190 CURVE SMOOTH",
"172 183 OFFCURVE",
"181 183 OFFCURVE",
"178 190 CURVE SMOOTH",
"175 200 OFFCURVE",
"175 214 OFFCURVE",
"184 226 CURVE SMOOTH",
"221 272 OFFCURVE",
"361 258 OFFCURVE",
"423 253 CURVE",
"389 184 OFFCURVE",
"357 116 OFFCURVE",
"322 63 CURVE SMOOTH",
"281 1 OFFCURVE",
"232 -54 OFFCURVE",
"184 -70 CURVE SMOOTH",
"159 -79 OFFCURVE",
"126 -82 OFFCURVE",
"99 -76 CURVE SMOOTH",
"80 -71 OFFCURVE",
"50 -51 OFFCURVE",
"54 -31 CURVE SMOOTH",
"56 -24 OFFCURVE",
"48 -26 OFFCURVE",
"44 -31 CURVE SMOOTH",
"31 -47 OFFCURVE",
"40 -76 OFFCURVE",
"63 -88 CURVE SMOOTH",
"93 -105 OFFCURVE",
"157 -101 OFFCURVE",
"195 -88 CURVE SMOOTH",
"269 -62 OFFCURVE",
"327 -7 OFFCURVE",
"374 59 CURVE SMOOTH",
"416 118 OFFCURVE",
"447 184 OFFCURVE",
"477 250 CURVE",
"524 247 OFFCURVE",
"563 247 OFFCURVE",
"586 257 CURVE",
"572 221 OFFCURVE",
"575 178 OFFCURVE",
"590 161 CURVE SMOOTH",
"595 156 OFFCURVE",
"603 160 OFFCURVE",
"599 167 CURVE SMOOTH",
"588 188 OFFCURVE",
"590 229 OFFCURVE",
"605 262 CURVE",
"618 267 OFFCURVE",
"632 279 OFFCURVE",
"641 291 CURVE SMOOTH",
"666 326 OFFCURVE",
"632 342 OFFCURVE",
"605 304 CURVE",
"598 296 OFFCURVE",
"590 275 OFFCURVE",
"587 266 CURVE",
"557 256 OFFCURVE",
"522 258 OFFCURVE",
"484 264 CURVE",
"524 356 OFFCURVE",
"566 448 OFFCURVE",
"632 526 CURVE SMOOTH",
"655 553 OFFCURVE",
"679 573 OFFCURVE",
"701 583 CURVE",
"728 581 OFFCURVE",
"753 581 OFFCURVE",
"773 584 CURVE SMOOTH",
"800 588 OFFCURVE",
"830 603 OFFCURVE",
"840 630 CURVE SMOOTH",
"843 638 OFFCURVE",
"843 647 OFFCURVE",
"841 653 CURVE"
);
}
);
width = 628;
}
);
note = F;
unicode = 0046;
},
{
glyphname = G;
layers = (
{
hints = (
{
horizontal = 1;
place = "{-329, 20}";
type = Stem;
},
{
horizontal = 1;
place = "{-20, 25}";
type = Stem;
},
{
horizontal = 1;
place = "{319, 20}";
type = Stem;
},
{
horizontal = 1;
place = "{518, 10}";
type = Stem;
},
{
horizontal = 1;
place = "{639, 16}";
type = Stem;
},
{
horizontal = 1;
place = "{642, 19}";
type = Stem;
},
{
place = "{-7, 39}";
type = Stem;
},
{
place = "{45, 31}";
type = Stem;
},
{
place = "{177, 63}";
type = Stem;
},
{
place = "{794, 17}";
type = Stem;
}
);
layerId = "23C1765D-E8A9-427D-A2B9-D2B95394C525";
paths = (
{
closed = 1;
nodes = (
"864 480 OFFCURVE",
"834 476 OFFCURVE",
"802 460 CURVE SMOOTH",
"751 433 OFFCURVE",
"707 385 OFFCURVE",
"667 326 CURVE",
"661 326 OFFCURVE",
"649 315 OFFCURVE",
"636 295 CURVE SMOOTH",
"565 183 OFFCURVE",
"452 65 OFFCURVE",
"344 14 CURVE SMOOTH",
"284 -14 OFFCURVE",
"229 -23 OFFCURVE",
"192 -13 CURVE SMOOTH",
"35 30 OFFCURVE",
"116 285 OFFCURVE",
"173 376 CURVE SMOOTH",
"263 521 OFFCURVE",
"450 662 OFFCURVE",
"623 668 CURVE SMOOTH",
"653 669 OFFCURVE",
"683 664 OFFCURVE",
"705 654 CURVE SMOOTH",
"757 631 OFFCURVE",
"756 579 OFFCURVE",
"730 546 CURVE SMOOTH",
"677 478 OFFCURVE",
"599 467 OFFCURVE",
"546 475 CURVE SMOOTH",
"533 477 OFFCURVE",
"529 465 OFFCURVE",
"544 463 CURVE SMOOTH",
"594 455 OFFCURVE",
"690 466 OFFCURVE",
"745 532 CURVE SMOOTH",
"790 586 OFFCURVE",
"790 652 OFFCURVE",
"716 678 CURVE SMOOTH",
"690 687 OFFCURVE",
"658 691 OFFCURVE",
"625 691 CURVE SMOOTH",
"507 691 OFFCURVE",
"398 650 OFFCURVE",
"301 583 CURVE SMOOTH",
"176 496 OFFCURVE",
"80 366 OFFCURVE",
"48 236 CURVE SMOOTH",
"30 161 OFFCURVE",
"28 54 OFFCURVE",
"95 1 CURVE SMOOTH",
"161 -51 OFFCURVE",
"269 -43 OFFCURVE",
"347 -8 CURVE SMOOTH",
"437 32 OFFCURVE",
"528 118 OFFCURVE",
"607 223 CURVE",
"547 110 OFFCURVE",
"496 -18 OFFCURVE",
"440 -111 CURVE SMOOTH",
"397 -184 OFFCURVE",
"345 -249 OFFCURVE",
"293 -269 CURVE SMOOTH",
"267 -279 OFFCURVE",
"232 -284 OFFCURVE",
"203 -275 CURVE SMOOTH",
"183 -269 OFFCURVE",
"152 -243 OFFCURVE",
"156 -219 CURVE SMOOTH",
"158 -212 OFFCURVE",
"150 -213 OFFCURVE",
"145 -220 CURVE SMOOTH",
"132 -238 OFFCURVE",
"136 -271 OFFCURVE",
"166 -287 CURVE SMOOTH",
"198 -304 OFFCURVE",
"266 -301 OFFCURVE",
"306 -286 CURVE SMOOTH",
"385 -256 OFFCURVE",
"447 -192 OFFCURVE",
"496 -116 CURVE SMOOTH",
"605 54 OFFCURVE",
"644 261 OFFCURVE",
"762 399 CURVE SMOOTH",
"807 453 OFFCURVE",
"853 475 OFFCURVE",
"889 464 CURVE SMOOTH",
"894 462 OFFCURVE",
"898 471 OFFCURVE",
"892 473 CURVE SMOOTH"
);
}
);
width = 705;
}
);
note = G;
unicode = 0047;
},
{
glyphname = H;
layers = (
{
hints = (
{
horizontal = 1;
place = "{293, 10}";
type = Stem;
},
{
horizontal = 1;
place = "{314, 7}";
type = Stem;
},
{
horizontal = 1;
place = "{450, 6}";
type = Stem;
},
{
horizontal = 1;
place = "{470, 11}";
type = Stem;
},
{
place = "{911, 15}";
type = Stem;
}
);
layerId = "23C1765D-E8A9-427D-A2B9-D2B95394C525";
paths = (
{
closed = 1;
nodes = (
"1023 726 OFFCURVE",
"1008 727 OFFCURVE",
"1004 720 CURVE SMOOTH",
"915 592 OFFCURVE",
"816 470 OFFCURVE",
"739 335 CURVE SMOOTH",
"731 321 LINE",
"487 321 LINE",
"531 414 OFFCURVE",
"577 506 OFFCURVE",
"636 575 CURVE SMOOTH",
"652 593 OFFCURVE",
"668 609 OFFCURVE",
"684 620 CURVE",
"694 620 LINE SMOOTH",
"709 620 OFFCURVE",
"769 619 OFFCURVE",
"769 641 CURVE SMOOTH",
"769 651 OFFCURVE",
"744 651 OFFCURVE",
"739 651 CURVE SMOOTH",
"719 651 OFFCURVE",
"698 646 OFFCURVE",
"677 636 CURVE",
"651 637 OFFCURVE",
"625 640 OFFCURVE",
"600 644 CURVE SMOOTH",
"540 653 OFFCURVE",
"471 669 OFFCURVE",
"411 681 CURVE SMOOTH",
"326 697 OFFCURVE",
"247 705 OFFCURVE",
"184 669 CURVE SMOOTH",
"127 636 OFFCURVE",
"99 538 OFFCURVE",
"163 481 CURVE",
"167 479 OFFCURVE",
"172 484 OFFCURVE",
"169 486 CURVE",
"122 533 OFFCURVE",
"170 616 OFFCURVE",
"215 640 CURVE SMOOTH",
"297 682 OFFCURVE",
"402 666 OFFCURVE",
"507 646 CURVE SMOOTH",
"547 638 OFFCURVE",
"603 627 OFFCURVE",
"654 622 CURVE",
"569 566 OFFCURVE",
"497 444 OFFCURVE",
"433 321 CURVE",
"236 321 LINE SMOOTH",
"226 321 OFFCURVE",
"208 299 OFFCURVE",
"218 299 CURVE SMOOTH",
"422 299 LINE",
"376 210 OFFCURVE",
"335 122 OFFCURVE",
"296 63 CURVE SMOOTH",
"255 1 OFFCURVE",
"206 -54 OFFCURVE",
"158 -70 CURVE SMOOTH",
"133 -79 OFFCURVE",
"99 -83 OFFCURVE",
"72 -76 CURVE SMOOTH",
"54 -72 OFFCURVE",
"25 -51 OFFCURVE",
"29 -31 CURVE SMOOTH",
"30 -24 OFFCURVE",
"23 -26 OFFCURVE",
"18 -31 CURVE SMOOTH",
"5 -47 OFFCURVE",
"14 -76 OFFCURVE",
"37 -88 CURVE SMOOTH",
"67 -105 OFFCURVE",
"131 -101 OFFCURVE",
"169 -88 CURVE SMOOTH",
"243 -62 OFFCURVE",
"302 -7 OFFCURVE",
"348 59 CURVE SMOOTH",
"395 126 OFFCURVE",
"436 212 OFFCURVE",
"477 299 CURVE",
"718 299 LINE",
"674 217 OFFCURVE",
"633 126 OFFCURVE",
"632 44 CURVE SMOOTH",
"632 7 OFFCURVE",
"643 -19 OFFCURVE",
"663 -34 CURVE SMOOTH",
"700 -61 OFFCURVE",
"748 -51 OFFCURVE",
"781 -27 CURVE SMOOTH",
"838 14 OFFCURVE",
"891 99 OFFCURVE",
"913 143 CURVE SMOOTH",
"922 160 OFFCURVE",
"910 162 OFFCURVE",
"902 148 CURVE SMOOTH",
"883 113 OFFCURVE",
"824 23 OFFCURVE",
"774 -14 CURVE SMOOTH",
"752 -31 OFFCURVE",
"724 -38 OFFCURVE",
"705 -19 CURVE SMOOTH",
"689 -3 OFFCURVE",
"688 28 OFFCURVE",
"698 68 CURVE SMOOTH",
"714 132 OFFCURVE",
"753 233 OFFCURVE",
"780 299 CURVE",
"839 299 LINE SMOOTH",
"849 299 OFFCURVE",
"867 321 OFFCURVE",
"858 321 CURVE SMOOTH",
"790 321 LINE",
"796 336 OFFCURVE",
"801 347 OFFCURVE",
"805 354 CURVE SMOOTH",
"862 470 OFFCURVE",
"939 615 OFFCURVE",
"1019 719 CURVE"
);
}
);
width = 832;
}
);
note = H;
unicode = 0048;
},
{
glyphname = I;
layers = (
{
hints = (
{
horizontal = 1;
place = "{337, 15}";
type = Stem;
},
{
place = "{292, 12}";
type = Stem;
}
);
layerId = "23C1765D-E8A9-427D-A2B9-D2B95394C525";
paths = (
{
closed = 1;
nodes = (
"581 657 OFFCURVE",
"507 674 OFFCURVE",
"449 673 CURVE SMOOTH",
"392 673 OFFCURVE",
"331 662 OFFCURVE",
"274 638 CURVE SMOOTH",
"169 594 OFFCURVE",
"69 490 OFFCURVE",
"74 369 CURVE SMOOTH",
"76 333 OFFCURVE",
"89 298 OFFCURVE",
"122 281 CURVE SMOOTH",
"153 265 OFFCURVE",
"195 264 OFFCURVE",
"224 278 CURVE SMOOTH",
"241 286 OFFCURVE",
"236 295 OFFCURVE",
"224 290 CURVE SMOOTH",
"199 281 OFFCURVE",
"172 281 OFFCURVE",
"151 294 CURVE SMOOTH",
"128 309 OFFCURVE",
"120 337 OFFCURVE",
"122 369 CURVE SMOOTH",
"128 465 OFFCURVE",
"203 563 OFFCURVE",
"285 609 CURVE SMOOTH",
"335 638 OFFCURVE",
"392 654 OFFCURVE",
"449 656 CURVE SMOOTH",
"486 657 OFFCURVE",
"554 643 OFFCURVE",
"597 625 CURVE",
"577 625 OFFCURVE",
"556 620 OFFCURVE",
"535 609 CURVE SMOOTH",
"474 577 OFFCURVE",
"423 516 OFFCURVE",
"377 443 CURVE SMOOTH",
"299 318 OFFCURVE",
"237 160 OFFCURVE",
"173 63 CURVE SMOOTH",
"133 1 OFFCURVE",
"83 -54 OFFCURVE",
"36 -70 CURVE SMOOTH",
"10 -79 OFFCURVE",
"-23 -82 OFFCURVE",
"-50 -76 CURVE SMOOTH",
"-69 -71 OFFCURVE",
"-98 -51 OFFCURVE",
"-94 -31 CURVE SMOOTH",
"-93 -24 OFFCURVE",
"-99 -26 OFFCURVE",
"-105 -31 CURVE",
"-117 -47 OFFCURVE",
"-108 -76 OFFCURVE",
"-85 -88 CURVE SMOOTH",
"-55 -105 OFFCURVE",
"8 -101 OFFCURVE",
"47 -88 CURVE SMOOTH",
"265 -12 OFFCURVE",
"325 257 OFFCURVE",
"414 428 CURVE SMOOTH",
"456 509 OFFCURVE",
"537 637 OFFCURVE",
"621 613 CURVE",
"628 609 OFFCURVE",
"637 615 OFFCURVE",
"628 622 CURVE SMOOTH"
);
}
);
width = 341;
}
);
note = I;
unicode = 0049;
},
{
glyphname = J;
layers = (
{
hints = (
{
horizontal = 1;
place = "{-69, 20}";
type = Stem;
},
{
horizontal = 1;
place = "{314, 15}";
type = Stem;
},
{
place = "{62, 15}";
type = Stem;
}
);
layerId = "23C1765D-E8A9-427D-A2B9-D2B95394C525";
paths = (
{
closed = 1;
nodes = (
"788 664 OFFCURVE",
"768 665 OFFCURVE",
"748 662 CURVE",
"718 665 OFFCURVE",
"679 670 OFFCURVE",
"649 674 CURVE SMOOTH",
"576 684 OFFCURVE",
"501 686 OFFCURVE",
"432 678 CURVE SMOOTH",
"303 663 OFFCURVE",
"192 601 OFFCURVE",
"112 500 CURVE SMOOTH",
"42 412 OFFCURVE",
"-4 296 OFFCURVE",
"37 201 CURVE SMOOTH",
"71 120 OFFCURVE",
"176 99 OFFCURVE",
"250 136 CURVE SMOOTH",
"276 149 OFFCURVE",
"299 170 OFFCURVE",
"313 196 CURVE SMOOTH",
"315 201 OFFCURVE",
"313 212 OFFCURVE",
"308 204 CURVE SMOOTH",
"294 184 OFFCURVE",
"272 167 OFFCURVE",
"246 156 CURVE SMOOTH",
"174 124 OFFCURVE",
"95 154 OFFCURVE",
"76 236 CURVE SMOOTH",
"58 314 OFFCURVE",
"87 399 OFFCURVE",
"134 468 CURVE SMOOTH",
"202 569 OFFCURVE",
"311 639 OFFCURVE",
"433 658 CURVE SMOOTH",
"513 671 OFFCURVE",
"602 669 OFFCURVE",
"687 654 CURVE SMOOTH",
"710 651 LINE",
"690 643 LINE",
"642 618 OFFCURVE",
"596 575 OFFCURVE",
"552 522 CURVE SMOOTH",
"411 349 OFFCURVE",
"335 113 OFFCURVE",
"200 -89 CURVE SMOOTH",
"150 -164 OFFCURVE",
"72 -273 OFFCURVE",
"-24 -278 CURVE SMOOTH",
"-88 -281 OFFCURVE",
"-143 -245 OFFCURVE",
"-150 -174 CURVE SMOOTH",
"-154 -129 OFFCURVE",
"-139 -67 OFFCURVE",
"-99 -25 CURVE SMOOTH",
"-90 -15 OFFCURVE",
"-96 -14 OFFCURVE",
"-103 -18 CURVE SMOOTH",
"-152 -47 OFFCURVE",
"-186 -116 OFFCURVE",
"-184 -177 CURVE SMOOTH",
"-182 -258 OFFCURVE",
"-118 -297 OFFCURVE",
"-43 -298 CURVE SMOOTH",
"174 -301 OFFCURVE",
"298 -66 OFFCURVE",
"377 105 CURVE SMOOTH",
"451 266 OFFCURVE",
"514 438 OFFCURVE",
"633 572 CURVE SMOOTH",
"695 643 OFFCURVE",
"756 662 OFFCURVE",
"802 648 CURVE",
"807 645 OFFCURVE",
"813 657 OFFCURVE",
"807 659 CURVE SMOOTH"
);
}
);
width = 479;
}
);
note = J;
unicode = 004A;
},
{
glyphname = K;
layers = (
{
hints = (
{
horizontal = 1;
place = "{191, 10}";
type = Stem;
},
{
horizontal = 1;
place = "{251, 11}";
type = Stem;
},
{
horizontal = 1;
place = "{503, 10}";
type = Stem;
},
{
place = "{752, 11}";
type = Stem;
},
{
place = "{994, 15}";
type = Stem;
}
);
layerId = "23C1765D-E8A9-427D-A2B9-D2B95394C525";
paths = (
{
closed = 1;
nodes = (
"1059 645 OFFCURVE",
"988 673 OFFCURVE",
"925 675 CURVE SMOOTH",
"847 678 OFFCURVE",
"766 636 OFFCURVE",
"704 596 CURVE SMOOTH",
"570 509 OFFCURVE",
"397 358 OFFCURVE",
"312 222 CURVE",
"343 168 OFFCURVE",
"378 98 OFFCURVE",
"412 45 CURVE SMOOTH",
"462 -31 OFFCURVE",
"526 -103 OFFCURVE",
"624 -103 CURVE SMOOTH",
"677 -103 OFFCURVE",
"718 -78 OFFCURVE",
"742 -41 CURVE SMOOTH",
"784 23 OFFCURVE",
"768 107 OFFCURVE",
"720 154 CURVE SMOOTH",
"708 165 OFFCURVE",
"690 167 OFFCURVE",
"704 148 CURVE SMOOTH",
"710 140 OFFCURVE",
"718 125 OFFCURVE",
"725 107 CURVE SMOOTH",
"741 70 OFFCURVE",
"755 9 OFFCURVE",
"734 -29 CURVE SMOOTH",
"721 -52 OFFCURVE",
"694 -71 OFFCURVE",
"660 -71 CURVE SMOOTH",
"585 -71 OFFCURVE",
"513 11 OFFCURVE",
"469 70 CURVE SMOOTH",
"426 126 OFFCURVE",
"388 185 OFFCURVE",
"345 241 CURVE",
"425 337 OFFCURVE",
"577 474 OFFCURVE",
"717 560 CURVE SMOOTH",
"779 599 OFFCURVE",
"867 642 OFFCURVE",
"948 635 CURVE SMOOTH",
"991 632 OFFCURVE",
"1045 614 OFFCURVE",
"1038 556 CURVE SMOOTH",
"1037 545 OFFCURVE",
"1049 547 OFFCURVE",
"1051 567 CURVE SMOOTH"
);
},
{
closed = 1;
nodes = (
"532 657 OFFCURVE",
"458 674 OFFCURVE",
"399 673 CURVE SMOOTH",
"343 673 OFFCURVE",
"281 662 OFFCURVE",
"225 638 CURVE SMOOTH",
"121 594 OFFCURVE",
"20 490 OFFCURVE",
"25 369 CURVE SMOOTH",
"26 333 OFFCURVE",
"41 297 OFFCURVE",
"72 281 CURVE SMOOTH",
"104 264 OFFCURVE",
"147 264 OFFCURVE",
"176 278 CURVE SMOOTH",
"193 286 OFFCURVE",
"188 295 OFFCURVE",
"174 290 CURVE SMOOTH",
"150 281 OFFCURVE",
"122 281 OFFCURVE",
"103 294 CURVE SMOOTH",
"79 309 OFFCURVE",
"71 337 OFFCURVE",
"73 369 CURVE SMOOTH",
"80 465 OFFCURVE",
"155 563 OFFCURVE",
"236 609 CURVE SMOOTH",
"286 638 OFFCURVE",
"343 654 OFFCURVE",
"399 656 CURVE SMOOTH",
"438 657 OFFCURVE",
"505 643 OFFCURVE",
"548 625 CURVE",
"528 625 OFFCURVE",
"507 620 OFFCURVE",
"486 609 CURVE SMOOTH",
"426 577 OFFCURVE",
"374 516 OFFCURVE",
"328 443 CURVE SMOOTH",
"250 318 OFFCURVE",
"189 160 OFFCURVE",
"125 63 CURVE SMOOTH",
"84 1 OFFCURVE",
"35 -53 OFFCURVE",
"-14 -70 CURVE SMOOTH",
"-38 -78 OFFCURVE",
"-71 -83 OFFCURVE",
"-99 -76 CURVE SMOOTH",
"-117 -72 OFFCURVE",
"-147 -51 OFFCURVE",
"-143 -31 CURVE SMOOTH",
"-141 -24 OFFCURVE",
"-148 -26 OFFCURVE",
"-153 -31 CURVE SMOOTH",
"-166 -47 OFFCURVE",
"-156 -76 OFFCURVE",
"-134 -88 CURVE SMOOTH",
"-105 -105 OFFCURVE",
"-40 -101 OFFCURVE",
"-2 -88 CURVE SMOOTH",
"217 -12 OFFCURVE",
"276 257 OFFCURVE",
"365 428 CURVE SMOOTH",
"408 509 OFFCURVE",
"489 637 OFFCURVE",
"573 613 CURVE",
"580 609 OFFCURVE",
"588 615 OFFCURVE",
"579 622 CURVE SMOOTH"
);
}
);
width = 768;
}
);
note = K;
unicode = 004B;
},
{
glyphname = L;
layers = (
{
hints = (
{
horizontal = 1;
place = "{-14, 20}";
type = Stem;
},
{
horizontal = 1;
place = "{72, 13}";
type = Stem;
},
{
horizontal = 1;
place = "{671, 22}";
type = Stem;
},
{
place = "{18, 16}";
type = Stem;
},
{
place = "{830, 29}";
type = Stem;
},
{
horizontal = 1;
place = "{-94, 52}";
type = Stem;
}
);
layerId = "23C1765D-E8A9-427D-A2B9-D2B95394C525";
paths = (
{
closed = 1;
nodes = (
"837 161 OFFCURVE",
"814 190 OFFCURVE",
"779 215 CURVE SMOOTH",
"757 230 OFFCURVE",
"733 241 OFFCURVE",
"711 246 CURVE SMOOTH",
"710 246 OFFCURVE",
"694 243 OFFCURVE",
"710 236 CURVE SMOOTH",
"728 229 OFFCURVE",
"752 216 OFFCURVE",
"774 200 CURVE SMOOTH",
"870 129 OFFCURVE",
"832 22 OFFCURVE",
"739 -20 CURVE SMOOTH",
"629 -70 OFFCURVE",
"445 -24 OFFCURVE",
"310 15 CURVE SMOOTH",
"247 33 LINE",
"288 62 OFFCURVE",
"324 100 OFFCURVE",
"354 143 CURVE SMOOTH",
"439 265 OFFCURVE",
"542 586 OFFCURVE",
"659 653 CURVE SMOOTH",
"728 692 OFFCURVE",
"840 669 OFFCURVE",
"821 570 CURVE SMOOTH",
"809 505 OFFCURVE",
"754 454 OFFCURVE",
"694 432 CURVE SMOOTH",
"682 428 OFFCURVE",
"683 415 OFFCURVE",
"698 421 CURVE SMOOTH",
"762 444 OFFCURVE",
"821 490 OFFCURVE",
"841 556 CURVE SMOOTH",
"863 626 OFFCURVE",
"833 685 OFFCURVE",
"759 693 CURVE SMOOTH",
"720 697 OFFCURVE",
"683 687 OFFCURVE",
"649 669 CURVE SMOOTH",
"600 643 OFFCURVE",
"558 598 OFFCURVE",
"527 556 CURVE SMOOTH",
"437 433 OFFCURVE",
"373 257 OFFCURVE",
"302 148 CURVE SMOOTH",
"275 106 OFFCURVE",
"244 69 OFFCURVE",
"212 43 CURVE",
"100 74 LINE SMOOTH",
"83 79 OFFCURVE",
"33 91 OFFCURVE",
"17 81 CURVE SMOOTH",
"11 77 OFFCURVE",
"14 71 OFFCURVE",
"19 72 CURVE SMOOTH",
"38 76 OFFCURVE",
"75 65 OFFCURVE",
"95 59 CURVE SMOOTH",
"122 50 OFFCURVE",
"155 38 OFFCURVE",
"186 25 CURVE",
"163 15 LINE SMOOTH",
"139 5 OFFCURVE",
"105 2 OFFCURVE",
"78 9 CURVE SMOOTH",
"59 14 OFFCURVE",
"30 33 OFFCURVE",
"34 54 CURVE SMOOTH",
"36 61 OFFCURVE",
"29 59 OFFCURVE",
"24 54 CURVE SMOOTH",
"11 38 OFFCURVE",
"20 8 OFFCURVE",
"42 -4 CURVE SMOOTH",
"72 -20 OFFCURVE",
"137 -15 OFFCURVE",
"175 -3 CURVE SMOOTH",
"189 2 OFFCURVE",
"202 7 OFFCURVE",
"215 14 CURVE",
"299 -20 LINE SMOOTH",
"410 -61 OFFCURVE",
"553 -103 OFFCURVE",
"669 -94 CURVE SMOOTH",
"711 -91 OFFCURVE",
"751 -79 OFFCURVE",
"784 -59 CURVE SMOOTH",
"847 -20 OFFCURVE",
"875 59 OFFCURVE",
"849 129 CURVE SMOOTH"
);
}
);
width = 868;
}
);
note = L;
unicode = 004C;
},
{
glyphname = M;
layers = (
{
hints = (
{
horizontal = 1;
place = "{-112, 13}";
type = Stem;
},
{
horizontal = 1;
place = "{349, 15}";
type = Stem;
},
{
horizontal = 1;
place = "{398, 10}";
type = Stem;
},
{
horizontal = 1;
place = "{510, -20}";
target = down;
type = TopGhost;
},
{
place = "{-365, 29}";
type = Stem;
},
{
place = "{79, 14}";
type = Stem;
}
);
layerId = "23C1765D-E8A9-427D-A2B9-D2B95394C525";
paths = (
{
closed = 1;
nodes = (
"1110 650 OFFCURVE",
"1094 652 OFFCURVE",
"1090 645 CURVE SMOOTH",
"1040 574 OFFCURVE",
"953 470 OFFCURVE",
"875 335 CURVE SMOOTH",
"823 244 OFFCURVE",
"769 138 OFFCURVE",
"768 44 CURVE SMOOTH",
"768 -19 OFFCURVE",
"800 -51 OFFCURVE",
"851 -51 CURVE SMOOTH",
"890 -51 OFFCURVE",
"933 -17 OFFCURVE",
"970 24 CURVE SMOOTH",
"1003 61 OFFCURVE",
"1031 105 OFFCURVE",
"1047 136 CURVE SMOOTH",
"1055 152 OFFCURVE",
"1049 163 OFFCURVE",
"1041 149 CURVE SMOOTH",
"1025 118 OFFCURVE",
"999 77 OFFCURVE",
"970 42 CURVE SMOOTH",
"937 1 OFFCURVE",
"900 -32 OFFCURVE",
"870 -32 CURVE SMOOTH",
"826 -32 OFFCURVE",
"820 12 OFFCURVE",
"834 68 CURVE SMOOTH",
"856 156 OFFCURVE",
"921 314 OFFCURVE",
"941 354 CURVE SMOOTH",
"998 470 OFFCURVE",
"1052 574 OFFCURVE",
"1105 644 CURVE SMOOTH"
);
},
{
closed = 1;
nodes = (
"1195 751 OFFCURVE",
"1070 760 OFFCURVE",
"948 628 CURVE SMOOTH",
"836 507 OFFCURVE",
"736 321 OFFCURVE",
"650 189 CURVE SMOOTH",
"619 142 OFFCURVE",
"561 53 OFFCURVE",
"510 34 CURVE",
"555 75 OFFCURVE",
"583 126 OFFCURVE",
"598 184 CURVE SMOOTH",
"618 257 OFFCURVE",
"617 335 OFFCURVE",
"619 406 CURVE SMOOTH",
"620 457 OFFCURVE",
"620 524 OFFCURVE",
"646 569 CURVE SMOOTH",
"665 603 OFFCURVE",
"683 630 OFFCURVE",
"711 639 CURVE",
"717 642 OFFCURVE",
"724 643 OFFCURVE",
"733 643 CURVE SMOOTH",
"737 643 OFFCURVE",
"740 646 OFFCURVE",
"740 649 CURVE",
"742 656 OFFCURVE",
"734 659 OFFCURVE",
"728 660 CURVE",
"702 660 LINE SMOOTH",
"607 660 OFFCURVE",
"511 675 OFFCURVE",
"415 675 CURVE SMOOTH",
"292 675 OFFCURVE",
"168 649 OFFCURVE",
"79 561 CURVE SMOOTH",
"36 518 OFFCURVE",
"3 463 OFFCURVE",
"5 403 CURVE SMOOTH",
"8 300 OFFCURVE",
"107 280 OFFCURVE",
"186 309 CURVE SMOOTH",
"241 329 OFFCURVE",
"291 381 OFFCURVE",
"297 440 CURVE SMOOTH",
"300 467 OFFCURVE",
"292 514 OFFCURVE",
"259 518 CURVE",
"252 518 OFFCURVE",
"251 513 OFFCURVE",
"257 509 CURVE SMOOTH",
"263 505 OFFCURVE",
"268 491 OFFCURVE",
"269 479 CURVE SMOOTH",
"274 407 OFFCURVE",
"226 343 OFFCURVE",
"161 321 CURVE SMOOTH",
"99 300 OFFCURVE",
"29 314 OFFCURVE",
"32 397 CURVE SMOOTH",
"33 446 OFFCURVE",
"66 499 OFFCURVE",
"110 539 CURVE SMOOTH",
"187 610 OFFCURVE",
"304 642 OFFCURVE",
"413 649 CURVE SMOOTH",
"469 652 OFFCURVE",
"551 653 OFFCURVE",
"607 649 CURVE SMOOTH",
"635 647 OFFCURVE",
"641 646 OFFCURVE",
"659 646 CURVE",
"594 614 OFFCURVE",
"534 536 OFFCURVE",
"500 489 CURVE SMOOTH",
"396 343 OFFCURVE",
"332 173 OFFCURVE",
"231 24 CURVE SMOOTH",
"181 -49 OFFCURVE",
"110 -132 OFFCURVE",
"11 -108 CURVE SMOOTH",
"-8 -103 OFFCURVE",
"-31 -82 OFFCURVE",
"-26 -62 CURVE SMOOTH",
"-25 -55 OFFCURVE",
"-31 -57 OFFCURVE",
"-37 -63 CURVE SMOOTH",
"-41 -68 OFFCURVE",
"-43 -74 OFFCURVE",
"-43 -81 CURVE SMOOTH",
"-45 -117 OFFCURVE",
"-3 -126 OFFCURVE",
"25 -128 CURVE SMOOTH",
"66 -130 OFFCURVE",
"105 -124 OFFCURVE",
"144 -105 CURVE SMOOTH",
"200 -78 OFFCURVE",
"250 -27 OFFCURVE",
"289 25 CURVE SMOOTH",
"396 168 OFFCURVE",
"456 349 OFFCURVE",
"552 501 CURVE SMOOTH",
"571 531 OFFCURVE",
"649 650 OFFCURVE",
"694 639 CURVE",
"657 623 OFFCURVE",
"624 580 OFFCURVE",
"607 550 CURVE SMOOTH",
"586 513 OFFCURVE",
"577 463 OFFCURVE",
"571 422 CURVE SMOOTH",
"559 333 OFFCURVE",
"557 243 OFFCURVE",
"534 156 CURVE SMOOTH",
"517 93 OFFCURVE",
"490 37 OFFCURVE",
"445 5 CURVE SMOOTH",
"438 1 OFFCURVE",
"439 -6 OFFCURVE",
"447 -6 CURVE SMOOTH",
"530 -11 OFFCURVE",
"637 131 OFFCURVE",
"685 194 CURVE SMOOTH",
"784 326 OFFCURVE",
"887 499 OFFCURVE",
"996 604 CURVE SMOOTH",
"1116 719 OFFCURVE",
"1196 717 OFFCURVE",
"1210 657 CURVE",
"1212 652 OFFCURVE",
"1229 654 OFFCURVE",
"1225 666 CURVE SMOOTH"
);
}
);
width = 970;
}
);
note = M;
unicode = 004D;
},
{
glyphname = N;
layers = (
{
hints = (
{
horizontal = 1;
place = "{-72, 12}";
type = Stem;
},
{
horizontal = 1;
place = "{31, 11}";
type = Stem;
},
{
horizontal = 1;
place = "{373, 12}";
type = Stem;
},
{
horizontal = 1;
place = "{431, 14}";
type = Stem;
}
);
layerId = "23C1765D-E8A9-427D-A2B9-D2B95394C525";
paths = (
{
closed = 1;
nodes = (
"1203 794 OFFCURVE",
"1078 779 OFFCURVE",
"989 627 CURVE SMOOTH",
"909 489 OFFCURVE",
"846 281 OFFCURVE",
"801 150 CURVE SMOOTH",
"785 104 OFFCURVE",
"755 15 OFFCURVE",
"716 -9 CURVE",
"745 34 OFFCURVE",
"761 76 OFFCURVE",
"762 130 CURVE SMOOTH",
"763 214 OFFCURVE",
"732 289 OFFCURVE",
"720 360 CURVE SMOOTH",
"702 467 OFFCURVE",
"694 612 OFFCURVE",
"765 637 CURVE",
"767 637 LINE SMOOTH",
"784 637 OFFCURVE",
"802 641 OFFCURVE",
"804 649 CURVE SMOOTH",
"806 656 OFFCURVE",
"796 659 OFFCURVE",
"790 660 CURVE SMOOTH",
"784 661 OFFCURVE",
"777 661 OFFCURVE",
"770 660 CURVE",
"676 667 OFFCURVE",
"582 675 OFFCURVE",
"488 675 CURVE SMOOTH",
"365 675 OFFCURVE",
"241 649 OFFCURVE",
"152 561 CURVE SMOOTH",
"109 518 OFFCURVE",
"76 463 OFFCURVE",
"78 403 CURVE SMOOTH",
"81 300 OFFCURVE",
"180 280 OFFCURVE",
"259 309 CURVE SMOOTH",
"314 329 OFFCURVE",
"363 381 OFFCURVE",
"369 440 CURVE SMOOTH",
"372 467 OFFCURVE",
"365 514 OFFCURVE",
"332 518 CURVE SMOOTH",
"326 518 OFFCURVE",
"324 513 OFFCURVE",
"330 509 CURVE SMOOTH",
"337 505 OFFCURVE",
"342 491 OFFCURVE",
"343 479 CURVE SMOOTH",
"348 407 OFFCURVE",
"299 343 OFFCURVE",
"234 321 CURVE SMOOTH",
"172 300 OFFCURVE",
"102 314 OFFCURVE",
"105 397 CURVE SMOOTH",
"106 446 OFFCURVE",
"139 499 OFFCURVE",
"183 539 CURVE SMOOTH",
"260 610 OFFCURVE",
"377 642 OFFCURVE",
"486 649 CURVE SMOOTH",
"566 654 OFFCURVE",
"671 649 OFFCURVE",
"722 646 CURVE",
"658 614 OFFCURVE",
"597 536 OFFCURVE",
"563 489 CURVE SMOOTH",
"460 343 OFFCURVE",
"395 173 OFFCURVE",
"294 24 CURVE SMOOTH",
"244 -49 OFFCURVE",
"173 -132 OFFCURVE",
"75 -108 CURVE SMOOTH",
"56 -103 OFFCURVE",
"32 -82 OFFCURVE",
"37 -62 CURVE SMOOTH",
"39 -55 OFFCURVE",
"31 -57 OFFCURVE",
"27 -63 CURVE",
"22 -68 OFFCURVE",
"20 -74 OFFCURVE",
"20 -81 CURVE SMOOTH",
"18 -117 OFFCURVE",
"60 -126 OFFCURVE",
"88 -128 CURVE SMOOTH",
"129 -130 OFFCURVE",
"169 -123 OFFCURVE",
"207 -105 CURVE SMOOTH",
"263 -77 OFFCURVE",
"314 -27 OFFCURVE",
"352 25 CURVE SMOOTH",
"459 168 OFFCURVE",
"519 348 OFFCURVE",
"615 501 CURVE SMOOTH",
"633 529 OFFCURVE",
"705 642 OFFCURVE",
"751 640 CURVE",
"650 584 OFFCURVE",
"652 455 OFFCURVE",
"664 365 CURVE SMOOTH",
"676 277 OFFCURVE",
"712 183 OFFCURVE",
"711 102 CURVE SMOOTH",
"710 43 OFFCURVE",
"699 -11 OFFCURVE",
"666 -46 CURVE SMOOTH",
"662 -51 OFFCURVE",
"666 -57 OFFCURVE",
"671 -56 CURVE SMOOTH",
"742 -46 OFFCURVE",
"802 97 OFFCURVE",
"829 161 CURVE SMOOTH",
"884 294 OFFCURVE",
"960 489 OFFCURVE",
"1043 613 CURVE SMOOTH",
"1133 748 OFFCURVE",
"1211 761 OFFCURVE",
"1241 705 CURVE SMOOTH",
"1244 700 OFFCURVE",
"1260 705 OFFCURVE",
"1252 717 CURVE SMOOTH"
);
}
);
width = 839;
}
);
note = N;
unicode = 004E;
},
{
glyphname = O;
layers = (
{
hints = (
{
horizontal = 1;
place = "{377, 13}";
type = Stem;
},
{
horizontal = 1;
place = "{487, 14}";
type = Stem;
},
{
place = "{550, 17}";
type = Stem;
}
);
layerId = "23C1765D-E8A9-427D-A2B9-D2B95394C525";
paths = (
{
closed = 1;
nodes = (
"761 407 OFFCURVE",
"758 522 OFFCURVE",
"694 588 CURVE",
"696 596 OFFCURVE",
"697 603 OFFCURVE",
"697 610 CURVE SMOOTH",
"697 657 OFFCURVE",
"664 688 OFFCURVE",
"613 703 CURVE SMOOTH",
"562 717 OFFCURVE",
"494 713 OFFCURVE",
"424 691 CURVE SMOOTH",
"241 632 OFFCURVE",
"83 458 OFFCURVE",
"30 274 CURVE SMOOTH",
"15 221 OFFCURVE",
"8 163 OFFCURVE",
"16 110 CURVE SMOOTH",
"31 11 OFFCURVE",
"107 -74 OFFCURVE",
"267 -72 CURVE SMOOTH",
"479 -69 OFFCURVE",
"666 110 OFFCURVE",
"728 303 CURVE SMOOTH"
);
},
{
closed = 1;
nodes = (
"629 152 OFFCURVE",
"467 -54 OFFCURVE",
"265 -57 CURVE",
"262 -58 LINE",
"152 -59 OFFCURVE",
"100 9 OFFCURVE",
"86 85 CURVE SMOOTH",
"67 184 OFFCURVE",
"101 309 OFFCURVE",
"144 389 CURVE SMOOTH",
"209 511 OFFCURVE",
"332 640 OFFCURVE",
"435 673 CURVE SMOOTH",
"502 694 OFFCURVE",
"558 694 OFFCURVE",
"600 682 CURVE SMOOTH",
"639 670 OFFCURVE",
"667 646 OFFCURVE",
"669 609 CURVE",
"643 626 OFFCURVE",
"612 639 OFFCURVE",
"572 643 CURVE SMOOTH",
"490 652 OFFCURVE",
"392 623 OFFCURVE",
"315 556 CURVE SMOOTH",
"233 483 OFFCURVE",
"198 338 OFFCURVE",
"265 313 CURVE SMOOTH",
"275 309 OFFCURVE",
"286 316 OFFCURVE",
"270 325 CURVE SMOOTH",
"229 348 OFFCURVE",
"272 486 OFFCURVE",
"352 551 CURVE SMOOTH",
"422 608 OFFCURVE",
"500 636 OFFCURVE",
"563 628 CURVE SMOOTH",
"609 623 OFFCURVE",
"642 603 OFFCURVE",
"664 573 CURVE",
"660 561 OFFCURVE",
"654 551 OFFCURVE",
"646 544 CURVE SMOOTH",
"639 538 OFFCURVE",
"639 530 OFFCURVE",
"655 538 CURVE SMOOTH",
"663 541 OFFCURVE",
"670 547 OFFCURVE",
"676 554 CURVE",
"707 494 OFFCURVE",
"704 408 OFFCURVE",
"682 332 CURVE SMOOTH"
);
}
);
width = 706;
}
);
note = O;
unicode = 004F;
},
{
glyphname = P;
layers = (
{
hints = (
{
horizontal = 1;
place = "{-37, 13}";
type = Stem;
},
{
horizontal = 1;
place = "{196, 11}";
type = Stem;
}
);
layerId = "23C1765D-E8A9-427D-A2B9-D2B95394C525";
paths = (
{
closed = 1;
nodes = (
"864 550 OFFCURVE",
"824 619 OFFCURVE",
"726 661 CURVE SMOOTH",
"658 691 OFFCURVE",
"562 704 OFFCURVE",
"463 704 CURVE SMOOTH",
"319 704 OFFCURVE",
"156 655 OFFCURVE",
"90 556 CURVE SMOOTH",
"70 526 OFFCURVE",
"58 490 OFFCURVE",
"58 450 CURVE SMOOTH",
"57 344 OFFCURVE",
"167 319 OFFCURVE",
"246 345 CURVE SMOOTH",
"252 347 OFFCURVE",
"255 356 OFFCURVE",
"246 354 CURVE",
"183 331 OFFCURVE",
"119 350 OFFCURVE",
"102 402 CURVE SMOOTH",
"82 464 OFFCURVE",
"121 545 OFFCURVE",
"164 587 CURVE SMOOTH",
"231 652 OFFCURVE",
"348 689 OFFCURVE",
"462 688 CURVE SMOOTH",
"557 688 OFFCURVE",
"649 668 OFFCURVE",
"714 627 CURVE SMOOTH",
"777 587 OFFCURVE",
"808 525 OFFCURVE",
"807 462 CURVE SMOOTH",
"806 325 OFFCURVE",
"670 238 OFFCURVE",
"544 235 CURVE SMOOTH",
"511 234 OFFCURVE",
"479 239 OFFCURVE",
"448 249 CURVE SMOOTH",
"439 252 OFFCURVE",
"432 255 OFFCURVE",
"426 258 CURVE",
"425 258 LINE",
"467 352 OFFCURVE",
"508 446 OFFCURVE",
"576 526 CURVE SMOOTH",
"621 580 OFFCURVE",
"666 601 OFFCURVE",
"703 591 CURVE SMOOTH",
"708 589 OFFCURVE",
"711 598 OFFCURVE",
"706 599 CURVE SMOOTH",
"677 607 OFFCURVE",
"648 603 OFFCURVE",
"616 586 CURVE SMOOTH",
"452 502 OFFCURVE",
"366 214 OFFCURVE",
"266 61 CURVE SMOOTH",
"218 -12 OFFCURVE",
"149 -96 OFFCURVE",
"50 -70 CURVE SMOOTH",
"31 -65 OFFCURVE",
"7 -44 OFFCURVE",
"11 -24 CURVE SMOOTH",
"13 -17 OFFCURVE",
"6 -18 OFFCURVE",
"1 -24 CURVE SMOOTH",
"-3 -29 OFFCURVE",
"-5 -36 OFFCURVE",
"-5 -43 CURVE SMOOTH",
"-6 -78 OFFCURVE",
"37 -88 OFFCURVE",
"65 -90 CURVE SMOOTH",
"105 -94 OFFCURVE",
"145 -85 OFFCURVE",
"182 -67 CURVE SMOOTH",
"237 -39 OFFCURVE",
"282 8 OFFCURVE",
"318 59 CURVE SMOOTH",
"358 116 OFFCURVE",
"388 179 OFFCURVE",
"417 243 CURVE",
"418 243 OFFCURVE",
"419 242 OFFCURVE",
"421 242 CURVE",
"427 239 OFFCURVE",
"433 236 OFFCURVE",
"440 234 CURVE SMOOTH",
"473 224 OFFCURVE",
"508 218 OFFCURVE",
"544 218 CURVE SMOOTH",
"689 218 OFFCURVE",
"866 312 OFFCURVE",
"865 478 CURVE SMOOTH"
);
}
);
width = 767;
}
);
note = P;
unicode = 0050;
},
{
glyphname = Q;
layers = (
{
hints = (
{
horizontal = 1;
place = "{527, 16}";
type = Stem;
}
);
layerId = "23C1765D-E8A9-427D-A2B9-D2B95394C525";
paths = (
{
closed = 1;
nodes = (
"843 -177 OFFCURVE",
"822 -119 OFFCURVE",
"777 -88 CURVE SMOOTH",
"770 -83 OFFCURVE",
"762 -87 OFFCURVE",
"769 -93 CURVE SMOOTH",
"801 -119 OFFCURVE",
"826 -180 OFFCURVE",
"827 -221 CURVE SMOOTH",
"828 -277 OFFCURVE",
"798 -305 OFFCURVE",
"756 -309 CURVE SMOOTH",
"643 -319 OFFCURVE",
"510 -149 OFFCURVE",
"407 -44 CURVE",
"558 13 OFFCURVE",
"679 154 OFFCURVE",
"727 303 CURVE SMOOTH",
"760 407 OFFCURVE",
"758 522 OFFCURVE",
"694 588 CURVE",
"696 596 OFFCURVE",
"697 603 OFFCURVE",
"697 610 CURVE SMOOTH",
"697 657 OFFCURVE",
"664 688 OFFCURVE",
"612 703 CURVE SMOOTH",
"562 717 OFFCURVE",
"494 714 OFFCURVE",
"423 691 CURVE SMOOTH",
"241 633 OFFCURVE",
"82 458 OFFCURVE",
"29 274 CURVE SMOOTH",
"14 221 OFFCURVE",
"7 163 OFFCURVE",
"15 110 CURVE SMOOTH",
"30 11 OFFCURVE",
"106 -75 OFFCURVE",
"267 -72 CURVE SMOOTH",
"299 -71 OFFCURVE",
"331 -67 OFFCURVE",
"362 -60 CURVE",
"464 -174 OFFCURVE",
"568 -363 OFFCURVE",
"728 -344 CURVE SMOOTH",
"790 -337 OFFCURVE",
"843 -298 OFFCURVE",
"843 -221 CURVE SMOOTH"
);
},
{
closed = 1;
nodes = (
"640 191 OFFCURVE",
"532 34 OFFCURVE",
"390 -28 CURVE",
"360 2 OFFCURVE",
"309 39 OFFCURVE",
"270 54 CURVE SMOOTH",
"231 70 OFFCURVE",
"195 72 OFFCURVE",
"164 53 CURVE SMOOTH",
"157 48 OFFCURVE",
"160 41 OFFCURVE",
"167 43 CURVE",
"212 63 OFFCURVE",
"273 27 OFFCURVE",
"331 -28 CURVE SMOOTH",
"348 -44 LINE",
"320 -52 OFFCURVE",
"293 -57 OFFCURVE",
"265 -57 CURVE SMOOTH",
"261 -57 LINE SMOOTH",
"150 -57 OFFCURVE",
"98 10 OFFCURVE",
"84 86 CURVE SMOOTH",
"65 184 OFFCURVE",
"100 309 OFFCURVE",
"143 389 CURVE SMOOTH",
"207 510 OFFCURVE",
"331 639 OFFCURVE",
"434 671 CURVE SMOOTH",
"499 692 OFFCURVE",
"557 695 OFFCURVE",
"600 682 CURVE SMOOTH",
"639 671 OFFCURVE",
"666 646 OFFCURVE",
"669 609 CURVE",
"643 626 OFFCURVE",
"611 639 OFFCURVE",
"572 643 CURVE SMOOTH",
"490 652 OFFCURVE",
"391 623 OFFCURVE",
"315 556 CURVE SMOOTH",
"233 483 OFFCURVE",
"198 338 OFFCURVE",
"265 313 CURVE SMOOTH",
"274 309 OFFCURVE",
"286 316 OFFCURVE",
"269 325 CURVE SMOOTH",
"229 348 OFFCURVE",
"272 486 OFFCURVE",
"352 551 CURVE SMOOTH",
"422 608 OFFCURVE",
"499 635 OFFCURVE",
"562 628 CURVE SMOOTH",
"609 622 OFFCURVE",
"642 602 OFFCURVE",
"664 573 CURVE",
"660 561 OFFCURVE",
"654 551 OFFCURVE",
"646 544 CURVE SMOOTH",
"639 538 OFFCURVE",
"639 530 OFFCURVE",
"655 538 CURVE SMOOTH",
"663 541 OFFCURVE",
"670 547 OFFCURVE",
"675 553 CURVE",
"706 494 OFFCURVE",
"704 408 OFFCURVE",
"682 332 CURVE SMOOTH"
);
}
);
width = 708;
}
);
note = Q;
unicode = 0051;
},
{
glyphname = R;
layers = (
{
hints = (
{
horizontal = 1;
place = "{-94, 14}";
type = Stem;
}
);
layerId = "23C1765D-E8A9-427D-A2B9-D2B95394C525";
paths = (
{
closed = 1;
nodes = (
"997 1 OFFCURVE",
"979 84 OFFCURVE",
"932 131 CURVE SMOOTH",
"920 142 OFFCURVE",
"903 145 OFFCURVE",
"916 126 CURVE SMOOTH",
"922 118 OFFCURVE",
"930 103 OFFCURVE",
"938 85 CURVE SMOOTH",
"954 48 OFFCURVE",
"968 -13 OFFCURVE",
"947 -51 CURVE SMOOTH",
"934 -74 OFFCURVE",
"907 -94 OFFCURVE",
"873 -94 CURVE SMOOTH",
"797 -94 OFFCURVE",
"726 -11 OFFCURVE",
"682 47 CURVE SMOOTH",
"650 88 OFFCURVE",
"568 216 OFFCURVE",
"530 267 CURVE",
"555 260 OFFCURVE",
"583 257 OFFCURVE",
"611 257 CURVE SMOOTH",
"741 257 OFFCURVE",
"899 341 OFFCURVE",
"898 490 CURVE SMOOTH",
"897 555 OFFCURVE",
"861 618 OFFCURVE",
"773 656 CURVE SMOOTH",
"705 686 OFFCURVE",
"591 702 OFFCURVE",
"480 700 CURVE SMOOTH",
"336 698 OFFCURVE",
"173 651 OFFCURVE",
"107 552 CURVE SMOOTH",
"87 522 OFFCURVE",
"74 487 OFFCURVE",
"74 445 CURVE SMOOTH",
"74 341 OFFCURVE",
"184 315 OFFCURVE",
"263 342 CURVE",
"269 343 OFFCURVE",
"272 353 OFFCURVE",
"263 350 CURVE SMOOTH",
"199 328 OFFCURVE",
"136 347 OFFCURVE",
"119 398 CURVE SMOOTH",
"98 460 OFFCURVE",
"138 541 OFFCURVE",
"181 584 CURVE SMOOTH",
"247 648 OFFCURVE",
"367 683 OFFCURVE",
"482 686 CURVE SMOOTH",
"588 688 OFFCURVE",
"699 667 OFFCURVE",
"763 626 CURVE SMOOTH",
"819 590 OFFCURVE",
"847 534 OFFCURVE",
"846 476 CURVE SMOOTH",
"844 353 OFFCURVE",
"723 275 OFFCURVE",
"611 272 CURVE SMOOTH",
"582 271 OFFCURVE",
"552 275 OFFCURVE",
"525 284 CURVE SMOOTH",
"518 286 OFFCURVE",
"512 289 OFFCURVE",
"506 292 CURVE SMOOTH",
"503 293 OFFCURVE",
"498 292 OFFCURVE",
"496 290 CURVE",
"496 289 OFFCURVE",
"495 289 OFFCURVE",
"495 289 CURVE",
"488 282 OFFCURVE",
"501 278 OFFCURVE",
"517 244 CURVE SMOOTH",
"546 184 OFFCURVE",
"599 63 OFFCURVE",
"625 23 CURVE SMOOTH",
"675 -53 OFFCURVE",
"739 -125 OFFCURVE",
"836 -125 CURVE SMOOTH",
"889 -125 OFFCURVE",
"932 -100 OFFCURVE",
"955 -64 CURVE SMOOTH"
);
},
{
closed = 1;
nodes = (
"677 607 OFFCURVE",
"648 603 OFFCURVE",
"616 586 CURVE SMOOTH",
"452 502 OFFCURVE",
"366 214 OFFCURVE",
"266 61 CURVE SMOOTH",
"218 -12 OFFCURVE",
"149 -96 OFFCURVE",
"50 -70 CURVE SMOOTH",
"31 -65 OFFCURVE",
"7 -44 OFFCURVE",
"11 -24 CURVE SMOOTH",
"13 -17 OFFCURVE",
"6 -18 OFFCURVE",
"1 -24 CURVE SMOOTH",
"-3 -29 OFFCURVE",
"-5 -36 OFFCURVE",
"-5 -43 CURVE SMOOTH",
"-6 -79 OFFCURVE",
"37 -88 OFFCURVE",
"65 -90 CURVE SMOOTH",
"105 -94 OFFCURVE",
"145 -85 OFFCURVE",
"182 -67 CURVE SMOOTH",
"237 -39 OFFCURVE",
"282 8 OFFCURVE",
"318 59 CURVE SMOOTH",
"421 205 OFFCURVE",
"458 388 OFFCURVE",
"576 526 CURVE SMOOTH",
"621 580 OFFCURVE",
"666 601 OFFCURVE",
"703 591 CURVE SMOOTH",
"708 589 OFFCURVE",
"711 598 OFFCURVE",
"706 599 CURVE SMOOTH"
);
}
);
width = 931;
}
);
note = R;
unicode = 0052;
},
{
glyphname = S;
layers = (
{
hints = (
{
horizontal = 1;
place = "{-102, 20}";
type = Stem;
},
{
horizontal = 1;
place = "{384, 17}";
type = Stem;
},
{
horizontal = 1;
place = "{707, 19}";
type = Stem;
},
{
place = "{610, 74}";
type = Stem;
}
);
layerId = "23C1765D-E8A9-427D-A2B9-D2B95394C525";
paths = (
{
closed = 1;
nodes = (
"776 714 OFFCURVE",
"723 728 OFFCURVE",
"684 726 CURVE SMOOTH",
"618 723 OFFCURVE",
"567 684 OFFCURVE",
"542 626 CURVE SMOOTH",
"496 517 OFFCURVE",
"570 411 OFFCURVE",
"599 320 CURVE SMOOTH",
"609 289 OFFCURVE",
"610 256 OFFCURVE",
"610 222 CURVE SMOOTH",
"610 60 OFFCURVE",
"484 -82 OFFCURVE",
"294 -82 CURVE SMOOTH",
"92 -82 OFFCURVE",
"64 103 OFFCURVE",
"163 239 CURVE SMOOTH",
"216 312 OFFCURVE",
"304 377 OFFCURVE",
"397 384 CURVE SMOOTH",
"493 392 OFFCURVE",
"501 320 OFFCURVE",
"454 256 CURVE SMOOTH",
"405 190 OFFCURVE",
"293 132 OFFCURVE",
"212 138 CURVE SMOOTH",
"206 139 OFFCURVE",
"205 130 OFFCURVE",
"211 129 CURVE SMOOTH",
"300 118 OFFCURVE",
"408 166 OFFCURVE",
"466 240 CURVE SMOOTH",
"529 320 OFFCURVE",
"513 398 OFFCURVE",
"407 401 CURVE SMOOTH",
"303 403 OFFCURVE",
"190 334 OFFCURVE",
"130 251 CURVE SMOOTH",
"14 88 OFFCURVE",
"72 -102 OFFCURVE",
"299 -102 CURVE SMOOTH",
"511 -102 OFFCURVE",
"684 36 OFFCURVE",
"684 229 CURVE SMOOTH",
"684 283 OFFCURVE",
"671 337 OFFCURVE",
"644 388 CURVE SMOOTH",
"605 463 OFFCURVE",
"542 557 OFFCURVE",
"594 652 CURVE SMOOTH",
"611 683 OFFCURVE",
"649 705 OFFCURVE",
"686 707 CURVE SMOOTH",
"719 708 OFFCURVE",
"741 691 OFFCURVE",
"741 657 CURVE",
"738 637 LINE",
"751 632 OFFCURVE",
"777 640 OFFCURVE",
"777 666 CURVE SMOOTH"
);
}
);
width = 655;
}
);
note = S;
unicode = 0053;
},
{
glyphname = T;
layers = (
{
hints = (
{
horizontal = 1;
place = "{238, 10}";
type = Stem;
},
{
horizontal = 1;
place = "{403, 10}";
type = Stem;
},
{
place = "{102, 22}";
type = Stem;
},
{
place = "{435, 10}";
type = Stem;
}
);
layerId = "23C1765D-E8A9-427D-A2B9-D2B95394C525";
paths = (
{
closed = 1;
nodes = (
"842 638 OFFCURVE",
"841 650 OFFCURVE",
"838 655 CURVE SMOOTH",
"834 662 OFFCURVE",
"830 662 OFFCURVE",
"827 659 CURVE SMOOTH",
"825 657 OFFCURVE",
"826 652 OFFCURVE",
"827 647 CURVE SMOOTH",
"828 642 OFFCURVE",
"826 633 OFFCURVE",
"823 629 CURVE SMOOTH",
"805 602 OFFCURVE",
"768 599 OFFCURVE",
"739 601 CURVE SMOOTH",
"697 603 OFFCURVE",
"649 616 OFFCURVE",
"617 625 CURVE SMOOTH",
"581 635 OFFCURVE",
"546 644 OFFCURVE",
"512 652 CURVE SMOOTH",
"381 682 OFFCURVE",
"256 692 OFFCURVE",
"133 626 CURVE SMOOTH",
"93 605 OFFCURVE",
"49 566 OFFCURVE",
"26 517 CURVE SMOOTH",
"-8 445 OFFCURVE",
"-4 358 OFFCURVE",
"65 325 CURVE SMOOTH",
"112 303 OFFCURVE",
"178 320 OFFCURVE",
"208 370 CURVE SMOOTH",
"226 399 OFFCURVE",
"232 438 OFFCURVE",
"227 472 CURVE SMOOTH",
"224 488 OFFCURVE",
"216 510 OFFCURVE",
"209 520 CURVE SMOOTH",
"204 528 OFFCURVE",
"195 525 OFFCURVE",
"201 518 CURVE",
"226 478 OFFCURVE",
"207 405 OFFCURVE",
"190 379 CURVE SMOOTH",
"158 330 OFFCURVE",
"105 314 OFFCURVE",
"70 336 CURVE SMOOTH",
"51 348 OFFCURVE",
"38 371 OFFCURVE",
"36 405 CURVE SMOOTH",
"32 499 OFFCURVE",
"99 562 OFFCURVE",
"178 598 CURVE SMOOTH",
"246 629 OFFCURVE",
"403 632 OFFCURVE",
"485 619 CURVE SMOOTH",
"532 611 OFFCURVE",
"607 594 OFFCURVE",
"672 586 CURVE",
"508 502 OFFCURVE",
"423 216 OFFCURVE",
"322 63 CURVE SMOOTH",
"281 0 OFFCURVE",
"232 -54 OFFCURVE",
"184 -70 CURVE SMOOTH",
"159 -79 OFFCURVE",
"126 -82 OFFCURVE",
"99 -76 CURVE SMOOTH",
"80 -71 OFFCURVE",
"50 -51 OFFCURVE",
"54 -31 CURVE SMOOTH",
"56 -24 OFFCURVE",
"48 -26 OFFCURVE",
"44 -31 CURVE SMOOTH",
"31 -47 OFFCURVE",
"40 -76 OFFCURVE",
"63 -88 CURVE SMOOTH",
"93 -105 OFFCURVE",
"157 -101 OFFCURVE",
"195 -88 CURVE SMOOTH",
"269 -62 OFFCURVE",
"327 -7 OFFCURVE",
"374 59 CURVE SMOOTH",
"477 205 OFFCURVE",
"514 388 OFFCURVE",
"632 526 CURVE SMOOTH",
"655 553 OFFCURVE",
"679 573 OFFCURVE",
"701 583 CURVE",
"728 581 OFFCURVE",
"753 581 OFFCURVE",
"773 584 CURVE SMOOTH",
"800 588 OFFCURVE",
"832 602 OFFCURVE",
"840 630 CURVE SMOOTH"
);
}
);
width = 586;
}
);
note = T;
unicode = 0054;
},
{
glyphname = U;
layers = (
{
hints = (
{
horizontal = 1;
place = "{387, 26}";
type = Stem;
}
);
layerId = "23C1765D-E8A9-427D-A2B9-D2B95394C525";
paths = (
{
closed = 1;
nodes = (
"1122 715 OFFCURVE",
"1060 708 OFFCURVE",
"1011 684 CURVE SMOOTH",
"936 647 OFFCURVE",
"870 568 OFFCURVE",
"812 479 CURVE SMOOTH",
"745 378 OFFCURVE",
"683 275 OFFCURVE",
"617 175 CURVE SMOOTH",
"573 108 OFFCURVE",
"507 41 OFFCURVE",
"455 9 CURVE SMOOTH",
"388 -32 OFFCURVE",
"287 -64 OFFCURVE",
"280 47 CURVE SMOOTH",
"275 134 OFFCURVE",
"358 269 OFFCURVE",
"420 374 CURVE SMOOTH",
"470 458 OFFCURVE",
"537 600 OFFCURVE",
"487 674 CURVE SMOOTH",
"465 706 OFFCURVE",
"432 720 OFFCURVE",
"394 724 CURVE SMOOTH",
"298 733 OFFCURVE",
"170 670 OFFCURVE",
"110 598 CURVE SMOOTH",
"24 493 OFFCURVE",
"21 365 OFFCURVE",
"149 344 CURVE SMOOTH",
"189 337 OFFCURVE",
"231 343 OFFCURVE",
"249 351 CURVE SMOOTH",
"255 354 OFFCURVE",
"251 364 OFFCURVE",
"245 360 CURVE",
"227 353 OFFCURVE",
"190 349 OFFCURVE",
"158 357 CURVE SMOOTH",
"52 384 OFFCURVE",
"72 493 OFFCURVE",
"142 584 CURVE SMOOTH",
"195 653 OFFCURVE",
"299 716 OFFCURVE",
"389 712 CURVE SMOOTH",
"429 710 OFFCURVE",
"460 691 OFFCURVE",
"468 644 CURVE SMOOTH",
"481 569 OFFCURVE",
"416 452 OFFCURVE",
"381 397 CURVE SMOOTH",
"321 303 OFFCURVE",
"252 211 OFFCURVE",
"234 100 CURVE SMOOTH",
"226 52 OFFCURVE",
"233 -1 OFFCURVE",
"277 -28 CURVE SMOOTH",
"321 -54 OFFCURVE",
"391 -48 OFFCURVE",
"468 -4 CURVE SMOOTH",
"558 47 OFFCURVE",
"637 161 OFFCURVE",
"702 269 CURVE",
"671 195 OFFCURVE",
"640 121 OFFCURVE",
"637 52 CURVE SMOOTH",
"634 0 OFFCURVE",
"645 -51 OFFCURVE",
"707 -51 CURVE SMOOTH",
"789 -51 OFFCURVE",
"862 94 OFFCURVE",
"894 152 CURVE SMOOTH",
"902 167 OFFCURVE",
"887 166 OFFCURVE",
"879 151 CURVE SMOOTH",
"853 102 OFFCURVE",
"778 -30 OFFCURVE",
"720 -17 CURVE SMOOTH",
"684 -9 OFFCURVE",
"696 56 OFFCURVE",
"699 79 CURVE SMOOTH",
"730 281 OFFCURVE",
"903 622 OFFCURVE",
"1025 674 CURVE SMOOTH",
"1057 688 OFFCURVE",
"1120 683 OFFCURVE",
"1131 632 CURVE",
"1134 623 OFFCURVE",
"1142 630 OFFCURVE",
"1138 647 CURVE SMOOTH"
);
}
);
width = 807;
}
);
note = U;
unicode = 0055;
},
{
glyphname = V;
layers = (
{
hints = (
{
place = "{253, 14}";
type = Stem;
},
{
place = "{878, 14}";
type = Stem;
}
);
layerId = "23C1765D-E8A9-427D-A2B9-D2B95394C525";
paths = (
{
closed = 1;
nodes = (
"1012 717 OFFCURVE",
"889 731 OFFCURVE",
"768 594 CURVE SMOOTH",
"714 533 OFFCURVE",
"665 456 OFFCURVE",
"618 377 CURVE SMOOTH",
"567 290 OFFCURVE",
"436 29 OFFCURVE",
"354 0 CURVE",
"414 53 OFFCURVE",
"440 120 OFFCURVE",
"452 190 CURVE SMOOTH",
"469 288 OFFCURVE",
"445 453 OFFCURVE",
"490 535 CURVE SMOOTH",
"514 578 OFFCURVE",
"536 609 OFFCURVE",
"577 609 CURVE SMOOTH",
"580 609 OFFCURVE",
"582 610 OFFCURVE",
"583 612 CURVE",
"586 614 OFFCURVE",
"586 618 OFFCURVE",
"581 622 CURVE SMOOTH",
"534 657 OFFCURVE",
"460 674 OFFCURVE",
"402 673 CURVE SMOOTH",
"345 673 OFFCURVE",
"284 662 OFFCURVE",
"227 638 CURVE SMOOTH",
"122 594 OFFCURVE",
"22 490 OFFCURVE",
"27 369 CURVE SMOOTH",
"28 333 OFFCURVE",
"42 297 OFFCURVE",
"75 280 CURVE SMOOTH",
"106 264 OFFCURVE",
"149 264 OFFCURVE",
"178 278 CURVE SMOOTH",
"195 286 OFFCURVE",
"190 295 OFFCURVE",
"177 290 CURVE SMOOTH",
"153 281 OFFCURVE",
"114 280 OFFCURVE",
"93 293 CURVE SMOOTH",
"70 308 OFFCURVE",
"61 337 OFFCURVE",
"63 369 CURVE SMOOTH",
"70 465 OFFCURVE",
"147 562 OFFCURVE",
"231 609 CURVE SMOOTH",
"282 637 OFFCURVE",
"341 654 OFFCURVE",
"399 656 CURVE SMOOTH",
"456 658 OFFCURVE",
"524 640 OFFCURVE",
"563 620 CURVE",
"555 618 OFFCURVE",
"545 614 OFFCURVE",
"533 607 CURVE SMOOTH",
"492 585 OFFCURVE",
"451 524 OFFCURVE",
"437 482 CURVE SMOOTH",
"427 454 OFFCURVE",
"421 422 OFFCURVE",
"416 388 CURVE SMOOTH",
"407 324 OFFCURVE",
"404 259 OFFCURVE",
"394 195 CURVE SMOOTH",
"379 103 OFFCURVE",
"352 14 OFFCURVE",
"289 -29 CURVE SMOOTH",
"283 -33 OFFCURVE",
"285 -40 OFFCURVE",
"292 -40 CURVE SMOOTH",
"359 -44 OFFCURVE",
"441 45 OFFCURVE",
"520 156 CURVE SMOOTH",
"562 215 OFFCURVE",
"602 276 OFFCURVE",
"642 337 CURVE SMOOTH",
"698 423 OFFCURVE",
"756 509 OFFCURVE",
"818 570 CURVE SMOOTH",
"936 688 OFFCURVE",
"1012 686 OFFCURVE",
"1028 628 CURVE SMOOTH",
"1033 609 OFFCURVE",
"1043 620 OFFCURVE",
"1039 632 CURVE SMOOTH"
);
}
);
width = 607;
}
);
note = V;
unicode = 0056;
},
{
glyphname = W;
layers = (
{
hints = (
{
place = "{1301, 14}";
type = Stem;
}
);
layerId = "23C1765D-E8A9-427D-A2B9-D2B95394C525";
paths = (
{
closed = 1;
nodes = (
"1311 710 OFFCURVE",
"1285 722 OFFCURVE",
"1254 722 CURVE SMOOTH",
"1204 722 OFFCURVE",
"1132 698 OFFCURVE",
"1074 620 CURVE SMOOTH",
"919 410 OFFCURVE",
"772 40 OFFCURVE",
"660 0 CURVE",
"828 150 OFFCURVE",
"731 418 OFFCURVE",
"796 535 CURVE SMOOTH",
"820 578 OFFCURVE",
"842 609 OFFCURVE",
"883 609 CURVE SMOOTH",
"892 609 OFFCURVE",
"892 622 OFFCURVE",
"883 622 CURVE SMOOTH",
"853 624 OFFCURVE",
"828 617 OFFCURVE",
"772 577 CURVE SMOOTH",
"722 541 OFFCURVE",
"641 394 OFFCURVE",
"558 257 CURVE SMOOTH",
"514 185 OFFCURVE",
"446 71 OFFCURVE",
"387 20 CURVE",
"379 15 OFFCURVE",
"375 18 OFFCURVE",
"378 23 CURVE",
"464 120 OFFCURVE",
"462 255 OFFCURVE",
"465 400 CURVE SMOOTH",
"467 465 OFFCURVE",
"490 609 OFFCURVE",
"578 609 CURVE SMOOTH",
"583 609 OFFCURVE",
"586 613 OFFCURVE",
"585 616 CURVE",
"585 618 OFFCURVE",
"584 620 OFFCURVE",
"581 622 CURVE SMOOTH",
"534 657 OFFCURVE",
"460 674 OFFCURVE",
"402 673 CURVE SMOOTH",
"345 673 OFFCURVE",
"284 662 OFFCURVE",
"227 638 CURVE SMOOTH",
"122 594 OFFCURVE",
"22 490 OFFCURVE",
"27 369 CURVE SMOOTH",
"28 333 OFFCURVE",
"42 297 OFFCURVE",
"75 280 CURVE SMOOTH",
"106 264 OFFCURVE",
"149 264 OFFCURVE",
"178 278 CURVE SMOOTH",
"195 286 OFFCURVE",
"190 295 OFFCURVE",
"177 290 CURVE SMOOTH",
"153 281 OFFCURVE",
"114 280 OFFCURVE",
"93 293 CURVE SMOOTH",
"70 308 OFFCURVE",
"61 337 OFFCURVE",
"63 369 CURVE SMOOTH",
"70 465 OFFCURVE",
"147 562 OFFCURVE",
"231 609 CURVE SMOOTH",
"282 637 OFFCURVE",
"341 654 OFFCURVE",
"399 656 CURVE SMOOTH",
"458 658 OFFCURVE",
"527 639 OFFCURVE",
"566 618 CURVE",
"556 615 OFFCURVE",
"541 609 OFFCURVE",
"522 596 CURVE SMOOTH",
"492 576 OFFCURVE",
"467 541 OFFCURVE",
"453 516 CURVE SMOOTH",
"438 489 OFFCURVE",
"429 457 OFFCURVE",
"422 423 CURVE SMOOTH",
"399 304 OFFCURVE",
"409 142 OFFCURVE",
"350 39 CURVE SMOOTH",
"339 20 LINE SMOOTH",
"326 2 OFFCURVE",
"309 -15 OFFCURVE",
"290 -29 CURVE SMOOTH",
"284 -33 OFFCURVE",
"286 -40 OFFCURVE",
"293 -40 CURVE SMOOTH",
"327 -43 OFFCURVE",
"360 -25 OFFCURVE",
"394 3 CURVE SMOOTH",
"410 16 LINE",
"454 59 OFFCURVE",
"499 124 OFFCURVE",
"542 194 CURVE SMOOTH",
"596 280 OFFCURVE",
"750 585 OFFCURVE",
"845 605 CURVE",
"765 575 OFFCURVE",
"732 462 OFFCURVE",
"722 388 CURVE SMOOTH",
"704 264 OFFCURVE",
"705 46 OFFCURVE",
"595 -29 CURVE SMOOTH",
"588 -34 OFFCURVE",
"591 -40 OFFCURVE",
"598 -40 CURVE SMOOTH",
"817 -53 OFFCURVE",
"982 629 OFFCURVE",
"1262 687 CURVE SMOOTH",
"1286 692 OFFCURVE",
"1309 692 OFFCURVE",
"1322 681 CURVE SMOOTH",
"1328 676 OFFCURVE",
"1334 681 OFFCURVE",
"1328 688 CURVE SMOOTH"
);
}
);
width = 880;
}
);
note = W;
unicode = 0057;
},
{
glyphname = X;
layers = (
{
hints = (
{
horizontal = 1;
place = "{368, 10}";
type = Stem;
},
{
horizontal = 1;
place = "{546, -20}";
target = down;
type = TopGhost;
}
);
layerId = "23C1765D-E8A9-427D-A2B9-D2B95394C525";
paths = (
{
closed = 1;
nodes = (
"1028 734 OFFCURVE",
"990 731 OFFCURVE",
"948 713 CURVE SMOOTH",
"899 693 OFFCURVE",
"864 673 OFFCURVE",
"818 626 CURVE SMOOTH",
"729 537 OFFCURVE",
"667 445 OFFCURVE",
"601 347 CURVE",
"587 386 LINE SMOOTH",
"549 492 OFFCURVE",
"516 632 OFFCURVE",
"581 664 CURVE",
"581 664 OFFCURVE",
"582 664 OFFCURVE",
"583 665 CURVE",
"589 665 LINE SMOOTH",
"612 665 OFFCURVE",
"628 676 OFFCURVE",
"595 677 CURVE SMOOTH",
"554 679 OFFCURVE",
"513 679 OFFCURVE",
"472 679 CURVE SMOOTH",
"349 678 OFFCURVE",
"224 652 OFFCURVE",
"131 563 CURVE SMOOTH",
"86 520 OFFCURVE",
"50 464 OFFCURVE",
"49 404 CURVE SMOOTH",
"46 301 OFFCURVE",
"145 282 OFFCURVE",
"226 312 CURVE SMOOTH",
"281 332 OFFCURVE",
"334 384 OFFCURVE",
"343 444 CURVE SMOOTH",
"347 469 OFFCURVE",
"342 517 OFFCURVE",
"309 521 CURVE SMOOTH",
"302 522 OFFCURVE",
"300 515 OFFCURVE",
"306 512 CURVE SMOOTH",
"313 508 OFFCURVE",
"317 494 OFFCURVE",
"317 482 CURVE SMOOTH",
"320 411 OFFCURVE",
"267 346 OFFCURVE",
"201 323 CURVE SMOOTH",
"139 302 OFFCURVE",
"70 314 OFFCURVE",
"76 398 CURVE SMOOTH",
"80 447 OFFCURVE",
"115 500 OFFCURVE",
"160 541 CURVE SMOOTH",
"241 613 OFFCURVE",
"359 653 OFFCURVE",
"467 660 CURVE SMOOTH",
"494 662 OFFCURVE",
"528 664 OFFCURVE",
"564 665 CURVE",
"477 604 OFFCURVE",
"503 477 OFFCURVE",
"530 390 CURVE SMOOTH",
"561 290 LINE",
"524 237 OFFCURVE",
"484 183 OFFCURVE",
"438 128 CURVE SMOOTH",
"336 9 OFFCURVE",
"235 -58 OFFCURVE",
"144 -60 CURVE SMOOTH",
"83 -62 OFFCURVE",
"44 -13 OFFCURVE",
"45 48 CURVE SMOOTH",
"45 86 OFFCURVE",
"67 137 OFFCURVE",
"109 170 CURVE SMOOTH",
"118 177 OFFCURVE",
"112 178 OFFCURVE",
"106 176 CURVE SMOOTH",
"56 155 OFFCURVE",
"18 99 OFFCURVE",
"14 47 CURVE SMOOTH",
"8 -21 OFFCURVE",
"53 -75 OFFCURVE",
"122 -77 CURVE SMOOTH",
"325 -83 OFFCURVE",
"473 112 OFFCURVE",
"572 255 CURVE",
"598 168 OFFCURVE",
"626 71 OFFCURVE",
"635 16 CURVE SMOOTH",
"645 -48 OFFCURVE",
"644 -108 OFFCURVE",
"618 -148 CURVE SMOOTH",
"614 -154 OFFCURVE",
"620 -166 OFFCURVE",
"631 -154 CURVE SMOOTH",
"661 -118 OFFCURVE",
"717 -29 OFFCURVE",
"760 -26 CURVE",
"769 -24 OFFCURVE",
"772 1 OFFCURVE",
"749 -9 CURVE SMOOTH",
"722 -22 OFFCURVE",
"690 -58 OFFCURVE",
"672 -82 CURVE",
"687 -38 OFFCURVE",
"689 14 OFFCURVE",
"684 48 CURVE SMOOTH",
"674 116 OFFCURVE",
"639 231 OFFCURVE",
"612 314 CURVE",
"692 435 OFFCURVE",
"770 557 OFFCURVE",
"884 654 CURVE SMOOTH",
"952 713 OFFCURVE",
"1012 728 OFFCURVE",
"1053 716 CURVE SMOOTH",
"1059 714 OFFCURVE",
"1065 723 OFFCURVE",
"1059 725 CURVE SMOOTH"
);
}
);
width = 712;
}
);
note = X;
unicode = 0058;
},
{
glyphname = Y;
layers = (
{
hints = (
{
horizontal = 1;
place = "{-325, 19}";
type = Stem;
}
);
layerId = "23C1765D-E8A9-427D-A2B9-D2B95394C525";
paths = (
{
closed = 1;
nodes = (
"983 604 OFFCURVE",
"978 657 OFFCURVE",
"930 647 CURVE SMOOTH",
"858 631 OFFCURVE",
"799 528 OFFCURVE",
"759 439 CURVE SMOOTH",
"687 281 OFFCURVE",
"500 -34 OFFCURVE",
"344 -29 CURVE SMOOTH",
"309 -28 OFFCURVE",
"283 -8 OFFCURVE",
"280 47 CURVE SMOOTH",
"274 134 OFFCURVE",
"358 269 OFFCURVE",
"420 374 CURVE SMOOTH",
"468 455 OFFCURVE",
"549 586 OFFCURVE",
"479 674 CURVE SMOOTH",
"450 711 OFFCURVE",
"396 726 OFFCURVE",
"333 722 CURVE SMOOTH",
"206 715 OFFCURVE",
"69 645 OFFCURVE",
"6 532 CURVE SMOOTH",
"-20 484 OFFCURVE",
"-35 427 OFFCURVE",
"-19 374 CURVE SMOOTH",
"5 295 OFFCURVE",
"94 283 OFFCURVE",
"160 332 CURVE SMOOTH",
"203 363 OFFCURVE",
"232 422 OFFCURVE",
"223 476 CURVE SMOOTH",
"219 500 OFFCURVE",
"201 541 OFFCURVE",
"173 536 CURVE SMOOTH",
"166 535 OFFCURVE",
"167 530 OFFCURVE",
"173 528 CURVE SMOOTH",
"179 526 OFFCURVE",
"187 514 OFFCURVE",
"190 504 CURVE SMOOTH",
"212 441 OFFCURVE",
"186 372 OFFCURVE",
"135 337 CURVE SMOOTH",
"88 304 OFFCURVE",
"20 314 OFFCURVE",
"6 374 CURVE SMOOTH",
"-5 419 OFFCURVE",
"10 473 OFFCURVE",
"38 519 CURVE SMOOTH",
"97 617 OFFCURVE",
"223 700 OFFCURVE",
"337 706 CURVE SMOOTH",
"387 708 OFFCURVE",
"428 698 OFFCURVE",
"450 671 CURVE SMOOTH",
"510 598 OFFCURVE",
"423 464 OFFCURVE",
"381 397 CURVE SMOOTH",
"321 303 OFFCURVE",
"252 211 OFFCURVE",
"234 100 CURVE SMOOTH",
"220 16 OFFCURVE",
"257 -45 OFFCURVE",
"344 -43 CURVE SMOOTH",
"484 -39 OFFCURVE",
"607 121 OFFCURVE",
"699 274 CURVE",
"674 212 LINE SMOOTH",
"626 102 OFFCURVE",
"548 -88 OFFCURVE",
"452 -213 CURVE SMOOTH",
"402 -278 OFFCURVE",
"349 -303 OFFCURVE",
"302 -306 CURVE SMOOTH",
"260 -308 OFFCURVE",
"214 -286 OFFCURVE",
"218 -249 CURVE SMOOTH",
"220 -234 OFFCURVE",
"207 -245 OFFCURVE",
"204 -251 CURVE SMOOTH",
"181 -298 OFFCURVE",
"238 -325 OFFCURVE",
"282 -325 CURVE SMOOTH",
"415 -325 OFFCURVE",
"507 -241 OFFCURVE",
"581 -119 CURVE SMOOTH",
"685 55 OFFCURVE",
"717 231 OFFCURVE",
"779 405 CURVE SMOOTH",
"805 478 OFFCURVE",
"853 600 OFFCURVE",
"942 603 CURVE SMOOTH"
);
}
);
width = 744;
}
);
note = Y;
unicode = 0059;
},
{
glyphname = Z;
layers = (
{
hints = (
{
horizontal = 1;
place = "{63, 17}";
type = Stem;
},
{
horizontal = 1;
place = "{582, 16}";
type = Stem;
}
);
layerId = "23C1765D-E8A9-427D-A2B9-D2B95394C525";
paths = (
{
closed = 1;
nodes = (
"748 631 OFFCURVE",
"698 651 OFFCURVE",
"578 661 CURVE SMOOTH",
"437 673 OFFCURVE",
"283 643 OFFCURVE",
"195 518 CURVE SMOOTH",
"159 467 OFFCURVE",
"150 375 OFFCURVE",
"214 342 CURVE SMOOTH",
"259 318 OFFCURVE",
"333 332 OFFCURVE",
"379 356 CURVE SMOOTH",
"440 388 OFFCURVE",
"533 484 OFFCURVE",
"494 555 CURVE SMOOTH",
"489 564 OFFCURVE",
"484 559 OFFCURVE",
"486 550 CURVE",
"508 484 OFFCURVE",
"428 402 OFFCURVE",
"374 372 CURVE SMOOTH",
"335 351 OFFCURVE",
"258 331 OFFCURVE",
"220 355 CURVE SMOOTH",
"172 386 OFFCURVE",
"207 465 OFFCURVE",
"236 501 CURVE SMOOTH",
"318 603 OFFCURVE",
"448 634 OFFCURVE",
"573 631 CURVE SMOOTH",
"676 628 OFFCURVE",
"722 621 OFFCURVE",
"819 592 CURVE",
"796 587 OFFCURVE",
"776 578 OFFCURVE",
"748 555 CURVE SMOOTH",
"665 489 OFFCURVE",
"580 405 OFFCURVE",
"497 323 CURVE SMOOTH",
"396 222 OFFCURVE",
"275 122 OFFCURVE",
"188 60 CURVE",
"158 63 OFFCURVE",
"106 72 OFFCURVE",
"83 52 CURVE SMOOTH",
"63 36 OFFCURVE",
"65 7 OFFCURVE",
"107 2 CURVE SMOOTH",
"141 -2 OFFCURVE",
"184 14 OFFCURVE",
"207 33 CURVE",
"340 -25 OFFCURVE",
"551 -153 OFFCURVE",
"710 -89 CURVE SMOOTH",
"824 -43 OFFCURVE",
"847 103 OFFCURVE",
"742 192 CURVE SMOOTH",
"722 209 OFFCURVE",
"700 222 OFFCURVE",
"679 229 CURVE",
"678 229 OFFCURVE",
"663 226 OFFCURVE",
"677 218 CURVE SMOOTH",
"694 209 OFFCURVE",
"717 196 OFFCURVE",
"737 178 CURVE SMOOTH",
"823 101 OFFCURVE",
"780 -5 OFFCURVE",
"688 -43 CURVE SMOOTH",
"562 -94 OFFCURVE",
"352 1 OFFCURVE",
"224 48 CURVE",
"347 121 OFFCURVE",
"450 201 OFFCURVE",
"527 286 CURVE SMOOTH",
"594 360 OFFCURVE",
"666 455 OFFCURVE",
"755 531 CURVE SMOOTH",
"786 558 OFFCURVE",
"824 577 OFFCURVE",
"846 586 CURVE",
"868 581 OFFCURVE",
"887 590 OFFCURVE",
"861 598 CURVE SMOOTH"
);
}
);
width = 812;
}
);
note = Z;
unicode = 005A;
},
{
glyphname = bracketleft;
layers = (
{
hints = (
{
horizontal = 1;
place = "{-111, 25}";
type = Stem;
},
{
horizontal = 1;
place = "{705, 26}";
type = Stem;
},
{
place = "{79, 41}";
type = Stem;
}
);
layerId = "23C1765D-E8A9-427D-A2B9-D2B95394C525";
paths = (
{
closed = 1;
nodes = (
"212 -86 LINE",
"120 -86 LINE",
"120 705 LINE",
"212 705 LINE",
"212 731 LINE",
"79 731 LINE",
"79 -111 LINE",
"212 -111 LINE"
);
}
);
width = 212;
}
);
note = bracketleft;
unicode = 005B;
},
{
glyphname = backslash;
layers = (
{
hints = (
{
horizontal = 1;
place = "{-38, 21}";
target = up;
type = BottomGhost;
},
{
horizontal = 1;
place = "{674, -20}";
target = down;
type = TopGhost;
}
);
layerId = "23C1765D-E8A9-427D-A2B9-D2B95394C525";
paths = (
{
closed = 1;
nodes = (
"111 674 LINE",
"73 674 LINE",
"359 -35 LINE",
"397 -35 LINE"
);
}
);
width = 425;
}
);
note = backslash;
unicode = 005C;
},
{
glyphname = bracketright;
layers = (
{
hints = (
{
horizontal = 1;
place = "{-111, 25}";
type = Stem;
},
{
horizontal = 1;
place = "{705, 26}";
type = Stem;
},
{
place = "{251, 40}";
type = Stem;
}
);
layerId = "23C1765D-E8A9-427D-A2B9-D2B95394C525";
paths = (
{
closed = 1;
nodes = (
"291 731 LINE",
"157 731 LINE",
"157 705 LINE",
"251 705 LINE",
"251 -86 LINE",
"157 -86 LINE",
"157 -111 LINE",
"291 -111 LINE"
);
}
);
width = 296;
}
);
note = bracketright;
unicode = 005D;
},
{
glyphname = asciicircum;
layers = (
{
hints = (
{
horizontal = 1;
place = "{398, 30}";
type = Stem;
},
{
place = "{55, 244}";
type = Stem;
}
);
layerId = "23C1765D-E8A9-427D-A2B9-D2B95394C525";
paths = (
{
closed = 1;
nodes = (
"215 421 LINE",
"208 430 OFFCURVE",
"195 431 OFFCURVE",
"182 417 CURVE SMOOTH",
"56 290 LINE",
"51 286 OFFCURVE",
"62 278 OFFCURVE",
"67 283 CURVE SMOOTH",
"195 398 LINE",
"287 282 LINE",
"292 277 OFFCURVE",
"302 286 OFFCURVE",
"298 291 CURVE"
);
}
);
width = 314;
}
);
note = asciicircum;
unicode = 005E;
},
{
glyphname = underscore;
layers = (
{
hints = (
{
horizontal = 1;
place = "{-54, 24}";
type = Stem;
}
);
layerId = "23C1765D-E8A9-427D-A2B9-D2B95394C525";
paths = (
{
closed = 1;
nodes = (
"428 -30 LINE",
"0 -30 LINE",
"0 -54 LINE",
"428 -54 LINE"
);
}
);
width = 428;
}
);
note = underscore;
unicode = 005F;
},
{
glyphname = grave;
layers = (
{
hints = (
{
horizontal = 1;
place = "{389, 104}";
type = Stem;
},
{
place = "{77, 142}";
type = Stem;
}
);
layerId = "23C1765D-E8A9-427D-A2B9-D2B95394C525";
paths = (
{
closed = 1;
nodes = (
"185 425 OFFCURVE",
"140 464 OFFCURVE",
"107 490 CURVE SMOOTH",
"92 503 OFFCURVE",
"66 470 OFFCURVE",
"83 460 CURVE SMOOTH",
"209 389 LINE SMOOTH",
"215 386 OFFCURVE",
"225 398 OFFCURVE",
"215 405 CURVE SMOOTH"
);
}
);
width = 224;
}
);
note = grave;
unicode = 0060;
},
{
glyphname = a;
layers = (
{
hints = (
{
horizontal = 1;
place = "{-7, 31}";
type = Stem;
},
{
horizontal = 1;
place = "{328, -20}";
target = down;
type = TopGhost;
}
);
layerId = "23C1765D-E8A9-427D-A2B9-D2B95394C525";
paths = (
{
closed = 1;
nodes = (
"451 166 OFFCURVE",
"443 175 OFFCURVE",
"437 165 CURVE SMOOTH",
"411 119 OFFCURVE",
"387 79 OFFCURVE",
"357 46 CURVE SMOOTH",
"343 30 OFFCURVE",
"322 10 OFFCURVE",
"301 10 CURVE SMOOTH",
"280 10 OFFCURVE",
"276 29 OFFCURVE",
"277 44 CURVE SMOOTH",
"279 75 OFFCURVE",
"300 121 OFFCURVE",
"314 150 CURVE SMOOTH",
"335 192 OFFCURVE",
"367 252 OFFCURVE",
"395 288 CURVE",
"382 313 OFFCURVE",
"343 328 OFFCURVE",
"297 328 CURVE SMOOTH",
"255 328 OFFCURVE",
"212 314 OFFCURVE",
"184 294 CURVE SMOOTH",
"121 247 OFFCURVE",
"78 185 OFFCURVE",
"59 111 CURVE SMOOTH",
"36 23 OFFCURVE",
"83 -46 OFFCURVE",
"163 19 CURVE SMOOTH",
"190 40 OFFCURVE",
"217 74 OFFCURVE",
"236 100 CURVE",
"235 98 OFFCURVE",
"235 95 OFFCURVE",
"235 93 CURVE",
"227 56 OFFCURVE",
"229 8 OFFCURVE",
"267 -4 CURVE SMOOTH",
"284 -9 OFFCURVE",
"300 -7 OFFCURVE",
"313 -2 CURVE SMOOTH",
"330 4 OFFCURVE",
"345 15 OFFCURVE",
"357 27 CURVE SMOOTH",
"395 65 OFFCURVE",
"422 111 OFFCURVE",
"445 155 CURVE SMOOTH"
);
},
{
closed = 1;
nodes = (
"378 284 OFFCURVE",
"376 283 OFFCURVE",
"374 283 CURVE",
"323 267 OFFCURVE",
"307 238 OFFCURVE",
"279 194 CURVE SMOOTH",
"253 155 OFFCURVE",
"178 24 OFFCURVE",
"127 24 CURVE SMOOTH",
"101 24 OFFCURVE",
"99 65 OFFCURVE",
"107 98 CURVE SMOOTH",
"117 141 OFFCURVE",
"152 201 OFFCURVE",
"197 252 CURVE SMOOTH",
"229 287 OFFCURVE",
"269 312 OFFCURVE",
"310 312 CURVE SMOOTH",
"337 312 OFFCURVE",
"369 303 OFFCURVE",
"381 284 CURVE"
);
}
);
width = 357;
}
);
note = a;
unicode = 0061;
},
{
glyphname = b;
layers = (
{
hints = (
{
horizontal = 1;
place = "{-13, 21}";
target = up;
type = BottomGhost;
},
{
horizontal = 1;
place = "{569, -20}";
target = down;
type = TopGhost;
},
{
place = "{38, 179}";
type = Stem;
}
);
layerId = "23C1765D-E8A9-427D-A2B9-D2B95394C525";
paths = (
{
closed = 1;
nodes = (
"330 317 OFFCURVE",
"266 184 OFFCURVE",
"250 154 CURVE SMOOTH",
"233 123 OFFCURVE",
"193 50 OFFCURVE",
"149 20 CURVE SMOOTH",
"115 -3 OFFCURVE",
"66 -1 OFFCURVE",
"83 57 CURVE SMOOTH",
"102 121 OFFCURVE",
"162 214 OFFCURVE",
"205 266 CURVE SMOOTH",
"228 295 OFFCURVE",
"253 317 OFFCURVE",
"270 317 CURVE SMOOTH"
);
},
{
closed = 1;
nodes = (
"235 364 OFFCURVE",
"263 390 OFFCURVE",
"316 440 CURVE SMOOTH",
"378 499 OFFCURVE",
"478 588 OFFCURVE",
"511 661 CURVE SMOOTH",
"530 705 OFFCURVE",
"512 748 OFFCURVE",
"462 741 CURVE SMOOTH",
"336 722 OFFCURVE",
"250 534 OFFCURVE",
"202 440 CURVE SMOOTH",
"188 412 OFFCURVE",
"161 354 OFFCURVE",
"145 319 CURVE SMOOTH",
"108 237 OFFCURVE",
"65 135 OFFCURVE",
"53 91 CURVE SMOOTH",
"39 41 OFFCURVE",
"48 -13 OFFCURVE",
"106 -13 CURVE SMOOTH",
"154 -13 OFFCURVE",
"198 15 OFFCURVE",
"235 51 CURVE",
"249 13 OFFCURVE",
"303 21 OFFCURVE",
"336 44 CURVE SMOOTH",
"371 68 OFFCURVE",
"392 99 OFFCURVE",
"415 139 CURVE SMOOTH",
"419 147 OFFCURVE",
"418 170 OFFCURVE",
"413 160 CURVE SMOOTH",
"392 122 OFFCURVE",
"367 86 OFFCURVE",
"336 61 CURVE SMOOTH",
"309 39 OFFCURVE",
"258 25 OFFCURVE",
"247 64 CURVE",
"267 85 OFFCURVE",
"284 109 OFFCURVE",
"297 131 CURVE SMOOTH",
"330 188 OFFCURVE",
"390 335 OFFCURVE",
"286 335 CURVE SMOOTH",
"248 335 OFFCURVE",
"200 291 OFFCURVE",
"163 240 CURVE",
"164 245 OFFCURVE",
"181 287 OFFCURVE",
"196 320 CURVE"
);
},
{
closed = 1;
nodes = (
"454 604 OFFCURVE",
"360 508 OFFCURVE",
"304 452 CURVE SMOOTH",
"265 412 OFFCURVE",
"243 389 OFFCURVE",
"212 355 CURVE",
"261 466 OFFCURVE",
"354 712 OFFCURVE",
"463 727 CURVE SMOOTH",
"498 732 OFFCURVE",
"507 707 OFFCURVE",
"485 664 CURVE SMOOTH"
);
}
);
width = 336;
}
);
note = b;
unicode = 0062;
},
{
glyphname = c;
layers = (
{
hints = (
{
horizontal = 1;
place = "{-11, 21}";
target = up;
type = BottomGhost;
},
{
horizontal = 1;
place = "{329, -20}";
target = down;
type = TopGhost;
}
);
layerId = "23C1765D-E8A9-427D-A2B9-D2B95394C525";
paths = (
{
closed = 1;
nodes = (
"353 153 OFFCURVE",
"343 162 OFFCURVE",
"338 153 CURVE SMOOTH",
"311 103 OFFCURVE",
"256 8 OFFCURVE",
"183 8 CURVE SMOOTH",
"94 8 OFFCURVE",
"116 126 OFFCURVE",
"134 177 CURVE SMOOTH",
"159 249 OFFCURVE",
"210 317 OFFCURVE",
"265 314 CURVE SMOOTH",
"300 312 OFFCURVE",
"309 280 OFFCURVE",
"297 252 CURVE",
"258 250 OFFCURVE",
"231 216 OFFCURVE",
"234 195 CURVE SMOOTH",
"237 179 OFFCURVE",
"255 178 OFFCURVE",
"269 185 CURVE SMOOTH",
"288 195 OFFCURVE",
"302 215 OFFCURVE",
"312 239 CURVE SMOOTH",
"334 293 OFFCURVE",
"311 329 OFFCURVE",
"257 329 CURVE SMOOTH",
"176 329 OFFCURVE",
"116 261 OFFCURVE",
"87 190 CURVE SMOOTH",
"51 102 OFFCURVE",
"56 -11 OFFCURVE",
"163 -11 CURVE SMOOTH",
"257 -11 OFFCURVE",
"303 66 OFFCURVE",
"345 140 CURVE SMOOTH"
);
}
);
width = 265;
}
);
note = c;
unicode = 0063;
},
{
glyphname = d;
layers = (
{
hints = (
{
horizontal = 1;
place = "{234, 15}";
type = Stem;
},
{
horizontal = 1;
place = "{569, -20}";
target = down;
type = TopGhost;
}
);
layerId = "23C1765D-E8A9-427D-A2B9-D2B95394C525";
paths = (
{
closed = 1;
nodes = (
"718 705 OFFCURVE",
"700 748 OFFCURVE",
"650 741 CURVE SMOOTH",
"524 722 OFFCURVE",
"438 534 OFFCURVE",
"390 440 CURVE SMOOTH",
"376 412 OFFCURVE",
"348 356 OFFCURVE",
"333 321 CURVE",
"282 337 OFFCURVE",
"212 322 OFFCURVE",
"174 294 CURVE SMOOTH",
"111 248 OFFCURVE",
"70 185 OFFCURVE",
"50 111 CURVE SMOOTH",
"27 23 OFFCURVE",
"74 -46 OFFCURVE",
"154 19 CURVE SMOOTH",
"187 45 OFFCURVE",
"219 87 OFFCURVE",
"238 116 CURVE SMOOTH",
"275 173 LINE",
"265 144 LINE SMOOTH",
"243 81 OFFCURVE",
"249 8 OFFCURVE",
"297 -4 CURVE SMOOTH",
"334 -14 OFFCURVE",
"364 6 OFFCURVE",
"385 27 CURVE SMOOTH",
"423 65 OFFCURVE",
"449 111 OFFCURVE",
"473 155 CURVE SMOOTH",
"479 166 OFFCURVE",
"471 175 OFFCURVE",
"465 165 CURVE SMOOTH",
"439 119 OFFCURVE",
"415 79 OFFCURVE",
"385 46 CURVE SMOOTH",
"370 29 OFFCURVE",
"349 11 OFFCURVE",
"327 11 CURVE",
"269 18 OFFCURVE",
"320 174 OFFCURVE",
"384 320 CURVE",
"423 364 OFFCURVE",
"451 390 OFFCURVE",
"504 440 CURVE SMOOTH",
"566 499 OFFCURVE",
"666 588 OFFCURVE",
"699 661 CURVE SMOOTH"
);
},
{
closed = 1;
nodes = (
"642 604 OFFCURVE",
"548 508 OFFCURVE",
"492 452 CURVE SMOOTH",
"453 412 OFFCURVE",
"431 389 OFFCURVE",
"400 355 CURVE",
"449 466 OFFCURVE",
"542 712 OFFCURVE",
"651 727 CURVE SMOOTH",
"686 732 OFFCURVE",
"695 707 OFFCURVE",
"673 664 CURVE SMOOTH"
);
},
{
closed = 1;
nodes = (
"310 270 OFFCURVE",
"277 201 OFFCURVE",
"264 181 CURVE SMOOTH",
"218 110 OFFCURVE",
"152 24 OFFCURVE",
"117 24 CURVE SMOOTH",
"92 24 OFFCURVE",
"93 68 OFFCURVE",
"101 98 CURVE SMOOTH",
"113 141 OFFCURVE",
"144 202 OFFCURVE",
"190 252 CURVE SMOOTH",
"228 294 OFFCURVE",
"279 321 OFFCURVE",
"329 310 CURVE"
);
}
);
width = 385;
}
);
note = d;
unicode = 0064;
},
{
glyphname = e;
layers = (
{
hints = (
{
horizontal = 1;
place = "{-11, 21}";
target = up;
type = BottomGhost;
}
);
layerId = "23C1765D-E8A9-427D-A2B9-D2B95394C525";
paths = (
{
closed = 1;
nodes = (
"345 147 OFFCURVE",
"340 162 OFFCURVE",
"335 153 CURVE SMOOTH",
"312 110 OFFCURVE",
"289 80 OFFCURVE",
"262 52 CURVE SMOOTH",
"241 31 OFFCURVE",
"215 14 OFFCURVE",
"187 10 CURVE SMOOTH",
"103 -1 OFFCURVE",
"109 104 OFFCURVE",
"131 161 CURVE",
"194 102 OFFCURVE",
"295 187 OFFCURVE",
"306 263 CURVE SMOOTH",
"309 283 OFFCURVE",
"306 303 OFFCURVE",
"292 316 CURVE SMOOTH",
"280 328 OFFCURVE",
"263 331 OFFCURVE",
"245 330 CURVE SMOOTH",
"168 324 OFFCURVE",
"114 250 OFFCURVE",
"87 184 CURVE SMOOTH",
"65 132 OFFCURVE",
"54 60 OFFCURVE",
"88 22 CURVE SMOOTH",
"103 4 OFFCURVE",
"128 -8 OFFCURVE",
"166 -8 CURVE SMOOTH",
"206 -9 OFFCURVE",
"236 7 OFFCURVE",
"262 32 CURVE SMOOTH",
"290 58 OFFCURVE",
"318 98 OFFCURVE",
"338 134 CURVE SMOOTH"
);
},
{
closed = 1;
nodes = (
"234 171 OFFCURVE",
"166 132 OFFCURVE",
"136 176 CURVE",
"144 200 OFFCURVE",
"156 222 OFFCURVE",
"166 238 CURVE SMOOTH",
"197 288 OFFCURVE",
"236 322 OFFCURVE",
"260 317 CURVE SMOOTH",
"297 310 OFFCURVE",
"281 246 OFFCURVE",
"264 219 CURVE SMOOTH"
);
}
);
width = 262;
}
);
note = e;
unicode = 0065;
},
{
glyphname = f;
layers = (
{
hints = (
{
horizontal = 1;
place = "{-16, 15}";
type = Stem;
}
);
layerId = "23C1765D-E8A9-427D-A2B9-D2B95394C525";
paths = (
{
closed = 1;
nodes = (
"555 684 OFFCURVE",
"549 709 OFFCURVE",
"535 718 CURVE SMOOTH",
"520 728 OFFCURVE",
"501 725 OFFCURVE",
"484 722 CURVE",
"311 667 OFFCURVE",
"142 315 OFFCURVE",
"71 148 CURVE SMOOTH",
"42 80 OFFCURVE",
"18 9 OFFCURVE",
"0 -54 CURVE SMOOTH",
"-16 -113 OFFCURVE",
"-29 -181 OFFCURVE",
"-32 -237 CURVE SMOOTH",
"-34 -292 OFFCURVE",
"-20 -342 OFFCURVE",
"31 -343 CURVE SMOOTH",
"58 -344 OFFCURVE",
"83 -326 OFFCURVE",
"105 -303 CURVE SMOOTH",
"144 -260 OFFCURVE",
"174 -190 OFFCURVE",
"190 -125 CURVE SMOOTH",
"201 -77 OFFCURVE",
"204 -31 OFFCURVE",
"199 0 CURVE",
"262 28 OFFCURVE",
"301 84 OFFCURVE",
"332 142 CURVE SMOOTH",
"338 153 OFFCURVE",
"335 175 OFFCURVE",
"326 157 CURVE SMOOTH",
"295 98 OFFCURVE",
"255 36 OFFCURVE",
"195 13 CURVE",
"195 14 LINE",
"188 38 OFFCURVE",
"169 58 OFFCURVE",
"140 58 CURVE SMOOTH",
"103 58 OFFCURVE",
"69 10 OFFCURVE",
"112 -20 CURVE",
"111 -14 OFFCURVE",
"115 -3 OFFCURVE",
"122 3 CURVE SMOOTH",
"132 10 OFFCURVE",
"149 14 OFFCURVE",
"161 0 CURVE",
"180 -28 OFFCURVE",
"170 -91 OFFCURVE",
"165 -116 CURVE SMOOTH",
"153 -176 OFFCURVE",
"128 -246 OFFCURVE",
"94 -289 CURVE SMOOTH",
"72 -317 OFFCURVE",
"56 -326 OFFCURVE",
"41 -324 CURVE SMOOTH",
"-24 -315 OFFCURVE",
"16 -158 OFFCURVE",
"30 -112 CURVE SMOOTH",
"47 -56 OFFCURVE",
"70 3 OFFCURVE",
"85 48 CURVE SMOOTH",
"94 74 OFFCURVE",
"138 177 OFFCURVE",
"197 295 CURVE",
"243 328 OFFCURVE",
"322 389 OFFCURVE",
"402 467 CURVE SMOOTH",
"467 531 OFFCURVE",
"519 594 OFFCURVE",
"540 647 CURVE SMOOTH"
);
},
{
closed = 1;
nodes = (
"500 594 OFFCURVE",
"437 527 OFFCURVE",
"409 498 CURVE SMOOTH",
"343 430 OFFCURVE",
"286 373 OFFCURVE",
"208 315 CURVE",
"280 455 OFFCURVE",
"370 610 OFFCURVE",
"449 684 CURVE SMOOTH",
"493 726 OFFCURVE",
"557 731 OFFCURVE",
"523 648 CURVE SMOOTH"
);
}
);
width = 251;
}
);
note = f;
unicode = 0066;
},
{
glyphname = g;
layers = (
{
hints = (
{
horizontal = 1;
place = "{398, -20}";
target = down;
type = TopGhost;
}
);
layerId = "23C1765D-E8A9-427D-A2B9-D2B95394C525";
paths = (
{
closed = 1;
nodes = (
"406 388 OFFCURVE",
"379 356 OFFCURVE",
"348 311 CURVE",
"345 308 LINE",
"297 337 OFFCURVE",
"216 325 OFFCURVE",
"174 294 CURVE SMOOTH",
"111 248 OFFCURVE",
"70 186 OFFCURVE",
"50 111 CURVE SMOOTH",
"27 23 OFFCURVE",
"74 -46 OFFCURVE",
"154 19 CURVE SMOOTH",
"187 45 OFFCURVE",
"218 89 OFFCURVE",
"238 116 CURVE SMOOTH",
"246 128 OFFCURVE",
"267 158 OFFCURVE",
"272 163 CURVE",
"246 105 OFFCURVE",
"215 3 OFFCURVE",
"184 -60 CURVE",
"94 -102 OFFCURVE",
"59 -110 OFFCURVE",
"-3 -152 CURVE SMOOTH",
"-79 -204 OFFCURVE",
"-65 -297 OFFCURVE",
"41 -273 CURVE SMOOTH",
"139 -251 OFFCURVE",
"189 -161 OFFCURVE",
"238 -48 CURVE",
"282 -28 OFFCURVE",
"318 -1 OFFCURVE",
"348 31 CURVE SMOOTH",
"382 66 OFFCURVE",
"409 107 OFFCURVE",
"433 150 CURVE SMOOTH",
"446 173 OFFCURVE",
"428 165 OFFCURVE",
"420 150 CURVE SMOOTH",
"379 75 OFFCURVE",
"318 8 OFFCURVE",
"245 -29 CURVE",
"285 71 OFFCURVE",
"357 300 OFFCURVE",
"449 398 CURVE"
);
},
{
closed = 1;
nodes = (
"310 258 OFFCURVE",
"289 225 OFFCURVE",
"269 194 CURVE SMOOTH",
"244 155 OFFCURVE",
"169 24 OFFCURVE",
"117 24 CURVE SMOOTH",
"92 24 OFFCURVE",
"93 68 OFFCURVE",
"101 98 CURVE SMOOTH",
"113 141 OFFCURVE",
"144 202 OFFCURVE",
"190 252 CURVE SMOOTH",
"231 298 OFFCURVE",
"289 326 OFFCURVE",
"340 300 CURVE"
);
},
{
closed = 1;
nodes = (
"146 -151 OFFCURVE",
"105 -230 OFFCURVE",
"35 -252 CURVE SMOOTH",
"-45 -277 OFFCURVE",
"-56 -211 OFFCURVE",
"4 -165 CURVE SMOOTH",
"61 -121 OFFCURVE",
"133 -101 OFFCURVE",
"175 -79 CURVE"
);
}
);
width = 348;
}
);
note = g;
unicode = 0067;
},
{
glyphname = h;
layers = (
{
hints = (
{
horizontal = 1;
place = "{0, -20}";
target = down;
type = TopGhost;
}
);
layerId = "23C1765D-E8A9-427D-A2B9-D2B95394C525";
paths = (
{
closed = 1;
nodes = (
"540 684 OFFCURVE",
"534 709 OFFCURVE",
"520 718 CURVE SMOOTH",
"505 728 OFFCURVE",
"486 725 OFFCURVE",
"470 722 CURVE",
"296 667 OFFCURVE",
"170 383 OFFCURVE",
"108 235 CURVE SMOOTH",
"63 126 OFFCURVE",
"28 45 OFFCURVE",
"16 0 CURVE",
"29 0 OFFCURVE",
"49 -9 OFFCURVE",
"65 26 CURVE SMOOTH",
"79 55 OFFCURVE",
"106 101 OFFCURVE",
"129 140 CURVE SMOOTH",
"153 182 OFFCURVE",
"180 222 OFFCURVE",
"206 251 CURVE SMOOTH",
"233 283 OFFCURVE",
"263 307 OFFCURVE",
"289 309 CURVE SMOOTH",
"306 311 OFFCURVE",
"322 293 OFFCURVE",
"306 261 CURVE SMOOTH",
"279 204 OFFCURVE",
"231 153 OFFCURVE",
"209 94 CURVE SMOOTH",
"196 59 OFFCURVE",
"198 8 OFFCURVE",
"243 -4 CURVE SMOOTH",
"280 -14 OFFCURVE",
"310 6 OFFCURVE",
"331 27 CURVE SMOOTH",
"369 65 OFFCURVE",
"395 111 OFFCURVE",
"419 155 CURVE SMOOTH",
"425 166 OFFCURVE",
"417 175 OFFCURVE",
"411 165 CURVE SMOOTH",
"385 119 OFFCURVE",
"361 79 OFFCURVE",
"331 46 CURVE SMOOTH",
"316 29 OFFCURVE",
"295 11 OFFCURVE",
"273 11 CURVE SMOOTH",
"261 11 OFFCURVE",
"251 20 OFFCURVE",
"254 40 CURVE SMOOTH",
"258 66 OFFCURVE",
"276 102 OFFCURVE",
"282 113 CURVE SMOOTH",
"302 151 OFFCURVE",
"328 194 OFFCURVE",
"346 235 CURVE SMOOTH",
"370 291 OFFCURVE",
"361 332 OFFCURVE",
"294 326 CURVE SMOOTH",
"265 323 OFFCURVE",
"233 300 OFFCURVE",
"203 269 CURVE SMOOTH",
"182 247 OFFCURVE",
"151 204 OFFCURVE",
"130 172 CURVE",
"135 190 OFFCURVE",
"153 235 OFFCURVE",
"180 292 CURVE",
"225 326 OFFCURVE",
"305 388 OFFCURVE",
"387 467 CURVE SMOOTH",
"452 531 OFFCURVE",
"504 594 OFFCURVE",
"525 647 CURVE SMOOTH"
);
},
{
closed = 1;
nodes = (
"485 594 OFFCURVE",
"422 527 OFFCURVE",
"394 498 CURVE SMOOTH",
"328 428 OFFCURVE",
"269 371 OFFCURVE",
"189 312 CURVE",
"246 432 OFFCURVE",
"337 593 OFFCURVE",
"434 684 CURVE SMOOTH",
"478 726 OFFCURVE",
"542 731 OFFCURVE",
"508 648 CURVE SMOOTH"
);
}
);
width = 331;
}
);
note = h;
unicode = 0068;
},
{
glyphname = i;
layers = (
{
hints = (
{
horizontal = 1;
place = "{-9, 21}";
target = up;
type = BottomGhost;
},
{
horizontal = 1;
place = "{385, 69}";
type = Stem;
},
{
place = "{122, 48}";
type = Stem;
}
);
layerId = "23C1765D-E8A9-427D-A2B9-D2B95394C525";
paths = (
{
closed = 1;
nodes = (
"287 439 OFFCURVE",
"275 454 OFFCURVE",
"256 454 CURVE SMOOTH",
"237 454 OFFCURVE",
"218 439 OFFCURVE",
"215 420 CURVE SMOOTH",
"212 401 OFFCURVE",
"224 385 OFFCURVE",
"243 385 CURVE SMOOTH",
"262 385 OFFCURVE",
"280 401 OFFCURVE",
"284 420 CURVE SMOOTH"
);
},
{
closed = 1;
nodes = (
"275 166 OFFCURVE",
"268 175 OFFCURVE",
"262 165 CURVE SMOOTH",
"236 119 OFFCURVE",
"212 79 OFFCURVE",
"182 46 CURVE SMOOTH",
"163 25 OFFCURVE",
"134 9 OFFCURVE",
"118 14 CURVE SMOOTH",
"48 34 OFFCURVE",
"190 311 OFFCURVE",
"233 325 CURVE",
"189 325 OFFCURVE",
"162 319 OFFCURVE",
"133 270 CURVE SMOOTH",
"98 209 OFFCURVE",
"-14 14 OFFCURVE",
"102 -6 CURVE SMOOTH",
"130 -11 OFFCURVE",
"161 6 OFFCURVE",
"182 27 CURVE SMOOTH",
"220 65 OFFCURVE",
"245 111 OFFCURVE",
"269 155 CURVE SMOOTH"
);
}
);
width = 182;
}
);
note = i;
unicode = 0069;
},
{
glyphname = j;
layers = (
{
hints = (
{
horizontal = 1;
place = "{385, 69}";
type = Stem;
}
);
layerId = "23C1765D-E8A9-427D-A2B9-D2B95394C525";
paths = (
{
closed = 1;
nodes = (
"273 439 OFFCURVE",
"261 454 OFFCURVE",
"241 454 CURVE SMOOTH",
"223 454 OFFCURVE",
"204 439 OFFCURVE",
"201 420 CURVE SMOOTH",
"197 401 OFFCURVE",
"209 385 OFFCURVE",
"229 385 CURVE SMOOTH",
"247 385 OFFCURVE",
"266 401 OFFCURVE",
"269 420 CURVE SMOOTH"
);
},
{
closed = 1;
nodes = (
"271 164 OFFCURVE",
"263 175 OFFCURVE",
"258 165 CURVE SMOOTH",
"232 119 OFFCURVE",
"208 78 OFFCURVE",
"178 46 CURVE SMOOTH",
"136 -1 OFFCURVE",
"82 -30 OFFCURVE",
"47 -46 CURVE",
"93 67 OFFCURVE",
"166 276 OFFCURVE",
"215 321 CURVE",
"133 327 OFFCURVE",
"119 260 OFFCURVE",
"92 199 CURVE SMOOTH",
"65 137 OFFCURVE",
"37 51 OFFCURVE",
"14 -9 CURVE",
"5 -27 OFFCURVE",
"-3 -48 OFFCURVE",
"-12 -69 CURVE",
"-102 -111 OFFCURVE",
"-136 -120 OFFCURVE",
"-198 -162 CURVE SMOOTH",
"-274 -214 OFFCURVE",
"-260 -306 OFFCURVE",
"-155 -282 CURVE SMOOTH",
"-57 -260 OFFCURVE",
"-12 -179 OFFCURVE",
"37 -66 CURVE",
"79 -51 OFFCURVE",
"131 -19 OFFCURVE",
"178 27 CURVE SMOOTH",
"216 65 OFFCURVE",
"241 109 OFFCURVE",
"265 153 CURVE SMOOTH"
);
},
{
closed = 1;
nodes = (
"-49 -161 OFFCURVE",
"-90 -240 OFFCURVE",
"-161 -262 CURVE SMOOTH",
"-241 -286 OFFCURVE",
"-252 -221 OFFCURVE",
"-191 -174 CURVE SMOOTH",
"-134 -131 OFFCURVE",
"-63 -111 OFFCURVE",
"-20 -88 CURVE"
);
}
);
width = 178;
}
);
note = j;
unicode = 006A;
},
{
glyphname = k;
layers = (
{
hints = (
{
horizontal = 1;
place = "{-9, 18}";
type = Stem;
},
{
place = "{181, 49}";
type = Stem;
},
{
horizontal = 1;
place = "{0, -20}";
target = down;
type = TopGhost;
}
);
layerId = "23C1765D-E8A9-427D-A2B9-D2B95394C525";
paths = (
{
closed = 1;
nodes = (
"533 684 OFFCURVE",
"528 708 OFFCURVE",
"513 718 CURVE SMOOTH",
"499 727 OFFCURVE",
"479 725 OFFCURVE",
"463 722 CURVE",
"269 653 OFFCURVE",
"150 339 OFFCURVE",
"63 125 CURVE SMOOTH",
"51 97 OFFCURVE",
"27 27 OFFCURVE",
"17 0 CURVE",
"31 0 OFFCURVE",
"66 -9 OFFCURVE",
"76 27 CURVE SMOOTH",
"83 52 OFFCURVE",
"108 101 OFFCURVE",
"127 133 CURVE SMOOTH",
"170 205 OFFCURVE",
"235 286 OFFCURVE",
"299 306 CURVE SMOOTH",
"318 312 OFFCURVE",
"344 314 OFFCURVE",
"348 289 CURVE SMOOTH",
"352 266 OFFCURVE",
"335 241 OFFCURVE",
"316 228 CURVE SMOOTH",
"284 205 OFFCURVE",
"238 207 OFFCURVE",
"237 229 CURVE SMOOTH",
"237 232 OFFCURVE",
"238 235 OFFCURVE",
"239 237 CURVE",
"241 246 OFFCURVE",
"219 236 OFFCURVE",
"207 221 CURVE SMOOTH",
"185 193 OFFCURVE",
"180 149 OFFCURVE",
"181 114 CURVE SMOOTH",
"183 58 OFFCURVE",
"202 -10 OFFCURVE",
"271 -9 CURVE SMOOTH",
"299 -9 OFFCURVE",
"324 8 OFFCURVE",
"341 25 CURVE SMOOTH",
"379 63 OFFCURVE",
"405 110 OFFCURVE",
"426 150 CURVE SMOOTH",
"432 161 OFFCURVE",
"427 178 OFFCURVE",
"422 168 CURVE SMOOTH",
"389 106 OFFCURVE",
"371 79 OFFCURVE",
"341 46 CURVE SMOOTH",
"326 29 OFFCURVE",
"303 9 OFFCURVE",
"281 9 CURVE SMOOTH",
"244 10 OFFCURVE",
"233 64 OFFCURVE",
"230 97 CURVE SMOOTH",
"226 136 OFFCURVE",
"229 181 OFFCURVE",
"234 211 CURVE",
"242 206 LINE SMOOTH",
"272 187 OFFCURVE",
"324 200 OFFCURVE",
"357 224 CURVE SMOOTH",
"380 241 OFFCURVE",
"401 284 OFFCURVE",
"386 311 CURVE SMOOTH",
"376 328 OFFCURVE",
"354 332 OFFCURVE",
"326 328 CURVE SMOOTH",
"297 324 OFFCURVE",
"265 309 OFFCURVE",
"232 284 CURVE SMOOTH",
"194 256 OFFCURVE",
"157 211 OFFCURVE",
"128 168 CURVE",
"134 187 OFFCURVE",
"154 237 OFFCURVE",
"182 299 CURVE",
"229 333 OFFCURVE",
"304 393 OFFCURVE",
"381 467 CURVE SMOOTH",
"446 531 OFFCURVE",
"497 594 OFFCURVE",
"518 647 CURVE SMOOTH"
);
},
{
closed = 1;
nodes = (
"479 594 OFFCURVE",
"416 527 OFFCURVE",
"388 498 CURVE SMOOTH",
"324 431 OFFCURVE",
"267 376 OFFCURVE",
"191 319 CURVE",
"246 438 OFFCURVE",
"333 596 OFFCURVE",
"428 684 CURVE SMOOTH",
"472 726 OFFCURVE",
"535 731 OFFCURVE",
"501 648 CURVE SMOOTH"
);
}
);
width = 341;
}
);
note = k;
unicode = 006B;
},
{
glyphname = l;
layers = (
{
hints = (
{
horizontal = 1;
place = "{-6, 731}";
type = Stem;
},
{
place = "{61, 476}";
type = Stem;
}
);
layerId = "23C1765D-E8A9-427D-A2B9-D2B95394C525";
paths = (
{
closed = 1;
nodes = (
"535 724 OFFCURVE",
"504 730 OFFCURVE",
"477 722 CURVE SMOOTH",
"343 681 OFFCURVE",
"202 446 OFFCURVE",
"143 320 CURVE SMOOTH",
"123 279 OFFCURVE",
"-6 21 OFFCURVE",
"106 -4 CURVE SMOOTH",
"144 -13 OFFCURVE",
"173 6 OFFCURVE",
"195 27 CURVE SMOOTH",
"233 65 OFFCURVE",
"248 92 OFFCURVE",
"274 139 CURVE SMOOTH",
"280 150 OFFCURVE",
"280 176 OFFCURVE",
"270 157 CURVE SMOOTH",
"247 113 OFFCURVE",
"224 79 OFFCURVE",
"195 46 CURVE SMOOTH",
"179 29 OFFCURVE",
"159 11 OFFCURVE",
"137 11 CURVE SMOOTH",
"69 11 OFFCURVE",
"114 139 OFFCURVE",
"125 169 CURVE SMOOTH",
"133 191 OFFCURVE",
"143 216 OFFCURVE",
"155 241 CURVE",
"268 332 OFFCURVE",
"487 526 OFFCURVE",
"529 643 CURVE SMOOTH",
"535 660 OFFCURVE",
"538 676 OFFCURVE",
"537 688 CURVE SMOOTH"
);
},
{
closed = 1;
nodes = (
"474 549 OFFCURVE",
"271 354 OFFCURVE",
"166 264 CURVE",
"241 421 OFFCURVE",
"365 610 OFFCURVE",
"431 674 CURVE SMOOTH",
"473 716 OFFCURVE",
"543 732 OFFCURVE",
"509 642 CURVE SMOOTH"
);
}
);
width = 195;
}
);
note = l;
unicode = 006C;
},
{
glyphname = m;
layers = (
{
hints = (
{
place = "{122, 48}";
type = Stem;
}
);
layerId = "23C1765D-E8A9-427D-A2B9-D2B95394C525";
paths = (
{
closed = 1;
nodes = (
"608 163 OFFCURVE",
"602 176 OFFCURVE",
"596 166 CURVE SMOOTH",
"571 120 OFFCURVE",
"545 79 OFFCURVE",
"515 46 CURVE SMOOTH",
"500 29 OFFCURVE",
"478 10 OFFCURVE",
"456 10 CURVE SMOOTH",
"428 10 OFFCURVE",
"430 46 OFFCURVE",
"438 67 CURVE SMOOTH",
"445 87 OFFCURVE",
"456 105 OFFCURVE",
"460 113 CURVE SMOOTH",
"486 163 OFFCURVE",
"535 234 OFFCURVE",
"535 278 CURVE SMOOTH",
"535 307 OFFCURVE",
"516 326 OFFCURVE",
"477 326 CURVE SMOOTH",
"429 326 OFFCURVE",
"381 287 OFFCURVE",
"330 218 CURVE",
"337 235 LINE SMOOTH",
"345 254 OFFCURVE",
"349 269 OFFCURVE",
"349 284 CURVE SMOOTH",
"349 310 OFFCURVE",
"334 326 OFFCURVE",
"298 326 CURVE SMOOTH",
"244 326 OFFCURVE",
"189 271 OFFCURVE",
"139 203 CURVE",
"149 227 OFFCURVE",
"159 265 OFFCURVE",
"159 299 CURVE SMOOTH",
"159 317 OFFCURVE",
"152 364 OFFCURVE",
"132 364 CURVE SMOOTH",
"131 364 OFFCURVE",
"130 363 OFFCURVE",
"130 361 CURVE SMOOTH",
"130 358 OFFCURVE",
"131 356 OFFCURVE",
"131 351 CURVE SMOOTH",
"131 265 OFFCURVE",
"58 106 OFFCURVE",
"4 0 CURVE",
"7 0 LINE SMOOTH",
"12 0 OFFCURVE",
"18 -1 OFFCURVE",
"24 -1 CURVE SMOOTH",
"41 -1 OFFCURVE",
"62 4 OFFCURVE",
"75 35 CURVE SMOOTH",
"111 123 OFFCURVE",
"203 309 OFFCURVE",
"283 309 CURVE SMOOTH",
"295 309 OFFCURVE",
"302 301 OFFCURVE",
"302 286 CURVE SMOOTH",
"302 279 OFFCURVE",
"301 271 OFFCURVE",
"297 261 CURVE SMOOTH",
"237 114 OFFCURVE",
"214 90 OFFCURVE",
"214 47 CURVE SMOOTH",
"214 33 OFFCURVE",
"220 21 OFFCURVE",
"241 16 CURVE",
"278 127 OFFCURVE",
"385 309 OFFCURVE",
"471 309 CURVE SMOOTH",
"485 309 OFFCURVE",
"490 299 OFFCURVE",
"490 288 CURVE SMOOTH",
"490 279 OFFCURVE",
"488 269 OFFCURVE",
"484 261 CURVE SMOOTH",
"456 203 OFFCURVE",
"405 147 OFFCURVE",
"389 87 CURVE SMOOTH",
"376 37 OFFCURVE",
"397 -6 OFFCURVE",
"447 -6 CURVE SMOOTH",
"475 -6 OFFCURVE",
"498 10 OFFCURVE",
"515 27 CURVE SMOOTH",
"554 65 OFFCURVE",
"578 108 OFFCURVE",
"602 152 CURVE SMOOTH"
);
}
);
width = 515;
}
);
note = m;
unicode = 006D;
},
{
glyphname = n;
layers = (
{
hints = (
{
horizontal = 1;
place = "{309, 21}";
type = Stem;
}
);
layerId = "23C1765D-E8A9-427D-A2B9-D2B95394C525";
paths = (
{
closed = 1;
nodes = (
"419 163 OFFCURVE",
"413 176 OFFCURVE",
"407 166 CURVE SMOOTH",
"382 120 OFFCURVE",
"356 79 OFFCURVE",
"326 46 CURVE SMOOTH",
"311 29 OFFCURVE",
"289 10 OFFCURVE",
"267 10 CURVE SMOOTH",
"239 10 OFFCURVE",
"243 46 OFFCURVE",
"251 67 CURVE SMOOTH",
"258 87 OFFCURVE",
"268 105 OFFCURVE",
"272 113 CURVE SMOOTH",
"292 151 OFFCURVE",
"320 194 OFFCURVE",
"337 235 CURVE SMOOTH",
"361 291 OFFCURVE",
"351 332 OFFCURVE",
"285 326 CURVE SMOOTH",
"257 323 OFFCURVE",
"228 303 OFFCURVE",
"200 275 CURVE SMOOTH",
"176 252 OFFCURVE",
"156 227 OFFCURVE",
"139 203 CURVE",
"156 245 OFFCURVE",
"170 314 OFFCURVE",
"133 333 CURVE SMOOTH",
"129 335 OFFCURVE",
"124 334 OFFCURVE",
"125 327 CURVE SMOOTH",
"126 316 OFFCURVE",
"117 275 OFFCURVE",
"105 238 CURVE SMOOTH",
"80 156 OFFCURVE",
"41 73 OFFCURVE",
"4 0 CURVE",
"18 2 OFFCURVE",
"55 -12 OFFCURVE",
"75 35 CURVE SMOOTH",
"91 73 OFFCURVE",
"112 121 OFFCURVE",
"139 167 CURVE SMOOTH",
"155 195 OFFCURVE",
"184 234 OFFCURVE",
"204 258 CURVE SMOOTH",
"237 296 OFFCURVE",
"263 308 OFFCURVE",
"281 308 CURVE SMOOTH",
"298 308 OFFCURVE",
"312 293 OFFCURVE",
"296 261 CURVE SMOOTH",
"269 204 OFFCURVE",
"220 146 OFFCURVE",
"201 87 CURVE SMOOTH",
"185 38 OFFCURVE",
"208 -6 OFFCURVE",
"258 -6 CURVE SMOOTH",
"286 -6 OFFCURVE",
"309 10 OFFCURVE",
"326 27 CURVE SMOOTH",
"365 65 OFFCURVE",
"389 108 OFFCURVE",
"413 152 CURVE SMOOTH"
);
}
);
width = 326;
}
);
note = n;
unicode = 006E;
},
{
glyphname = o;
layers = (
{
hints = (
{
horizontal = 1;
place = "{238, 15}";
type = Stem;
},
{
horizontal = 1;
place = "{330, -20}";
target = down;
type = TopGhost;
},
{
place = "{488, 47}";
type = Stem;
}
);
layerId = "23C1765D-E8A9-427D-A2B9-D2B95394C525";
paths = (
{
closed = 1;
nodes = (
"362 267 OFFCURVE",
"343 330 OFFCURVE",
"259 330 CURVE SMOOTH",
"185 330 OFFCURVE",
"134 273 OFFCURVE",
"99 208 CURVE SMOOTH",
"87 185 OFFCURVE",
"74 156 OFFCURVE",
"68 127 CURVE SMOOTH",
"36 -15 OFFCURVE",
"146 -48 OFFCURVE",
"229 2 CURVE SMOOTH",
"262 21 OFFCURVE",
"290 55 OFFCURVE",
"310 88 CURVE",
"325 68 OFFCURVE",
"353 60 OFFCURVE",
"380 66 CURVE SMOOTH",
"422 76 OFFCURVE",
"444 112 OFFCURVE",
"462 148 CURVE SMOOTH",
"475 174 OFFCURVE",
"463 176 OFFCURVE",
"454 159 CURVE SMOOTH",
"437 128 OFFCURVE",
"415 87 OFFCURVE",
"378 79 CURVE SMOOTH",
"352 72 OFFCURVE",
"330 83 OFFCURVE",
"318 100 CURVE",
"318 101 LINE",
"335 131 OFFCURVE",
"346 163 OFFCURVE",
"351 195 CURVE SMOOTH"
);
},
{
closed = 1;
nodes = (
"329 243 OFFCURVE",
"291 241 OFFCURVE",
"280 198 CURVE SMOOTH",
"272 167 OFFCURVE",
"275 130 OFFCURVE",
"300 101 CURVE",
"288 80 OFFCURVE",
"273 59 OFFCURVE",
"254 40 CURVE SMOOTH",
"224 10 OFFCURVE",
"189 -8 OFFCURVE",
"159 -8 CURVE SMOOTH",
"114 -9 OFFCURVE",
"86 53 OFFCURVE",
"143 175 CURVE SMOOTH",
"162 216 OFFCURVE",
"223 310 OFFCURVE",
"277 311 CURVE SMOOTH",
"309 311 OFFCURVE",
"327 293 OFFCURVE",
"334 266 CURVE SMOOTH",
"337 256 OFFCURVE",
"340 221 OFFCURVE",
"335 198 CURVE"
);
}
);
width = 378;
}
);
note = o;
unicode = 006F;
},
{
glyphname = p;
layers = (
{
hints = (
{
horizontal = 1;
place = "{-346, 16}";
type = Stem;
},
{
horizontal = 1;
place = "{25, 15}";
type = Stem;
},
{
horizontal = 1;
place = "{308, 16}";
type = Stem;
},
{
place = "{-404, 12}";
type = Stem;
},
{
place = "{66, 12}";
type = Stem;
},
{
place = "{276, 46}";
type = Stem;
}
);
layerId = "23C1765D-E8A9-427D-A2B9-D2B95394C525";
paths = (
{
closed = 1;
nodes = (
"397 147 OFFCURVE",
"396 170 OFFCURVE",
"391 160 CURVE SMOOTH",
"370 122 OFFCURVE",
"345 86 OFFCURVE",
"314 61 CURVE SMOOTH",
"287 39 OFFCURVE",
"233 25 OFFCURVE",
"224 66 CURVE",
"248 91 OFFCURVE",
"267 116 OFFCURVE",
"277 134 CURVE SMOOTH",
"309 188 OFFCURVE",
"365 324 OFFCURVE",
"266 324 CURVE SMOOTH",
"239 324 OFFCURVE",
"206 307 OFFCURVE",
"167 263 CURVE",
"199 336 OFFCURVE",
"243 392 OFFCURVE",
"254 408 CURVE SMOOTH",
"280 444 OFFCURVE",
"299 452 OFFCURVE",
"312 453 CURVE SMOOTH",
"317 453 OFFCURVE",
"316 456 OFFCURVE",
"314 457 CURVE SMOOTH",
"294 464 OFFCURVE",
"269 455 OFFCURVE",
"251 441 CURVE SMOOTH",
"165 378 OFFCURVE",
"94 219 OFFCURVE",
"54 116 CURVE SMOOTH",
"18 25 OFFCURVE",
"-42 -129 OFFCURVE",
"-101 -213 CURVE SMOOTH",
"-132 -258 OFFCURVE",
"-174 -302 OFFCURVE",
"-229 -321 CURVE SMOOTH",
"-307 -348 OFFCURVE",
"-392 -312 OFFCURVE",
"-392 -229 CURVE SMOOTH",
"-392 -224 OFFCURVE",
"-394 -220 OFFCURVE",
"-398 -229 CURVE",
"-431 -331 OFFCURVE",
"-310 -366 OFFCURVE",
"-226 -335 CURVE SMOOTH",
"-78 -281 OFFCURVE",
"25 -88 OFFCURVE",
"66 28 CURVE",
"72 8 OFFCURVE",
"89 -2 OFFCURVE",
"123 2 CURVE SMOOTH",
"156 5 OFFCURVE",
"189 31 OFFCURVE",
"212 53 CURVE",
"224 13 OFFCURVE",
"280 21 OFFCURVE",
"314 44 CURVE SMOOTH",
"349 68 OFFCURVE",
"370 99 OFFCURVE",
"393 139 CURVE SMOOTH"
);
},
{
closed = 1;
nodes = (
"309 308 OFFCURVE",
"250 184 OFFCURVE",
"234 156 CURVE SMOOTH",
"204 101 OFFCURVE",
"142 3 OFFCURVE",
"93 18 CURVE SMOOTH",
"45 32 OFFCURVE",
"122 167 OFFCURVE",
"137 191 CURVE SMOOTH",
"171 245 OFFCURVE",
"220 308 OFFCURVE",
"252 308 CURVE SMOOTH"
);
}
);
width = 314;
}
);
note = p;
unicode = 0070;
},
{
glyphname = q;
layers = (
{
hints = (
{
horizontal = 1;
place = "{-349, 18}";
type = Stem;
},
{
horizontal = 1;
place = "{-6, 30}";
type = Stem;
},
{
horizontal = 1;
place = "{313, 15}";
type = Stem;
},
{
place = "{46, 53}";
type = Stem;
},
{
place = "{241, 11}";
type = Stem;
},
{
place = "{316, 29}";
type = Stem;
},
{
horizontal = 1;
place = "{-13, 33}";
type = Stem;
},
{
place = "{101, 38}";
type = Stem;
}
);
layerId = "23C1765D-E8A9-427D-A2B9-D2B95394C525";
paths = (
{
closed = 1;
nodes = (
"454 166 OFFCURVE",
"446 175 OFFCURVE",
"440 165 CURVE SMOOTH",
"415 119 OFFCURVE",
"390 79 OFFCURVE",
"360 46 CURVE SMOOTH",
"349 33 OFFCURVE",
"335 20 OFFCURVE",
"320 14 CURVE",
"314 18 OFFCURVE",
"305 20 OFFCURVE",
"296 20 CURVE SMOOTH",
"249 19 OFFCURVE",
"226 -32 OFFCURVE",
"252 -42 CURVE",
"256 -29 OFFCURVE",
"267 -15 OFFCURVE",
"281 -13 CURVE SMOOTH",
"337 -7 OFFCURVE",
"311 -111 OFFCURVE",
"303 -138 CURVE SMOOTH",
"292 -179 OFFCURVE",
"258 -269 OFFCURVE",
"220 -309 CURVE SMOOTH",
"190 -342 OFFCURVE",
"146 -338 OFFCURVE",
"139 -298 CURVE SMOOTH",
"128 -230 OFFCURVE",
"199 -65 OFFCURVE",
"246 37 CURVE SMOOTH",
"291 133 OFFCURVE",
"334 213 OFFCURVE",
"394 290 CURVE",
"372 284 OFFCURVE",
"328 283 OFFCURVE",
"310 263 CURVE SMOOTH",
"300 252 OFFCURVE",
"247 155 OFFCURVE",
"231 130 CURVE SMOOTH",
"198 80 OFFCURVE",
"154 24 OFFCURVE",
"120 24 CURVE SMOOTH",
"94 24 OFFCURVE",
"95 68 OFFCURVE",
"104 98 CURVE SMOOTH",
"125 174 OFFCURVE",
"183 268 OFFCURVE",
"260 302 CURVE SMOOTH",
"292 316 OFFCURVE",
"326 318 OFFCURVE",
"360 300 CURVE",
"368 304 LINE",
"337 330 OFFCURVE",
"288 333 OFFCURVE",
"245 323 CURVE SMOOTH",
"162 303 OFFCURVE",
"101 232 OFFCURVE",
"65 153 CURVE SMOOTH",
"52 125 OFFCURVE",
"31 52 OFFCURVE",
"63 11 CURVE SMOOTH",
"82 -12 OFFCURVE",
"115 -13 OFFCURVE",
"156 19 CURVE SMOOTH",
"189 46 OFFCURVE",
"221 88 OFFCURVE",
"241 116 CURVE",
"191 20 OFFCURVE",
"61 -227 OFFCURVE",
"113 -319 CURVE SMOOTH",
"137 -362 OFFCURVE",
"197 -354 OFFCURVE",
"230 -321 CURVE SMOOTH",
"287 -264 OFFCURVE",
"310 -202 OFFCURVE",
"325 -156 CURVE SMOOTH",
"349 -84 OFFCURVE",
"352 -24 OFFCURVE",
"331 4 CURVE",
"342 10 OFFCURVE",
"352 19 OFFCURVE",
"360 27 CURVE SMOOTH",
"399 65 OFFCURVE",
"424 111 OFFCURVE",
"448 155 CURVE SMOOTH"
);
}
);
width = 360;
}
);
note = q;
unicode = 0071;
},
{
glyphname = r;
layers = (
{
hints = (
{
horizontal = 1;
place = "{-4, 19}";
type = Stem;
},
{
horizontal = 1;
place = "{238, 15}";
type = Stem;
}
);
layerId = "23C1765D-E8A9-427D-A2B9-D2B95394C525";
paths = (
{
closed = 1;
nodes = (
"367 161 OFFCURVE",
"362 176 OFFCURVE",
"356 166 CURVE SMOOTH",
"338 133 OFFCURVE",
"305 70 OFFCURVE",
"268 37 CURVE SMOOTH",
"194 -29 OFFCURVE",
"166 36 OFFCURVE",
"236 144 CURVE SMOOTH",
"254 172 OFFCURVE",
"268 194 OFFCURVE",
"286 226 CURVE SMOOTH",
"303 255 OFFCURVE",
"333 320 OFFCURVE",
"270 316 CURVE SMOOTH",
"235 314 OFFCURVE",
"170 309 OFFCURVE",
"148 317 CURVE",
"150 329 OFFCURVE",
"153 358 OFFCURVE",
"146 378 CURVE SMOOTH",
"128 433 OFFCURVE",
"88 393 OFFCURVE",
"100 344 CURVE SMOOTH",
"105 325 OFFCURVE",
"117 307 OFFCURVE",
"131 299 CURVE",
"121 242 OFFCURVE",
"92 190 OFFCURVE",
"64 136 CURVE SMOOTH",
"59 127 OFFCURVE",
"61 109 OFFCURVE",
"71 125 CURVE SMOOTH",
"101 175 OFFCURVE",
"138 249 OFFCURVE",
"147 299 CURVE",
"162 296 OFFCURVE",
"205 300 OFFCURVE",
"233 296 CURVE SMOOTH",
"270 291 OFFCURVE",
"260 256 OFFCURVE",
"243 232 CURVE SMOOTH",
"211 187 OFFCURVE",
"171 144 OFFCURVE",
"154 96 CURVE SMOOTH",
"123 7 OFFCURVE",
"194 -44 OFFCURVE",
"268 18 CURVE SMOOTH",
"311 54 OFFCURVE",
"338 108 OFFCURVE",
"361 150 CURVE SMOOTH"
);
}
);
width = 276;
}
);
note = r;
unicode = 0072;
},
{
glyphname = s;
layers = (
{
hints = (
{
horizontal = 1;
place = "{-7, 13}";
type = Stem;
},
{
place = "{27, 25}";
type = Stem;
},
{
place = "{199, 24}";
type = Stem;
},
{
horizontal = 1;
place = "{1, 21}";
target = up;
type = BottomGhost;
}
);
layerId = "23C1765D-E8A9-427D-A2B9-D2B95394C525";
paths = (
{
closed = 1;
nodes = (
"356 155 OFFCURVE",
"347 164 OFFCURVE",
"342 155 CURVE SMOOTH",
"322 118 OFFCURVE",
"300 82 OFFCURVE",
"268 52 CURVE SMOOTH",
"242 26 OFFCURVE",
"204 10 OFFCURVE",
"181 17 CURVE",
"195 27 LINE",
"233 61 OFFCURVE",
"251 115 OFFCURVE",
"249 165 CURVE SMOOTH",
"248 206 OFFCURVE",
"207 293 OFFCURVE",
"230 326 CURVE",
"254 326 OFFCURVE",
"265 330 OFFCURVE",
"272 331 CURVE",
"308 343 OFFCURVE",
"304 386 OFFCURVE",
"265 379 CURVE SMOOTH",
"236 374 OFFCURVE",
"197 337 OFFCURVE",
"188 327 CURVE",
"145 287 OFFCURVE",
"91 195 OFFCURVE",
"74 155 CURVE",
"58 152 OFFCURVE",
"44 133 OFFCURVE",
"34 110 CURVE SMOOTH",
"25 88 OFFCURVE",
"23 54 OFFCURVE",
"34 30 CURVE SMOOTH",
"50 -3 OFFCURVE",
"82 -11 OFFCURVE",
"116 -7 CURVE SMOOTH",
"135 -4 OFFCURVE",
"153 1 OFFCURVE",
"168 9 CURVE",
"173 5 OFFCURVE",
"179 2 OFFCURVE",
"190 1 CURVE SMOOTH",
"208 -1 OFFCURVE",
"242 8 OFFCURVE",
"268 32 CURVE SMOOTH",
"298 60 OFFCURVE",
"329 105 OFFCURVE",
"349 142 CURVE SMOOTH"
);
},
{
closed = 1;
nodes = (
"209 320 OFFCURVE",
"200 294 OFFCURVE",
"199 269 CURVE SMOOTH",
"197 239 OFFCURVE",
"203 163 OFFCURVE",
"188 101 CURVE SMOOTH",
"180 67 OFFCURVE",
"166 36 OFFCURVE",
"139 18 CURVE SMOOTH",
"105 -4 OFFCURVE",
"51 2 OFFCURVE",
"52 53 CURVE SMOOTH",
"52 77 OFFCURVE",
"65 105 OFFCURVE",
"83 119 CURVE SMOOTH",
"94 128 OFFCURVE",
"108 133 OFFCURVE",
"122 128 CURVE",
"126 135 OFFCURVE",
"117 156 OFFCURVE",
"92 155 CURVE",
"112 200 OFFCURVE",
"177 311 OFFCURVE",
"216 326 CURVE"
);
}
);
width = 268;
}
);
note = s;
unicode = 0073;
},
{
glyphname = t;
layers = (
{
hints = (
{
horizontal = 1;
place = "{-6, 14}";
type = Stem;
},
{
horizontal = 1;
place = "{305, 16}";
type = Stem;
},
{
place = "{50, 45}";
type = Stem;
}
);
layerId = "23C1765D-E8A9-427D-A2B9-D2B95394C525";
paths = (
{
closed = 1;
nodes = (
"280 445 OFFCURVE",
"253 434 OFFCURVE",
"238 416 CURVE SMOOTH",
"218 394 OFFCURVE",
"197 360 OFFCURVE",
"176 342 CURVE SMOOTH",
"162 330 OFFCURVE",
"147 323 OFFCURVE",
"110 323 CURVE SMOOTH",
"102 323 OFFCURVE",
"96 306 OFFCURVE",
"103 305 CURVE",
"150 305 LINE",
"129 269 OFFCURVE",
"109 228 OFFCURVE",
"99 207 CURVE SMOOTH",
"78 162 OFFCURVE",
"48 97 OFFCURVE",
"50 51 CURVE SMOOTH",
"53 5 OFFCURVE",
"89 -10 OFFCURVE",
"125 -6 CURVE SMOOTH",
"150 -3 OFFCURVE",
"176 11 OFFCURVE",
"192 27 CURVE SMOOTH",
"230 65 OFFCURVE",
"256 111 OFFCURVE",
"280 155 CURVE SMOOTH",
"286 166 OFFCURVE",
"278 175 OFFCURVE",
"272 165 CURVE SMOOTH",
"246 119 OFFCURVE",
"222 79 OFFCURVE",
"192 46 CURVE SMOOTH",
"177 29 OFFCURVE",
"147 8 OFFCURVE",
"124 8 CURVE SMOOTH",
"67 8 OFFCURVE",
"110 110 OFFCURVE",
"118 129 CURVE SMOOTH",
"143 190 OFFCURVE",
"180 263 OFFCURVE",
"204 305 CURVE",
"269 305 LINE SMOOTH",
"276 305 OFFCURVE",
"287 321 OFFCURVE",
"279 321 CURVE SMOOTH",
"213 321 LINE",
"221 337 OFFCURVE",
"274 424 OFFCURVE",
"287 442 CURVE"
);
}
);
width = 192;
}
);
note = t;
unicode = 0074;
},
{
glyphname = u;
layers = (
{
hints = (
{
horizontal = 1;
place = "{-3, 27}";
type = Stem;
},
{
horizontal = 1;
place = "{-10, 21}";
target = up;
type = BottomGhost;
},
{
horizontal = 1;
place = "{331, -20}";
target = down;
type = TopGhost;
}
);
layerId = "23C1765D-E8A9-427D-A2B9-D2B95394C525";
paths = (
{
closed = 1;
nodes = (
"453 166 OFFCURVE",
"446 175 OFFCURVE",
"440 165 CURVE SMOOTH",
"414 119 OFFCURVE",
"390 79 OFFCURVE",
"360 46 CURVE SMOOTH",
"341 25 OFFCURVE",
"312 9 OFFCURVE",
"296 14 CURVE SMOOTH",
"226 34 OFFCURVE",
"368 311 OFFCURVE",
"411 325 CURVE",
"367 325 OFFCURVE",
"340 319 OFFCURVE",
"311 270 CURVE SMOOTH",
"266 193 OFFCURVE",
"237 111 OFFCURVE",
"178 46 CURVE SMOOTH",
"159 24 OFFCURVE",
"130 9 OFFCURVE",
"114 14 CURVE SMOOTH",
"44 34 OFFCURVE",
"178 299 OFFCURVE",
"221 313 CURVE",
"177 313 OFFCURVE",
"150 307 OFFCURVE",
"121 258 CURVE SMOOTH",
"86 197 OFFCURVE",
"-12 6 OFFCURVE",
"98 -6 CURVE SMOOTH",
"126 -9 OFFCURVE",
"157 6 OFFCURVE",
"178 27 CURVE SMOOTH",
"200 49 OFFCURVE",
"218 75 OFFCURVE",
"234 101 CURVE",
"221 48 OFFCURVE",
"227 3 OFFCURVE",
"280 -6 CURVE SMOOTH",
"308 -11 OFFCURVE",
"339 6 OFFCURVE",
"360 27 CURVE SMOOTH",
"398 65 OFFCURVE",
"423 111 OFFCURVE",
"447 155 CURVE SMOOTH"
);
}
);
width = 360;
}
);
note = u;
unicode = 0075;
},
{
glyphname = v;
layers = (
{
hints = (
{
horizontal = 1;
place = "{-7, 21}";
type = Stem;
}
);
layerId = "23C1765D-E8A9-427D-A2B9-D2B95394C525";
paths = (
{
closed = 1;
nodes = (
"424 201 OFFCURVE",
"409 199 OFFCURVE",
"401 182 CURVE SMOOTH",
"382 143 OFFCURVE",
"355 102 OFFCURVE",
"323 101 CURVE SMOOTH",
"302 100 OFFCURVE",
"286 122 OFFCURVE",
"288 162 CURVE",
"314 217 OFFCURVE",
"332 276 OFFCURVE",
"332 318 CURVE SMOOTH",
"332 339 OFFCURVE",
"324 353 OFFCURVE",
"309 351 CURVE",
"290 351 OFFCURVE",
"278 320 OFFCURVE",
"274 306 CURVE SMOOTH",
"260 251 OFFCURVE",
"268 195 OFFCURVE",
"271 175 CURVE",
"251 122 OFFCURVE",
"196 19 OFFCURVE",
"129 14 CURVE SMOOTH",
"88 11 OFFCURVE",
"84 45 OFFCURVE",
"92 79 CURVE SMOOTH",
"99 108 OFFCURVE",
"115 142 OFFCURVE",
"130 173 CURVE SMOOTH",
"147 210 OFFCURVE",
"169 248 OFFCURVE",
"169 287 CURVE SMOOTH",
"169 328 OFFCURVE",
"130 343 OFFCURVE",
"95 326 CURVE SMOOTH",
"83 320 OFFCURVE",
"83 304 OFFCURVE",
"93 312 CURVE SMOOTH",
"103 319 OFFCURVE",
"122 318 OFFCURVE",
"120 297 CURVE SMOOTH",
"118 281 OFFCURVE",
"110 261 OFFCURVE",
"107 255 CURVE SMOOTH",
"88 212 OFFCURVE",
"65 164 OFFCURVE",
"52 117 CURVE SMOOTH",
"37 64 OFFCURVE",
"48 -7 OFFCURVE",
"111 -7 CURVE SMOOTH",
"156 -7 OFFCURVE",
"192 19 OFFCURVE",
"222 55 CURVE SMOOTH",
"239 75 OFFCURVE",
"258 104 OFFCURVE",
"275 135 CURVE",
"279 110 OFFCURVE",
"293 88 OFFCURVE",
"321 88 CURVE SMOOTH",
"369 88 OFFCURVE",
"391 134 OFFCURVE",
"411 175 CURVE SMOOTH"
);
}
);
width = 313;
}
);
note = v;
unicode = 0076;
},
{
glyphname = w;
layers = (
{
hints = (
{
horizontal = 1;
place = "{-3, 27}";
type = Stem;
},
{
horizontal = 1;
place = "{-10, 21}";
target = up;
type = BottomGhost;
},
{
horizontal = 1;
place = "{331, -20}";
target = down;
type = TopGhost;
}
);
layerId = "23C1765D-E8A9-427D-A2B9-D2B95394C525";
paths = (
{
closed = 1;
nodes = (
"619 174 OFFCURVE",
"606 173 OFFCURVE",
"602 164 CURVE SMOOTH",
"588 136 OFFCURVE",
"564 94 OFFCURVE",
"526 94 CURVE SMOOTH",
"503 94 OFFCURVE",
"486 123 OFFCURVE",
"487 164 CURVE",
"498 187 OFFCURVE",
"506 207 OFFCURVE",
"511 220 CURVE SMOOTH",
"517 235 OFFCURVE",
"533 281 OFFCURVE",
"533 318 CURVE SMOOTH",
"533 369 OFFCURVE",
"493 357 OFFCURVE",
"481 328 CURVE SMOOTH",
"463 284 OFFCURVE",
"467 194 OFFCURVE",
"472 175 CURVE",
"451 122 OFFCURVE",
"396 20 OFFCURVE",
"329 14 CURVE SMOOTH",
"310 12 OFFCURVE",
"272 19 OFFCURVE",
"279 76 CURVE SMOOTH",
"289 155 OFFCURVE",
"382 316 OFFCURVE",
"411 325 CURVE",
"367 325 OFFCURVE",
"340 319 OFFCURVE",
"311 270 CURVE SMOOTH",
"266 193 OFFCURVE",
"237 111 OFFCURVE",
"178 46 CURVE SMOOTH",
"159 24 OFFCURVE",
"130 9 OFFCURVE",
"114 14 CURVE SMOOTH",
"44 34 OFFCURVE",
"178 299 OFFCURVE",
"221 313 CURVE",
"177 313 OFFCURVE",
"150 307 OFFCURVE",
"121 258 CURVE SMOOTH",
"86 197 OFFCURVE",
"-12 6 OFFCURVE",
"98 -6 CURVE SMOOTH",
"126 -9 OFFCURVE",
"157 6 OFFCURVE",
"178 27 CURVE SMOOTH",
"200 49 OFFCURVE",
"226 81 OFFCURVE",
"239 106 CURVE",
"225 32 OFFCURVE",
"261 -7 OFFCURVE",
"305 -7 CURVE SMOOTH",
"389 -7 OFFCURVE",
"438 74 OFFCURVE",
"473 135 CURVE",
"477 98 OFFCURVE",
"501 81 OFFCURVE",
"523 81 CURVE SMOOTH",
"566 81 OFFCURVE",
"595 120 OFFCURVE",
"611 156 CURVE SMOOTH"
);
}
);
width = 523;
}
);
note = w;
unicode = 0077;
},
{
glyphname = x;
layers = (
{
hints = (
{
horizontal = 1;
place = "{-7, 17}";
type = Stem;
},
{
horizontal = 1;
place = "{335, -20}";
target = down;
type = TopGhost;
},
{
horizontal = 1;
place = "{0, -20}";
target = down;
type = TopGhost;
}
);
layerId = "23C1765D-E8A9-427D-A2B9-D2B95394C525";
paths = (
{
closed = 1;
nodes = (
"454 172 OFFCURVE",
"441 175 OFFCURVE",
"436 165 CURVE SMOOTH",
"411 118 OFFCURVE",
"386 79 OFFCURVE",
"356 46 CURVE SMOOTH",
"343 31 OFFCURVE",
"318 10 OFFCURVE",
"299 10 CURVE SMOOTH",
"272 11 OFFCURVE",
"263 42 OFFCURVE",
"259 65 CURVE SMOOTH",
"254 99 OFFCURVE",
"255 139 OFFCURVE",
"258 173 CURVE",
"311 228 OFFCURVE",
"380 303 OFFCURVE",
"405 321 CURVE",
"357 321 LINE",
"337 292 OFFCURVE",
"295 235 OFFCURVE",
"260 195 CURVE",
"262 213 OFFCURVE",
"263 243 OFFCURVE",
"263 269 CURVE SMOOTH",
"263 305 OFFCURVE",
"252 335 OFFCURVE",
"215 335 CURVE SMOOTH",
"164 335 OFFCURVE",
"146 292 OFFCURVE",
"121 246 CURVE SMOOTH",
"102 211 OFFCURVE",
"91 186 OFFCURVE",
"73 152 CURVE SMOOTH",
"65 137 OFFCURVE",
"68 118 OFFCURVE",
"79 138 CURVE SMOOTH",
"135 243 LINE SMOOTH",
"140 252 OFFCURVE",
"158 283 OFFCURVE",
"173 302 CURVE SMOOTH",
"186 318 OFFCURVE",
"204 314 OFFCURVE",
"207 294 CURVE SMOOTH",
"211 273 OFFCURVE",
"208 240 OFFCURVE",
"207 229 CURVE SMOOTH",
"201 152 LINE",
"147 97 OFFCURVE",
"76 20 OFFCURVE",
"49 0 CURVE",
"98 0 LINE",
"118 31 OFFCURVE",
"166 94 OFFCURVE",
"201 135 CURVE",
"200 90 OFFCURVE",
"202 -4 OFFCURVE",
"284 -7 CURVE SMOOTH",
"309 -8 OFFCURVE",
"335 5 OFFCURVE",
"356 27 CURVE SMOOTH",
"394 66 OFFCURVE",
"419 108 OFFCURVE",
"443 152 CURVE SMOOTH"
);
}
);
width = 356;
}
);
note = x;
unicode = 0078;
},
{
glyphname = y;
layers = (
{
hints = (
{
horizontal = 1;
place = "{-286, 19}";
type = Stem;
},
{
horizontal = 1;
place = "{-6, 28}";
type = Stem;
},
{
horizontal = 1;
place = "{313, 26}";
type = Stem;
},
{
place = "{14, 16}";
type = Stem;
},
{
place = "{123, 52}";
type = Stem;
},
{
place = "{219, 56}";
type = Stem;
}
);
layerId = "23C1765D-E8A9-427D-A2B9-D2B95394C525";
paths = (
{
closed = 1;
nodes = (
"532 166 OFFCURVE",
"524 175 OFFCURVE",
"518 165 CURVE SMOOTH",
"493 119 OFFCURVE",
"469 78 OFFCURVE",
"439 46 CURVE SMOOTH",
"396 -2 OFFCURVE",
"343 -31 OFFCURVE",
"307 -46 CURVE",
"350 62 OFFCURVE",
"447 314 OFFCURVE",
"495 358 CURVE",
"437 361 OFFCURVE",
"401 300 OFFCURVE",
"382 260 CURVE SMOOTH",
"342 176 OFFCURVE",
"304 95 OFFCURVE",
"233 38 CURVE SMOOTH",
"195 7 OFFCURVE",
"157 19 OFFCURVE",
"183 84 CURVE SMOOTH",
"199 124 OFFCURVE",
"218 164 OFFCURVE",
"252 223 CURVE SMOOTH",
"273 260 OFFCURVE",
"299 332 OFFCURVE",
"235 339 CURVE SMOOTH",
"213 342 OFFCURVE",
"184 333 OFFCURVE",
"164 310 CURVE SMOOTH",
"151 294 OFFCURVE",
"138 275 OFFCURVE",
"127 255 CURVE SMOOTH",
"106 218 OFFCURVE",
"93 188 OFFCURVE",
"64 136 CURVE SMOOTH",
"53 116 OFFCURVE",
"66 117 OFFCURVE",
"71 125 CURVE SMOOTH",
"100 173 OFFCURVE",
"134 242 OFFCURVE",
"134 242 CURVE",
"145 263 OFFCURVE",
"178 317 OFFCURVE",
"208 313 CURVE SMOOTH",
"235 309 OFFCURVE",
"208 251 OFFCURVE",
"201 237 CURVE SMOOTH",
"180 192 OFFCURVE",
"157 151 OFFCURVE",
"138 105 CURVE SMOOTH",
"119 58 OFFCURVE",
"107 -14 OFFCURVE",
"176 -6 CURVE SMOOTH",
"197 -3 OFFCURVE",
"218 8 OFFCURVE",
"241 25 CURVE SMOOTH",
"260 42 OFFCURVE",
"292 75 OFFCURVE",
"321 111 CURVE",
"266 -27 OFFCURVE",
"258 -48 OFFCURVE",
"249 -69 CURVE",
"159 -111 OFFCURVE",
"124 -120 OFFCURVE",
"62 -162 CURVE SMOOTH",
"-13 -214 OFFCURVE",
"0 -306 OFFCURVE",
"105 -282 CURVE SMOOTH",
"200 -261 OFFCURVE",
"250 -175 OFFCURVE",
"298 -67 CURVE",
"340 -52 OFFCURVE",
"391 -19 OFFCURVE",
"439 27 CURVE SMOOTH",
"477 65 OFFCURVE",
"502 111 OFFCURVE",
"526 155 CURVE SMOOTH"
);
},
{
closed = 1;
nodes = (
"211 -161 OFFCURVE",
"170 -240 OFFCURVE",
"99 -262 CURVE SMOOTH",
"20 -286 OFFCURVE",
"8 -221 OFFCURVE",
"69 -174 CURVE SMOOTH",
"126 -131 OFFCURVE",
"197 -111 OFFCURVE",
"240 -88 CURVE"
);
}
);
width = 439;
}
);
note = y;
unicode = 0079;
},
{
glyphname = z;
layers = (
{
hints = (
{
horizontal = 1;
place = "{83, 21}";
type = Stem;
},
{
horizontal = 1;
place = "{286, 38}";
type = Stem;
},
{
place = "{-24, 18}";
type = Stem;
},
{
place = "{275, 37}";
type = Stem;
}
);
layerId = "23C1765D-E8A9-427D-A2B9-D2B95394C525";
paths = (
{
closed = 1;
nodes = (
"446 173 OFFCURVE",
"428 165 OFFCURVE",
"419 150 CURVE SMOOTH",
"394 104 OFFCURVE",
"353 53 OFFCURVE",
"309 13 CURVE",
"322 79 OFFCURVE",
"300 127 OFFCURVE",
"187 93 CURVE SMOOTH",
"172 88 OFFCURVE",
"156 81 OFFCURVE",
"143 73 CURVE",
"143 75 OFFCURVE",
"144 76 OFFCURVE",
"144 78 CURVE",
"173 114 OFFCURVE",
"222 157 OFFCURVE",
"238 175 CURVE SMOOTH",
"266 204 OFFCURVE",
"310 251 OFFCURVE",
"344 273 CURVE",
"390 268 OFFCURVE",
"407 320 OFFCURVE",
"388 328 CURVE",
"376 322 OFFCURVE",
"320 321 OFFCURVE",
"305 321 CURVE SMOOTH",
"273 321 OFFCURVE",
"226 329 OFFCURVE",
"196 321 CURVE SMOOTH",
"164 313 OFFCURVE",
"148 292 OFFCURVE",
"129 259 CURVE SMOOTH",
"105 218 OFFCURVE",
"93 187 OFFCURVE",
"67 142 CURVE SMOOTH",
"59 128 OFFCURVE",
"66 116 OFFCURVE",
"73 129 CURVE SMOOTH",
"106 187 OFFCURVE",
"127 226 OFFCURVE",
"144 250 CURVE SMOOTH",
"170 286 OFFCURVE",
"201 290 OFFCURVE",
"241 286 CURVE SMOOTH",
"259 284 OFFCURVE",
"303 279 OFFCURVE",
"318 276 CURVE",
"287 248 OFFCURVE",
"257 218 OFFCURVE",
"229 186 CURVE SMOOTH",
"161 110 OFFCURVE",
"120 77 OFFCURVE",
"66 45 CURVE SMOOTH",
"40 29 OFFCURVE",
"42 -5 OFFCURVE",
"76 2 CURVE SMOOTH",
"93 5 OFFCURVE",
"125 29 OFFCURVE",
"138 56 CURVE",
"152 63 OFFCURVE",
"166 68 OFFCURVE",
"177 72 CURVE SMOOTH",
"239 96 OFFCURVE",
"288 86 OFFCURVE",
"272 13 CURVE SMOOTH",
"269 -1 OFFCURVE",
"264 -14 OFFCURVE",
"260 -24 CURVE",
"180 -70 OFFCURVE",
"91 -100 OFFCURVE",
"26 -143 CURVE SMOOTH",
"-54 -196 OFFCURVE",
"-37 -304 OFFCURVE",
"70 -284 CURVE SMOOTH",
"169 -265 OFFCURVE",
"242 -168 OFFCURVE",
"289 -54 CURVE SMOOTH",
"295 -38 OFFCURVE",
"301 -22 OFFCURVE",
"305 -7 CURVE",
"320 5 OFFCURVE",
"337 20 OFFCURVE",
"348 31 CURVE SMOOTH",
"381 66 OFFCURVE",
"409 107 OFFCURVE",
"433 150 CURVE SMOOTH"
);
},
{
closed = 1;
nodes = (
"213 -131 OFFCURVE",
"165 -238 OFFCURVE",
"64 -267 CURVE SMOOTH",
"-18 -291 OFFCURVE",
"-29 -200 OFFCURVE",
"35 -155 CURVE SMOOTH",
"96 -113 OFFCURVE",
"206 -75 OFFCURVE",
"255 -42 CURVE"
);
}
);
width = 348;
}
);
note = z;
unicode = 007A;
},
{
glyphname = braceleft;
layers = (
{
hints = (
{
place = "{83, 28}";
type = Stem;
},
{
place = "{117, 27}";
type = Stem;
}
);
layerId = "23C1765D-E8A9-427D-A2B9-D2B95394C525";
paths = (
{
closed = 1;
nodes = (
"416 622 LINE",
"389 622 OFFCURVE",
"348 620 OFFCURVE",
"330 615 CURVE SMOOTH",
"208 584 OFFCURVE",
"211 480 OFFCURVE",
"180 389 CURVE SMOOTH",
"151 306 OFFCURVE",
"124 286 OFFCURVE",
"42 279 CURVE",
"38 269 LINE",
"93 268 OFFCURVE",
"121 252 OFFCURVE",
"115 190 CURVE SMOOTH",
"108 119 OFFCURVE",
"65 37 OFFCURVE",
"59 -33 CURVE SMOOTH",
"52 -105 OFFCURVE",
"141 -116 OFFCURVE",
"200 -116 CURVE",
"207 -103 LINE",
"185 -103 OFFCURVE",
"103 -109 OFFCURVE",
"110 -37 CURVE SMOOTH",
"116 33 OFFCURVE",
"157 115 OFFCURVE",
"164 184 CURVE SMOOTH",
"169 237 OFFCURVE",
"131 270 OFFCURVE",
"82 275 CURVE SMOOTH",
"86 275 LINE SMOOTH",
"153 275 OFFCURVE",
"210 337 OFFCURVE",
"234 397 CURVE SMOOTH",
"277 502 OFFCURVE",
"263 613 OFFCURVE",
"415 613 CURVE"
);
}
);
width = 314;
}
);
note = braceleft;
unicode = 007B;
},
{
glyphname = bar;
layers = (
{
hints = (
{
place = "{115, 38}";
type = Stem;
}
);
layerId = "23C1765D-E8A9-427D-A2B9-D2B95394C525";
paths = (
{
closed = 1;
nodes = (
"120 674 LINE",
"94 674 LINE",
"94 -35 LINE",
"120 -35 LINE"
);
}
);
width = 212;
}
);
note = bar;
unicode = 007C;
},
{
glyphname = braceright;
layers = (
{
hints = (
{
place = "{280, 27}";
type = Stem;
},
{
place = "{330, 30}";
type = Stem;
}
);
layerId = "23C1765D-E8A9-427D-A2B9-D2B95394C525";
paths = (
{
closed = 1;
nodes = (
"416 237 LINE",
"360 238 OFFCURVE",
"331 253 OFFCURVE",
"338 316 CURVE SMOOTH",
"345 387 OFFCURVE",
"388 468 OFFCURVE",
"395 540 CURVE SMOOTH",
"402 611 OFFCURVE",
"312 622 OFFCURVE",
"253 622 CURVE",
"247 609 LINE",
"268 609 OFFCURVE",
"350 615 OFFCURVE",
"343 543 CURVE SMOOTH",
"337 473 OFFCURVE",
"297 392 OFFCURVE",
"290 321 CURVE SMOOTH",
"285 269 OFFCURVE",
"322 236 OFFCURVE",
"372 232 CURVE SMOOTH",
"368 232 LINE SMOOTH",
"301 232 OFFCURVE",
"244 169 OFFCURVE",
"220 110 CURVE SMOOTH",
"178 3 OFFCURVE",
"191 -107 OFFCURVE",
"39 -106 CURVE",
"38 -116 LINE",
"64 -116 OFFCURVE",
"105 -114 OFFCURVE",
"124 -109 CURVE SMOOTH",
"246 -77 OFFCURVE",
"242 25 OFFCURVE",
"273 117 CURVE SMOOTH",
"302 200 OFFCURVE",
"330 219 OFFCURVE",
"411 228 CURVE"
);
}
);
width = 412;
}
);
note = braceright;
unicode = 007D;
},
{
glyphname = asciitilde;
layers = (
{
hints = (
{
horizontal = 1;
place = "{353, 21}";
type = Stem;
},
{
horizontal = 1;
place = "{382, 23}";
type = Stem;
}
);
layerId = "23C1765D-E8A9-427D-A2B9-D2B95394C525";
paths = (
{
closed = 1;
nodes = (
"258 407 LINE",
"254 401 OFFCURVE",
"241 382 OFFCURVE",
"204 382 CURVE SMOOTH",
"159 382 OFFCURVE",
"128 404 OFFCURVE",
"89 404 CURVE SMOOTH",
"59 404 OFFCURVE",
"28 380 OFFCURVE",
"28 353 CURVE",
"37 353 LINE",
"42 361 OFFCURVE",
"59 373 OFFCURVE",
"89 373 CURVE SMOOTH",
"128 373 OFFCURVE",
"159 351 OFFCURVE",
"204 351 CURVE SMOOTH",
"241 351 OFFCURVE",
"265 380 OFFCURVE",
"265 407 CURVE"
);
}
);
width = 278;
}
);
note = asciitilde;
unicode = 007E;
},
{
glyphname = Scaron;
layers = (
{
hints = (
{
horizontal = 1;
place = "{-102, 20}";
type = Stem;
},
{
horizontal = 1;
place = "{384, 17}";
type = Stem;
},
{
horizontal = 1;
place = "{707, 19}";
type = Stem;
},
{
place = "{610, 74}";
type = Stem;
}
);
layerId = "23C1765D-E8A9-427D-A2B9-D2B95394C525";
paths = (
{
closed = 1;
nodes = (
"867 881 LINE SMOOTH",
"872 885 OFFCURVE",
"862 892 OFFCURVE",
"856 888 CURVE SMOOTH",
"728 804 LINE",
"652 886 LINE SMOOTH",
"648 891 OFFCURVE",
"637 883 OFFCURVE",
"641 877 CURVE SMOOTH",
"705 772 LINE SMOOTH",
"711 762 OFFCURVE",
"723 765 OFFCURVE",
"739 778 CURVE SMOOTH"
);
},
{
closed = 1;
nodes = (
"776 714 OFFCURVE",
"723 728 OFFCURVE",
"684 726 CURVE SMOOTH",
"618 723 OFFCURVE",
"567 684 OFFCURVE",
"542 626 CURVE SMOOTH",
"496 517 OFFCURVE",
"570 411 OFFCURVE",
"599 320 CURVE SMOOTH",
"609 289 OFFCURVE",
"610 256 OFFCURVE",
"610 222 CURVE SMOOTH",
"610 60 OFFCURVE",
"484 -82 OFFCURVE",
"294 -82 CURVE SMOOTH",
"92 -82 OFFCURVE",
"64 103 OFFCURVE",
"163 239 CURVE SMOOTH",
"216 312 OFFCURVE",
"304 377 OFFCURVE",
"397 384 CURVE SMOOTH",
"493 392 OFFCURVE",
"501 320 OFFCURVE",
"454 256 CURVE SMOOTH",
"405 190 OFFCURVE",
"293 132 OFFCURVE",
"212 138 CURVE SMOOTH",
"206 139 OFFCURVE",
"205 130 OFFCURVE",
"211 129 CURVE SMOOTH",
"300 118 OFFCURVE",
"408 166 OFFCURVE",
"466 240 CURVE SMOOTH",
"529 320 OFFCURVE",
"513 398 OFFCURVE",
"407 401 CURVE SMOOTH",
"303 403 OFFCURVE",
"190 334 OFFCURVE",
"130 251 CURVE SMOOTH",
"14 88 OFFCURVE",
"72 -102 OFFCURVE",
"299 -102 CURVE SMOOTH",
"511 -102 OFFCURVE",
"684 36 OFFCURVE",
"684 229 CURVE SMOOTH",
"684 283 OFFCURVE",
"671 337 OFFCURVE",
"644 388 CURVE SMOOTH",
"605 463 OFFCURVE",
"542 557 OFFCURVE",
"594 652 CURVE SMOOTH",
"611 683 OFFCURVE",
"649 705 OFFCURVE",
"686 707 CURVE SMOOTH",
"719 708 OFFCURVE",
"741 691 OFFCURVE",
"741 657 CURVE",
"738 637 LINE",
"751 632 OFFCURVE",
"777 640 OFFCURVE",
"777 666 CURVE SMOOTH"
);
}
);
width = 680;
}
);
note = Scaron;
unicode = 0160;
},
{
glyphname = scaron;
layers = (
{
hints = (
{
horizontal = 1;
place = "{-21, 12}";
type = Stem;
}
);
layerId = "23C1765D-E8A9-427D-A2B9-D2B95394C525";
paths = (
{
closed = 1;
nodes = (
"388 516 LINE SMOOTH",
"393 520 OFFCURVE",
"382 528 OFFCURVE",
"377 524 CURVE SMOOTH",
"248 439 LINE",
"173 521 LINE SMOOTH",
"168 526 OFFCURVE",
"158 518 OFFCURVE",
"161 513 CURVE SMOOTH",
"226 407 LINE SMOOTH",
"232 398 OFFCURVE",
"243 401 OFFCURVE",
"259 413 CURVE SMOOTH"
);
},
{
closed = 1;
nodes = (
"346 125 LINE SMOOTH",
"350 133 OFFCURVE",
"348 154 OFFCURVE",
"344 147 CURVE SMOOTH",
"340 139 LINE SMOOTH",
"324 107 OFFCURVE",
"304 70 OFFCURVE",
"282 43 CURVE SMOOTH",
"258 14 OFFCURVE",
"212 -3 OFFCURVE",
"196 32 CURVE",
"230 66 OFFCURVE",
"246 117 OFFCURVE",
"245 165 CURVE SMOOTH",
"244 207 OFFCURVE",
"230 241 OFFCURVE",
"222 275 CURVE SMOOTH",
"211 320 OFFCURVE",
"224 329 OFFCURVE",
"252 322 CURVE SMOOTH",
"266 319 OFFCURVE",
"279 334 OFFCURVE",
"256 344 CURVE SMOOTH",
"241 350 OFFCURVE",
"224 349 OFFCURVE",
"210 345 CURVE SMOOTH",
"166 332 OFFCURVE",
"93 202 OFFCURVE",
"72 154 CURVE",
"54 152 OFFCURVE",
"40 133 OFFCURVE",
"30 110 CURVE SMOOTH",
"21 88 OFFCURVE",
"18 54 OFFCURVE",
"30 30 CURVE SMOOTH",
"57 -28 OFFCURVE",
"140 -11 OFFCURVE",
"184 21 CURVE",
"203 -11 OFFCURVE",
"254 -6 OFFCURVE",
"282 22 CURVE SMOOTH",
"308 47 OFFCURVE",
"324 77 OFFCURVE",
"341 114 CURVE SMOOTH"
);
},
{
closed = 1;
nodes = (
"201 320 OFFCURVE",
"196 294 OFFCURVE",
"195 269 CURVE SMOOTH",
"194 231 OFFCURVE",
"200 123 OFFCURVE",
"169 58 CURVE SMOOTH",
"160 40 OFFCURVE",
"149 27 OFFCURVE",
"135 18 CURVE SMOOTH",
"100 -4 OFFCURVE",
"47 2 OFFCURVE",
"48 53 CURVE SMOOTH",
"48 77 OFFCURVE",
"61 105 OFFCURVE",
"79 119 CURVE SMOOTH",
"90 128 OFFCURVE",
"104 133 OFFCURVE",
"117 128 CURVE",
"122 135 OFFCURVE",
"113 156 OFFCURVE",
"88 155 CURVE",
"108 200 OFFCURVE",
"173 315 OFFCURVE",
"212 331 CURVE"
);
}
);
width = 282;
}
);
note = scaron;
unicode = 0161;
},
{
glyphname = dagger;
layers = (
{
hints = (
{
horizontal = 1;
place = "{349, 25}";
type = Stem;
}
);
layerId = "23C1765D-E8A9-427D-A2B9-D2B95394C525";
paths = (
{
closed = 1;
nodes = (
"269 374 LINE",
"362 566 LINE",
"324 566 LINE",
"231 374 LINE",
"115 374 LINE",
"108 371 OFFCURVE",
"88 349 OFFCURVE",
"88 342 CURVE",
"215 342 LINE",
"12 -81 LINE",
"50 -81 LINE",
"253 342 LINE",
"393 342 LINE",
"399 345 OFFCURVE",
"420 366 OFFCURVE",
"419 374 CURVE"
);
}
);
width = 422;
}
);
note = dagger;
unicode = 2020;
},
{
glyphname = degree;
layers = (
{
hints = (
{
horizontal = 1;
place = "{313, 14}";
type = Stem;
},
{
horizontal = 1;
place = "{406, 16}";
type = Stem;
},
{
place = "{89, 15}";
type = Stem;
},
{
place = "{181, 16}";
type = Stem;
}
);
layerId = "23C1765D-E8A9-427D-A2B9-D2B95394C525";
paths = (
{
closed = 1;
nodes = (
"197 397 OFFCURVE",
"173 422 OFFCURVE",
"143 422 CURVE SMOOTH",
"113 422 OFFCURVE",
"89 397 OFFCURVE",
"89 367 CURVE SMOOTH",
"89 337 OFFCURVE",
"113 313 OFFCURVE",
"143 313 CURVE SMOOTH",
"173 313 OFFCURVE",
"197 337 OFFCURVE",
"197 367 CURVE SMOOTH"
);
},
{
closed = 1;
nodes = (
"182 345 OFFCURVE",
"164 327 OFFCURVE",
"142 327 CURVE SMOOTH",
"121 327 OFFCURVE",
"103 345 OFFCURVE",
"103 367 CURVE SMOOTH",
"103 388 OFFCURVE",
"121 406 OFFCURVE",
"142 406 CURVE SMOOTH",
"164 406 OFFCURVE",
"182 388 OFFCURVE",
"182 367 CURVE SMOOTH"
);
}
);
width = 265;
}
);
note = degree;
unicode = 00B0;
},
{
glyphname = cent;
layers = (
{
hints = (
{
horizontal = 1;
place = "{485, 16}";
type = Stem;
},
{
place = "{14, 44}";
type = Stem;
},
{
place = "{316, 15}";
type = Stem;
}
);
layerId = "23C1765D-E8A9-427D-A2B9-D2B95394C525";
paths = (
{
closed = 1;
nodes = (
"499 599 OFFCURVE",
"461 610 OFFCURVE",
"421 612 CURVE",
"446 674 LINE",
"417 674 LINE",
"391 610 LINE",
"128 586 OFFCURVE",
"-54 161 OFFCURVE",
"171 86 CURVE",
"174 84 LINE",
"139 0 LINE",
"168 0 LINE",
"201 80 LINE",
"281 74 OFFCURVE",
"415 113 OFFCURVE",
"424 190 CURVE SMOOTH",
"427 211 OFFCURVE",
"418 229 OFFCURVE",
"390 223 CURVE",
"390 190 OFFCURVE",
"365 152 OFFCURVE",
"340 131 CURVE SMOOTH",
"306 102 OFFCURVE",
"254 92 OFFCURVE",
"212 105 CURVE",
"414 595 LINE",
"435 593 OFFCURVE",
"451 583 OFFCURVE",
"455 565 CURVE",
"456 553 OFFCURVE",
"450 532 OFFCURVE",
"447 519 CURVE",
"455 501 OFFCURVE",
"499 518 OFFCURVE",
"499 556 CURVE SMOOTH"
);
},
{
closed = 1;
nodes = (
"187 116 LINE",
"163 131 OFFCURVE",
"145 155 OFFCURVE",
"139 190 CURVE SMOOTH",
"129 246 OFFCURVE",
"139 319 OFFCURVE",
"166 382 CURVE SMOOTH",
"198 456 OFFCURVE",
"280 552 OFFCURVE",
"365 586 CURVE SMOOTH",
"371 589 OFFCURVE",
"377 591 OFFCURVE",
"383 592 CURVE"
);
}
);
width = 443;
}
);
note = cent;
unicode = 00A2;
},
{
glyphname = sterling;
layers = (
{
hints = (
{
horizontal = 1;
place = "{301, 20}";
type = Stem;
}
);
layerId = "23C1765D-E8A9-427D-A2B9-D2B95394C525";
paths = (
{
closed = 1;
nodes = (
"843 145 OFFCURVE",
"828 155 OFFCURVE",
"824 146 CURVE SMOOTH",
"823 143 OFFCURVE",
"824 140 OFFCURVE",
"826 132 CURVE SMOOTH",
"841 75 OFFCURVE",
"802 11 OFFCURVE",
"736 -23 CURVE SMOOTH",
"626 -80 OFFCURVE",
"442 -44 OFFCURVE",
"309 -15 CURVE SMOOTH",
"202 8 LINE",
"263 37 OFFCURVE",
"314 86 OFFCURVE",
"354 143 CURVE SMOOTH",
"381 181 OFFCURVE",
"409 238 OFFCURVE",
"439 301 CURVE",
"564 301 LINE",
"564 321 LINE",
"449 321 LINE",
"513 456 OFFCURVE",
"582 609 OFFCURVE",
"659 653 CURVE SMOOTH",
"728 692 OFFCURVE",
"840 669 OFFCURVE",
"821 570 CURVE SMOOTH",
"809 506 OFFCURVE",
"754 454 OFFCURVE",
"694 432 CURVE SMOOTH",
"682 428 OFFCURVE",
"683 415 OFFCURVE",
"698 421 CURVE SMOOTH",
"762 444 OFFCURVE",
"821 490 OFFCURVE",
"841 556 CURVE SMOOTH",
"863 626 OFFCURVE",
"833 685 OFFCURVE",
"759 693 CURVE SMOOTH",
"720 697 OFFCURVE",
"683 687 OFFCURVE",
"649 669 CURVE SMOOTH",
"600 643 OFFCURVE",
"558 598 OFFCURVE",
"527 556 CURVE SMOOTH",
"477 487 OFFCURVE",
"435 402 OFFCURVE",
"395 321 CURVE",
"279 321 LINE",
"279 301 LINE",
"385 301 LINE",
"357 245 OFFCURVE",
"330 191 OFFCURVE",
"302 148 CURVE SMOOTH",
"261 86 OFFCURVE",
"212 32 OFFCURVE",
"165 15 CURVE",
"99 29 LINE SMOOTH",
"91 31 OFFCURVE",
"48 40 OFFCURVE",
"33 30 CURVE SMOOTH",
"14 17 OFFCURVE",
"19 2 OFFCURVE",
"36 -6 CURVE SMOOTH",
"54 -15 OFFCURVE",
"83 -14 OFFCURVE",
"91 -14 CURVE SMOOTH",
"115 -15 OFFCURVE",
"142 -13 OFFCURVE",
"163 -7 CURVE",
"221 -25 OFFCURVE",
"279 -46 OFFCURVE",
"297 -52 CURVE SMOOTH",
"407 -85 OFFCURVE",
"551 -117 OFFCURVE",
"666 -100 CURVE SMOOTH",
"707 -94 OFFCURVE",
"748 -82 OFFCURVE",
"781 -59 CURVE SMOOTH",
"845 -15 OFFCURVE",
"874 65 OFFCURVE",
"848 133 CURVE SMOOTH"
);
}
);
width = 868;
}
);
note = sterling;
unicode = 00A3;
},
{
glyphname = section;
layers = (
{
hints = (
{
horizontal = 1;
place = "{-52, 71}";
type = Stem;
},
{
horizontal = 1;
place = "{-52, 165}";
type = Stem;
},
{
horizontal = 1;
place = "{671, 71}";
type = Stem;
},
{
place = "{-340, 78}";
type = Stem;
},
{
place = "{-306, 80}";
type = Stem;
},
{
place = "{-292, 79}";
type = Stem;
},
{
place = "{-64, 81}";
type = Stem;
},
{
place = "{-17, 78}";
type = Stem;
}
);
layerId = "23C1765D-E8A9-427D-A2B9-D2B95394C525";
paths = (
{
closed = 1;
nodes = (
"858 714 OFFCURVE",
"805 728 OFFCURVE",
"766 726 CURVE SMOOTH",
"700 723 OFFCURVE",
"649 684 OFFCURVE",
"624 626 CURVE SMOOTH",
"618 612 OFFCURVE",
"614 597 OFFCURVE",
"611 582 CURVE",
"557 573 OFFCURVE",
"515 536 OFFCURVE",
"493 485 CURVE SMOOTH",
"447 376 OFFCURVE",
"521 269 OFFCURVE",
"550 178 CURVE SMOOTH",
"614 -23 OFFCURVE",
"458 -224 OFFCURVE",
"245 -224 CURVE SMOOTH",
"42 -224 OFFCURVE",
"14 -38 OFFCURVE",
"113 98 CURVE SMOOTH",
"167 171 OFFCURVE",
"254 236 OFFCURVE",
"347 243 CURVE SMOOTH",
"444 251 OFFCURVE",
"452 178 OFFCURVE",
"405 115 CURVE SMOOTH",
"355 48 OFFCURVE",
"244 -9 OFFCURVE",
"162 -3 CURVE SMOOTH",
"156 -3 OFFCURVE",
"156 -11 OFFCURVE",
"161 -11 CURVE",
"250 -22 OFFCURVE",
"358 26 OFFCURVE",
"416 99 CURVE SMOOTH",
"478 179 OFFCURVE",
"463 259 OFFCURVE",
"358 261 CURVE SMOOTH",
"252 264 OFFCURVE",
"140 193 OFFCURVE",
"81 110 CURVE SMOOTH",
"-36 -53 OFFCURVE",
"23 -243 OFFCURVE",
"249 -243 CURVE SMOOTH",
"409 -243 OFFCURVE",
"537 -160 OFFCURVE",
"606 -43 CURVE",
"704 12 OFFCURVE",
"766 112 OFFCURVE",
"766 229 CURVE SMOOTH",
"766 283 OFFCURVE",
"752 337 OFFCURVE",
"726 388 CURVE SMOOTH",
"687 463 OFFCURVE",
"622 557 OFFCURVE",
"675 652 CURVE SMOOTH",
"692 683 OFFCURVE",
"731 705 OFFCURVE",
"768 707 CURVE SMOOTH",
"801 708 OFFCURVE",
"823 691 OFFCURVE",
"822 657 CURVE SMOOTH",
"822 649 OFFCURVE",
"821 643 OFFCURVE",
"819 637 CURVE",
"833 632 OFFCURVE",
"858 640 OFFCURVE",
"858 666 CURVE SMOOTH"
);
},
{
closed = 1;
nodes = (
"710 229 OFFCURVE",
"708 74 OFFCURVE",
"624 11 CURVE",
"645 81 OFFCURVE",
"634 172 OFFCURVE",
"595 246 CURVE SMOOTH",
"556 322 OFFCURVE",
"490 416 OFFCURVE",
"544 512 CURVE SMOOTH",
"556 534 OFFCURVE",
"582 553 OFFCURVE",
"609 562 CURVE",
"605 475 OFFCURVE",
"658 393 OFFCURVE",
"681 320 CURVE SMOOTH"
);
}
);
width = 793;
}
);
note = section;
unicode = 00A7;
},
{
glyphname = bullet;
layers = (
{
hints = (
{
horizontal = 1;
place = "{161, 164}";
type = Stem;
},
{
place = "{168, 165}";
type = Stem;
}
);
layerId = "23C1765D-E8A9-427D-A2B9-D2B95394C525";
paths = (
{
closed = 1;
nodes = (
"333 289 OFFCURVE",
"295 325 OFFCURVE",
"250 325 CURVE SMOOTH",
"205 325 OFFCURVE",
"168 288 OFFCURVE",
"168 243 CURVE SMOOTH",
"168 198 OFFCURVE",
"205 161 OFFCURVE",
"250 161 CURVE SMOOTH",
"295 161 OFFCURVE",
"333 197 OFFCURVE",
"333 243 CURVE SMOOTH"
);
}
);
width = 510;
}
);
note = bullet;
unicode = 2022;
},
{
glyphname = paragraph;
layers = (
{
hints = (
{
horizontal = 1;
place = "{-31, 17}";
type = Stem;
},
{
horizontal = 1;
place = "{654, 57}";
type = Stem;
},
{
place = "{207, 76}";
type = Stem;
},
{
place = "{283, 56}";
type = Stem;
}
);
layerId = "23C1765D-E8A9-427D-A2B9-D2B95394C525";
paths = (
{
closed = 1;
nodes = (
"328 556 LINE",
"181 556 LINE SMOOTH",
"154 556 OFFCURVE",
"124 555 OFFCURVE",
"99 544 CURVE SMOOTH",
"53 523 OFFCURVE",
"28 479 OFFCURVE",
"28 429 CURVE SMOOTH",
"28 349 OFFCURVE",
"79 309 OFFCURVE",
"156 309 CURVE",
"156 0 LINE",
"212 0 LINE",
"212 513 LINE",
"254 513 LINE",
"254 0 LINE",
"311 0 LINE",
"311 513 LINE",
"328 513 LINE"
);
}
);
width = 343;
}
);
note = paragraph;
unicode = 00B6;
},
{
glyphname = registered;
layers = (
{
hints = (
{
horizontal = 1;
place = "{436, 31}";
type = Stem;
},
{
horizontal = 1;
place = "{632, 34}";
type = Stem;
},
{
horizontal = 1;
place = "{742, 34}";
type = Stem;
},
{
horizontal = 1;
place = "{836, 31}";
type = Stem;
},
{
place = "{35, 31}";
type = Stem;
},
{
place = "{161, 38}";
type = Stem;
},
{
place = "{312, 37}";
type = Stem;
},
{
place = "{435, 32}";
type = Stem;
}
);
layerId = "23C1765D-E8A9-427D-A2B9-D2B95394C525";
paths = (
{
closed = 1;
nodes = (
"425 649 OFFCURVE",
"369 716 OFFCURVE",
"281 716 CURVE SMOOTH",
"193 716 OFFCURVE",
"106 649 OFFCURVE",
"86 567 CURVE SMOOTH",
"65 484 OFFCURVE",
"121 418 OFFCURVE",
"209 418 CURVE SMOOTH",
"297 418 OFFCURVE",
"384 484 OFFCURVE",
"405 567 CURVE SMOOTH"
);
},
{
closed = 1;
nodes = (
"304 462 OFFCURVE",
"265 523 OFFCURVE",
"245 569 CURVE",
"269 570 LINE",
"349 581 OFFCURVE",
"374 668 OFFCURVE",
"298 673 CURVE SMOOTH",
"237 677 OFFCURVE",
"172 684 OFFCURVE",
"143 607 CURVE SMOOTH",
"137 592 OFFCURVE",
"139 574 OFFCURVE",
"144 590 CURVE SMOOTH",
"158 638 OFFCURVE",
"201 666 OFFCURVE",
"252 665 CURVE",
"245 661 OFFCURVE",
"235 656 OFFCURVE",
"232 650 CURVE SMOOTH",
"214 617 OFFCURVE",
"153 479 OFFCURVE",
"127 474 CURVE",
"128 473 OFFCURVE",
"129 471 OFFCURVE",
"131 470 CURVE",
"128 470 LINE SMOOTH",
"118 470 OFFCURVE",
"122 473 OFFCURVE",
"127 474 CURVE",
"113 492 OFFCURVE",
"105 516 OFFCURVE",
"105 542 CURVE SMOOTH",
"105 616 OFFCURVE",
"168 686 OFFCURVE",
"245 700 CURVE SMOOTH",
"321 713 OFFCURVE",
"384 666 OFFCURVE",
"384 592 CURVE SMOOTH",
"384 558 OFFCURVE",
"371 524 OFFCURVE",
"349 496 CURVE",
"357 502 OFFCURVE",
"365 512 OFFCURVE",
"373 524 CURVE SMOOTH",
"377 530 OFFCURVE",
"381 530 OFFCURVE",
"377 524 CURVE SMOOTH",
"360 497 OFFCURVE",
"343 482 OFFCURVE",
"328 475 CURVE",
"336 482 OFFCURVE",
"343 489 OFFCURVE",
"349 496 CURVE"
);
},
{
closed = 1;
nodes = (
"198 424 OFFCURVE",
"156 439 OFFCURVE",
"131 470 CURVE",
"135 470 OFFCURVE",
"143 470 OFFCURVE",
"151 471 CURVE SMOOTH",
"168 472 OFFCURVE",
"169 479 OFFCURVE",
"182 507 CURVE SMOOTH",
"204 553 OFFCURVE",
"225 598 OFFCURVE",
"250 637 CURVE SMOOTH",
"262 655 OFFCURVE",
"269 662 OFFCURVE",
"293 662 CURVE SMOOTH",
"334 662 OFFCURVE",
"336 575 OFFCURVE",
"232 575 CURVE SMOOTH",
"229 575 OFFCURVE",
"222 565 OFFCURVE",
"222 565 CURVE",
"243 511 OFFCURVE",
"280 454 OFFCURVE",
"328 475 CURVE",
"305 452 OFFCURVE",
"275 439 OFFCURVE",
"245 433 CURVE SMOOTH"
);
}
);
width = 474;
}
);
note = registered;
unicode = 00AE;
},
{
glyphname = copyright;
layers = (
{
hints = (
{
horizontal = 1;
place = "{-11, 46}";
type = Stem;
},
{
horizontal = 1;
place = "{121, 51}";
type = Stem;
},
{
horizontal = 1;
place = "{121, 147}";
type = Stem;
},
{
horizontal = 1;
place = "{452, 51}";
type = Stem;
},
{
horizontal = 1;
place = "{586, 46}";
type = Stem;
},
{
place = "{-9, 47}";
type = Stem;
},
{
place = "{145, 58}";
type = Stem;
},
{
place = "{588, 47}";
type = Stem;
}
);
layerId = "23C1765D-E8A9-427D-A2B9-D2B95394C525";
paths = (
{
closed = 1;
nodes = (
"717 461 OFFCURVE",
"603 597 OFFCURVE",
"422 597 CURVE SMOOTH",
"241 597 OFFCURVE",
"65 461 OFFCURVE",
"23 292 CURVE SMOOTH",
"-18 124 OFFCURVE",
"93 -11 OFFCURVE",
"275 -11 CURVE SMOOTH",
"455 -11 OFFCURVE",
"634 124 OFFCURVE",
"675 292 CURVE SMOOTH"
);
},
{
closed = 1;
nodes = (
"633 192 OFFCURVE",
"505 48 OFFCURVE",
"347 19 CURVE SMOOTH",
"191 -9 OFFCURVE",
"63 90 OFFCURVE",
"63 242 CURVE SMOOTH",
"63 393 OFFCURVE",
"191 537 OFFCURVE",
"348 565 CURVE SMOOTH",
"505 594 OFFCURVE",
"633 495 OFFCURVE",
"633 343 CURVE SMOOTH"
);
},
{
closed = 1;
nodes = (
"453 480 OFFCURVE",
"428 485 OFFCURVE",
"402 484 CURVE SMOOTH",
"299 478 OFFCURVE",
"226 397 OFFCURVE",
"190 325 CURVE SMOOTH",
"138 221 OFFCURVE",
"162 105 OFFCURVE",
"295 107 CURVE SMOOTH",
"351 108 OFFCURVE",
"400 128 OFFCURVE",
"439 162 CURVE SMOOTH",
"463 182 OFFCURVE",
"466 207 OFFCURVE",
"425 173 CURVE SMOOTH",
"392 146 OFFCURVE",
"348 126 OFFCURVE",
"300 129 CURVE SMOOTH",
"266 131 OFFCURVE",
"242 149 OFFCURVE",
"232 167 CURVE SMOOTH",
"199 224 OFFCURVE",
"246 333 OFFCURVE",
"289 385 CURVE SMOOTH",
"305 405 OFFCURVE",
"323 422 OFFCURVE",
"340 436 CURVE SMOOTH",
"372 463 OFFCURVE",
"414 476 OFFCURVE",
"438 465 CURVE SMOOTH",
"464 454 OFFCURVE",
"448 405 OFFCURVE",
"416 375 CURVE SMOOTH",
"389 351 OFFCURVE",
"404 334 OFFCURVE",
"420 331 CURVE SMOOTH",
"469 320 OFFCURVE",
"539 431 OFFCURVE",
"473 469 CURVE SMOOTH"
);
}
);
width = 716;
}
);
note = copyright;
unicode = 00A9;
},
